<?xml version="1.0" encoding="utf-8" standalone="no"?>
<!DOCTYPE svg PUBLIC "-//W3C//DTD SVG 1.1//EN"
  "http://www.w3.org/Graphics/SVG/1.1/DTD/svg11.dtd">
<svg xmlns:xlink="http://www.w3.org/1999/xlink" width="460.8pt" height="345.6pt" viewBox="0 0 460.8 345.6" xmlns="http://www.w3.org/2000/svg" version="1.1">
 <metadata>
  <rdf:RDF xmlns:dc="http://purl.org/dc/elements/1.1/" xmlns:cc="http://creativecommons.org/ns#" xmlns:rdf="http://www.w3.org/1999/02/22-rdf-syntax-ns#">
   <cc:Work>
    <dc:type rdf:resource="http://purl.org/dc/dcmitype/StillImage"/>
    <dc:date>2023-06-22T16:39:59.132534</dc:date>
    <dc:format>image/svg+xml</dc:format>
    <dc:creator>
     <cc:Agent>
      <dc:title>Matplotlib v3.7.1, https://matplotlib.org/</dc:title>
     </cc:Agent>
    </dc:creator>
   </cc:Work>
  </rdf:RDF>
 </metadata>
 <defs>
  <style type="text/css">*{stroke-linejoin: round; stroke-linecap: butt}</style>
 </defs>
 <g id="figure_1">
  <g id="patch_1">
   <path d="M 0 345.6 
L 460.8 345.6 
L 460.8 0 
L 0 0 
z
" style="fill: #ffffff"/>
  </g>
  <g id="axes_1">
   <g id="patch_2">
    <path d="M 57.6 307.584 
L 219.927273 307.584 
L 219.927273 41.472 
L 57.6 41.472 
z
" style="fill: #ffffff"/>
   </g>
   <g id="patch_3">
    <path d="M 57.631748 307.584 
L 63.893802 307.584 
L 63.893802 65.664 
L 57.631748 65.664 
z
" clip-path="url(#pd5c059b35a)" style="fill: #008000; opacity: 0.9"/>
   </g>
   <g id="patch_4">
    <path d="M 63.893802 307.584 
L 70.155855 307.584 
L 70.155855 209.28 
L 63.893802 209.28 
z
" clip-path="url(#pd5c059b35a)" style="fill: #008000; opacity: 0.9"/>
   </g>
   <g id="patch_5">
    <path d="M 70.155855 307.584 
L 76.417908 307.584 
L 76.417908 258.624 
L 70.155855 258.624 
z
" clip-path="url(#pd5c059b35a)" style="fill: #008000; opacity: 0.9"/>
   </g>
   <g id="patch_6">
    <path d="M 76.417908 307.584 
L 82.679962 307.584 
L 82.679962 276.864 
L 76.417908 276.864 
z
" clip-path="url(#pd5c059b35a)" style="fill: #008000; opacity: 0.9"/>
   </g>
   <g id="patch_7">
    <path d="M 82.679962 307.584 
L 88.942015 307.584 
L 88.942015 292.224 
L 82.679962 292.224 
z
" clip-path="url(#pd5c059b35a)" style="fill: #008000; opacity: 0.9"/>
   </g>
   <g id="patch_8">
    <path d="M 88.942015 307.584 
L 95.204068 307.584 
L 95.204068 295.104 
L 88.942015 295.104 
z
" clip-path="url(#pd5c059b35a)" style="fill: #008000; opacity: 0.9"/>
   </g>
   <g id="patch_9">
    <path d="M 95.204068 307.584 
L 101.466122 307.584 
L 101.466122 298.944 
L 95.204068 298.944 
z
" clip-path="url(#pd5c059b35a)" style="fill: #008000; opacity: 0.9"/>
   </g>
   <g id="patch_10">
    <path d="M 101.466122 307.584 
L 107.728175 307.584 
L 107.728175 302.784 
L 101.466122 302.784 
z
" clip-path="url(#pd5c059b35a)" style="fill: #008000; opacity: 0.9"/>
   </g>
   <g id="patch_11">
    <path d="M 107.728175 307.584 
L 113.990228 307.584 
L 113.990228 302.976 
L 107.728175 302.976 
z
" clip-path="url(#pd5c059b35a)" style="fill: #008000; opacity: 0.9"/>
   </g>
   <g id="patch_12">
    <path d="M 113.990228 307.584 
L 120.252282 307.584 
L 120.252282 304.704 
L 113.990228 304.704 
z
" clip-path="url(#pd5c059b35a)" style="fill: #008000; opacity: 0.9"/>
   </g>
   <g id="patch_13">
    <path d="M 120.252282 307.584 
L 126.514335 307.584 
L 126.514335 304.32 
L 120.252282 304.32 
z
" clip-path="url(#pd5c059b35a)" style="fill: #008000; opacity: 0.9"/>
   </g>
   <g id="patch_14">
    <path d="M 126.514335 307.584 
L 132.776388 307.584 
L 132.776388 305.856 
L 126.514335 305.856 
z
" clip-path="url(#pd5c059b35a)" style="fill: #008000; opacity: 0.9"/>
   </g>
   <g id="patch_15">
    <path d="M 132.776388 307.584 
L 139.038442 307.584 
L 139.038442 305.856 
L 132.776388 305.856 
z
" clip-path="url(#pd5c059b35a)" style="fill: #008000; opacity: 0.9"/>
   </g>
   <g id="patch_16">
    <path d="M 139.038442 307.584 
L 145.300495 307.584 
L 145.300495 305.856 
L 139.038442 305.856 
z
" clip-path="url(#pd5c059b35a)" style="fill: #008000; opacity: 0.9"/>
   </g>
   <g id="patch_17">
    <path d="M 145.300495 307.584 
L 151.562548 307.584 
L 151.562548 306.816 
L 145.300495 306.816 
z
" clip-path="url(#pd5c059b35a)" style="fill: #008000; opacity: 0.9"/>
   </g>
   <g id="patch_18">
    <path d="M 151.562548 307.584 
L 157.824602 307.584 
L 157.824602 307.2 
L 151.562548 307.2 
z
" clip-path="url(#pd5c059b35a)" style="fill: #008000; opacity: 0.9"/>
   </g>
   <g id="patch_19">
    <path d="M 157.824602 307.584 
L 164.086655 307.584 
L 164.086655 307.392 
L 157.824602 307.392 
z
" clip-path="url(#pd5c059b35a)" style="fill: #008000; opacity: 0.9"/>
   </g>
   <g id="patch_20">
    <path d="M 164.086655 307.584 
L 170.348708 307.584 
L 170.348708 306.816 
L 164.086655 306.816 
z
" clip-path="url(#pd5c059b35a)" style="fill: #008000; opacity: 0.9"/>
   </g>
   <g id="patch_21">
    <path d="M 170.348708 307.584 
L 176.610762 307.584 
L 176.610762 307.2 
L 170.348708 307.2 
z
" clip-path="url(#pd5c059b35a)" style="fill: #008000; opacity: 0.9"/>
   </g>
   <g id="patch_22">
    <path d="M 176.610762 307.584 
L 182.872815 307.584 
L 182.872815 307.2 
L 176.610762 307.2 
z
" clip-path="url(#pd5c059b35a)" style="fill: #008000; opacity: 0.9"/>
   </g>
   <g id="patch_23">
    <path d="M 182.872815 307.584 
L 189.134868 307.584 
L 189.134868 307.584 
L 182.872815 307.584 
z
" clip-path="url(#pd5c059b35a)" style="fill: #008000; opacity: 0.9"/>
   </g>
   <g id="patch_24">
    <path d="M 189.134868 307.584 
L 195.396922 307.584 
L 195.396922 307.392 
L 189.134868 307.392 
z
" clip-path="url(#pd5c059b35a)" style="fill: #008000; opacity: 0.9"/>
   </g>
   <g id="patch_25">
    <path d="M 195.396922 307.584 
L 201.658975 307.584 
L 201.658975 307.392 
L 195.396922 307.392 
z
" clip-path="url(#pd5c059b35a)" style="fill: #008000; opacity: 0.9"/>
   </g>
   <g id="patch_26">
    <path d="M 201.658975 307.584 
L 207.921028 307.584 
L 207.921028 307.584 
L 201.658975 307.584 
z
" clip-path="url(#pd5c059b35a)" style="fill: #008000; opacity: 0.9"/>
   </g>
   <g id="patch_27">
    <path d="M 207.921028 307.584 
L 214.183082 307.584 
L 214.183082 307.392 
L 207.921028 307.392 
z
" clip-path="url(#pd5c059b35a)" style="fill: #008000; opacity: 0.9"/>
   </g>
   <g id="matplotlib.axis_1">
    <g id="xtick_1">
     <g id="line2d_1">
      <defs>
       <path id="m4ff2f54a1a" d="M 0 0 
L 0 3.5 
" style="stroke: #000000; stroke-width: 0.8"/>
      </defs>
      <g>
       <use xlink:href="#m4ff2f54a1a" x="57.6" y="307.584" style="stroke: #000000; stroke-width: 0.8"/>
      </g>
     </g>
     <g id="text_1">
      <!-- 0 -->
      <g transform="translate(54.41875 322.182437) scale(0.1 -0.1)">
       <defs>
        <path id="DejaVuSans-30" d="M 2034 4250 
Q 1547 4250 1301 3770 
Q 1056 3291 1056 2328 
Q 1056 1369 1301 889 
Q 1547 409 2034 409 
Q 2525 409 2770 889 
Q 3016 1369 3016 2328 
Q 3016 3291 2770 3770 
Q 2525 4250 2034 4250 
z
M 2034 4750 
Q 2819 4750 3233 4129 
Q 3647 3509 3647 2328 
Q 3647 1150 3233 529 
Q 2819 -91 2034 -91 
Q 1250 -91 836 529 
Q 422 1150 422 2328 
Q 422 3509 836 4129 
Q 1250 4750 2034 4750 
z
" transform="scale(0.015625)"/>
       </defs>
       <use xlink:href="#DejaVuSans-30"/>
      </g>
     </g>
    </g>
    <g id="xtick_2">
     <g id="line2d_2">
      <g>
       <use xlink:href="#m4ff2f54a1a" x="90.065455" y="307.584" style="stroke: #000000; stroke-width: 0.8"/>
      </g>
     </g>
     <g id="text_2">
      <!-- 1 -->
      <g transform="translate(86.884205 322.182437) scale(0.1 -0.1)">
       <defs>
        <path id="DejaVuSans-31" d="M 794 531 
L 1825 531 
L 1825 4091 
L 703 3866 
L 703 4441 
L 1819 4666 
L 2450 4666 
L 2450 531 
L 3481 531 
L 3481 0 
L 794 0 
L 794 531 
z
" transform="scale(0.015625)"/>
       </defs>
       <use xlink:href="#DejaVuSans-31"/>
      </g>
     </g>
    </g>
    <g id="xtick_3">
     <g id="line2d_3">
      <g>
       <use xlink:href="#m4ff2f54a1a" x="90.065455" y="307.584" style="stroke: #000000; stroke-width: 0.8"/>
      </g>
     </g>
     <g id="text_3">
      <!-- 1 -->
      <g transform="translate(86.884205 322.182437) scale(0.1 -0.1)">
       <use xlink:href="#DejaVuSans-31"/>
      </g>
     </g>
    </g>
    <g id="xtick_4">
     <g id="line2d_4">
      <g>
       <use xlink:href="#m4ff2f54a1a" x="122.530909" y="307.584" style="stroke: #000000; stroke-width: 0.8"/>
      </g>
     </g>
     <g id="text_4">
      <!-- 2 -->
      <g transform="translate(119.349659 322.182437) scale(0.1 -0.1)">
       <defs>
        <path id="DejaVuSans-32" d="M 1228 531 
L 3431 531 
L 3431 0 
L 469 0 
L 469 531 
Q 828 903 1448 1529 
Q 2069 2156 2228 2338 
Q 2531 2678 2651 2914 
Q 2772 3150 2772 3378 
Q 2772 3750 2511 3984 
Q 2250 4219 1831 4219 
Q 1534 4219 1204 4116 
Q 875 4013 500 3803 
L 500 4441 
Q 881 4594 1212 4672 
Q 1544 4750 1819 4750 
Q 2544 4750 2975 4387 
Q 3406 4025 3406 3419 
Q 3406 3131 3298 2873 
Q 3191 2616 2906 2266 
Q 2828 2175 2409 1742 
Q 1991 1309 1228 531 
z
" transform="scale(0.015625)"/>
       </defs>
       <use xlink:href="#DejaVuSans-32"/>
      </g>
     </g>
    </g>
    <g id="xtick_5">
     <g id="line2d_5">
      <g>
       <use xlink:href="#m4ff2f54a1a" x="154.996364" y="307.584" style="stroke: #000000; stroke-width: 0.8"/>
      </g>
     </g>
     <g id="text_5">
      <!-- 3 -->
      <g transform="translate(151.815114 322.182437) scale(0.1 -0.1)">
       <defs>
        <path id="DejaVuSans-33" d="M 2597 2516 
Q 3050 2419 3304 2112 
Q 3559 1806 3559 1356 
Q 3559 666 3084 287 
Q 2609 -91 1734 -91 
Q 1441 -91 1130 -33 
Q 819 25 488 141 
L 488 750 
Q 750 597 1062 519 
Q 1375 441 1716 441 
Q 2309 441 2620 675 
Q 2931 909 2931 1356 
Q 2931 1769 2642 2001 
Q 2353 2234 1838 2234 
L 1294 2234 
L 1294 2753 
L 1863 2753 
Q 2328 2753 2575 2939 
Q 2822 3125 2822 3475 
Q 2822 3834 2567 4026 
Q 2313 4219 1838 4219 
Q 1578 4219 1281 4162 
Q 984 4106 628 3988 
L 628 4550 
Q 988 4650 1302 4700 
Q 1616 4750 1894 4750 
Q 2613 4750 3031 4423 
Q 3450 4097 3450 3541 
Q 3450 3153 3228 2886 
Q 3006 2619 2597 2516 
z
" transform="scale(0.015625)"/>
       </defs>
       <use xlink:href="#DejaVuSans-33"/>
      </g>
     </g>
    </g>
    <g id="xtick_6">
     <g id="line2d_6">
      <g>
       <use xlink:href="#m4ff2f54a1a" x="187.461818" y="307.584" style="stroke: #000000; stroke-width: 0.8"/>
      </g>
     </g>
     <g id="text_6">
      <!-- 4 -->
      <g transform="translate(184.280568 322.182437) scale(0.1 -0.1)">
       <defs>
        <path id="DejaVuSans-34" d="M 2419 4116 
L 825 1625 
L 2419 1625 
L 2419 4116 
z
M 2253 4666 
L 3047 4666 
L 3047 1625 
L 3713 1625 
L 3713 1100 
L 3047 1100 
L 3047 0 
L 2419 0 
L 2419 1100 
L 313 1100 
L 313 1709 
L 2253 4666 
z
" transform="scale(0.015625)"/>
       </defs>
       <use xlink:href="#DejaVuSans-34"/>
      </g>
     </g>
    </g>
    <g id="xtick_7">
     <g id="line2d_7">
      <g>
       <use xlink:href="#m4ff2f54a1a" x="219.927273" y="307.584" style="stroke: #000000; stroke-width: 0.8"/>
      </g>
     </g>
     <g id="text_7">
      <!-- 5 -->
      <g transform="translate(216.746023 322.182437) scale(0.1 -0.1)">
       <defs>
        <path id="DejaVuSans-35" d="M 691 4666 
L 3169 4666 
L 3169 4134 
L 1269 4134 
L 1269 2991 
Q 1406 3038 1543 3061 
Q 1681 3084 1819 3084 
Q 2600 3084 3056 2656 
Q 3513 2228 3513 1497 
Q 3513 744 3044 326 
Q 2575 -91 1722 -91 
Q 1428 -91 1123 -41 
Q 819 9 494 109 
L 494 744 
Q 775 591 1075 516 
Q 1375 441 1709 441 
Q 2250 441 2565 725 
Q 2881 1009 2881 1497 
Q 2881 1984 2565 2268 
Q 2250 2553 1709 2553 
Q 1456 2553 1204 2497 
Q 953 2441 691 2322 
L 691 4666 
z
" transform="scale(0.015625)"/>
       </defs>
       <use xlink:href="#DejaVuSans-35"/>
      </g>
     </g>
    </g>
   </g>
   <g id="matplotlib.axis_2">
    <g id="ytick_1">
     <g id="line2d_8">
      <defs>
       <path id="m0136822689" d="M 0 0 
L -3.5 0 
" style="stroke: #000000; stroke-width: 0.8"/>
      </defs>
      <g>
       <use xlink:href="#m0136822689" x="57.6" y="307.584" style="stroke: #000000; stroke-width: 0.8"/>
      </g>
     </g>
     <g id="text_8">
      <!-- 0.0 -->
      <g transform="translate(34.696875 311.383219) scale(0.1 -0.1)">
       <defs>
        <path id="DejaVuSans-2e" d="M 684 794 
L 1344 794 
L 1344 0 
L 684 0 
L 684 794 
z
" transform="scale(0.015625)"/>
       </defs>
       <use xlink:href="#DejaVuSans-30"/>
       <use xlink:href="#DejaVuSans-2e" x="63.623047"/>
       <use xlink:href="#DejaVuSans-30" x="95.410156"/>
      </g>
     </g>
    </g>
    <g id="ytick_2">
     <g id="line2d_9">
      <g>
       <use xlink:href="#m0136822689" x="57.6" y="261.236389" style="stroke: #000000; stroke-width: 0.8"/>
      </g>
     </g>
     <g id="text_9">
      <!-- 0.5 -->
      <g transform="translate(34.696875 265.035607) scale(0.1 -0.1)">
       <use xlink:href="#DejaVuSans-30"/>
       <use xlink:href="#DejaVuSans-2e" x="63.623047"/>
       <use xlink:href="#DejaVuSans-35" x="95.410156"/>
      </g>
     </g>
    </g>
    <g id="ytick_3">
     <g id="line2d_10">
      <g>
       <use xlink:href="#m0136822689" x="57.6" y="214.888777" style="stroke: #000000; stroke-width: 0.8"/>
      </g>
     </g>
     <g id="text_10">
      <!-- 1.0 -->
      <g transform="translate(34.696875 218.687996) scale(0.1 -0.1)">
       <use xlink:href="#DejaVuSans-31"/>
       <use xlink:href="#DejaVuSans-2e" x="63.623047"/>
       <use xlink:href="#DejaVuSans-30" x="95.410156"/>
      </g>
     </g>
    </g>
    <g id="ytick_4">
     <g id="line2d_11">
      <g>
       <use xlink:href="#m0136822689" x="57.6" y="168.541166" style="stroke: #000000; stroke-width: 0.8"/>
      </g>
     </g>
     <g id="text_11">
      <!-- 1.5 -->
      <g transform="translate(34.696875 172.340385) scale(0.1 -0.1)">
       <use xlink:href="#DejaVuSans-31"/>
       <use xlink:href="#DejaVuSans-2e" x="63.623047"/>
       <use xlink:href="#DejaVuSans-35" x="95.410156"/>
      </g>
     </g>
    </g>
    <g id="ytick_5">
     <g id="line2d_12">
      <g>
       <use xlink:href="#m0136822689" x="57.6" y="122.193555" style="stroke: #000000; stroke-width: 0.8"/>
      </g>
     </g>
     <g id="text_12">
      <!-- 2.0 -->
      <g transform="translate(34.696875 125.992773) scale(0.1 -0.1)">
       <use xlink:href="#DejaVuSans-32"/>
       <use xlink:href="#DejaVuSans-2e" x="63.623047"/>
       <use xlink:href="#DejaVuSans-30" x="95.410156"/>
      </g>
     </g>
    </g>
    <g id="ytick_6">
     <g id="line2d_13">
      <g>
       <use xlink:href="#m0136822689" x="57.6" y="75.845943" style="stroke: #000000; stroke-width: 0.8"/>
      </g>
     </g>
     <g id="text_13">
      <!-- 2.5 -->
      <g transform="translate(34.696875 79.645162) scale(0.1 -0.1)">
       <use xlink:href="#DejaVuSans-32"/>
       <use xlink:href="#DejaVuSans-2e" x="63.623047"/>
       <use xlink:href="#DejaVuSans-35" x="95.410156"/>
      </g>
     </g>
    </g>
    <g id="text_14">
     <!-- Occurance -->
     <g transform="translate(22.617187 201.245187) rotate(-90) scale(0.1 -0.1)">
      <defs>
       <path id="DejaVuSans-4f" d="M 2522 4238 
Q 1834 4238 1429 3725 
Q 1025 3213 1025 2328 
Q 1025 1447 1429 934 
Q 1834 422 2522 422 
Q 3209 422 3611 934 
Q 4013 1447 4013 2328 
Q 4013 3213 3611 3725 
Q 3209 4238 2522 4238 
z
M 2522 4750 
Q 3503 4750 4090 4092 
Q 4678 3434 4678 2328 
Q 4678 1225 4090 567 
Q 3503 -91 2522 -91 
Q 1538 -91 948 565 
Q 359 1222 359 2328 
Q 359 3434 948 4092 
Q 1538 4750 2522 4750 
z
" transform="scale(0.015625)"/>
       <path id="DejaVuSans-63" d="M 3122 3366 
L 3122 2828 
Q 2878 2963 2633 3030 
Q 2388 3097 2138 3097 
Q 1578 3097 1268 2742 
Q 959 2388 959 1747 
Q 959 1106 1268 751 
Q 1578 397 2138 397 
Q 2388 397 2633 464 
Q 2878 531 3122 666 
L 3122 134 
Q 2881 22 2623 -34 
Q 2366 -91 2075 -91 
Q 1284 -91 818 406 
Q 353 903 353 1747 
Q 353 2603 823 3093 
Q 1294 3584 2113 3584 
Q 2378 3584 2631 3529 
Q 2884 3475 3122 3366 
z
" transform="scale(0.015625)"/>
       <path id="DejaVuSans-75" d="M 544 1381 
L 544 3500 
L 1119 3500 
L 1119 1403 
Q 1119 906 1312 657 
Q 1506 409 1894 409 
Q 2359 409 2629 706 
Q 2900 1003 2900 1516 
L 2900 3500 
L 3475 3500 
L 3475 0 
L 2900 0 
L 2900 538 
Q 2691 219 2414 64 
Q 2138 -91 1772 -91 
Q 1169 -91 856 284 
Q 544 659 544 1381 
z
M 1991 3584 
L 1991 3584 
z
" transform="scale(0.015625)"/>
       <path id="DejaVuSans-72" d="M 2631 2963 
Q 2534 3019 2420 3045 
Q 2306 3072 2169 3072 
Q 1681 3072 1420 2755 
Q 1159 2438 1159 1844 
L 1159 0 
L 581 0 
L 581 3500 
L 1159 3500 
L 1159 2956 
Q 1341 3275 1631 3429 
Q 1922 3584 2338 3584 
Q 2397 3584 2469 3576 
Q 2541 3569 2628 3553 
L 2631 2963 
z
" transform="scale(0.015625)"/>
       <path id="DejaVuSans-61" d="M 2194 1759 
Q 1497 1759 1228 1600 
Q 959 1441 959 1056 
Q 959 750 1161 570 
Q 1363 391 1709 391 
Q 2188 391 2477 730 
Q 2766 1069 2766 1631 
L 2766 1759 
L 2194 1759 
z
M 3341 1997 
L 3341 0 
L 2766 0 
L 2766 531 
Q 2569 213 2275 61 
Q 1981 -91 1556 -91 
Q 1019 -91 701 211 
Q 384 513 384 1019 
Q 384 1609 779 1909 
Q 1175 2209 1959 2209 
L 2766 2209 
L 2766 2266 
Q 2766 2663 2505 2880 
Q 2244 3097 1772 3097 
Q 1472 3097 1187 3025 
Q 903 2953 641 2809 
L 641 3341 
Q 956 3463 1253 3523 
Q 1550 3584 1831 3584 
Q 2591 3584 2966 3190 
Q 3341 2797 3341 1997 
z
" transform="scale(0.015625)"/>
       <path id="DejaVuSans-6e" d="M 3513 2113 
L 3513 0 
L 2938 0 
L 2938 2094 
Q 2938 2591 2744 2837 
Q 2550 3084 2163 3084 
Q 1697 3084 1428 2787 
Q 1159 2491 1159 1978 
L 1159 0 
L 581 0 
L 581 3500 
L 1159 3500 
L 1159 2956 
Q 1366 3272 1645 3428 
Q 1925 3584 2291 3584 
Q 2894 3584 3203 3211 
Q 3513 2838 3513 2113 
z
" transform="scale(0.015625)"/>
       <path id="DejaVuSans-65" d="M 3597 1894 
L 3597 1613 
L 953 1613 
Q 991 1019 1311 708 
Q 1631 397 2203 397 
Q 2534 397 2845 478 
Q 3156 559 3463 722 
L 3463 178 
Q 3153 47 2828 -22 
Q 2503 -91 2169 -91 
Q 1331 -91 842 396 
Q 353 884 353 1716 
Q 353 2575 817 3079 
Q 1281 3584 2069 3584 
Q 2775 3584 3186 3129 
Q 3597 2675 3597 1894 
z
M 3022 2063 
Q 3016 2534 2758 2815 
Q 2500 3097 2075 3097 
Q 1594 3097 1305 2825 
Q 1016 2553 972 2059 
L 3022 2063 
z
" transform="scale(0.015625)"/>
      </defs>
      <use xlink:href="#DejaVuSans-4f"/>
      <use xlink:href="#DejaVuSans-63" x="78.710938"/>
      <use xlink:href="#DejaVuSans-63" x="133.691406"/>
      <use xlink:href="#DejaVuSans-75" x="188.671875"/>
      <use xlink:href="#DejaVuSans-72" x="252.050781"/>
      <use xlink:href="#DejaVuSans-61" x="293.164062"/>
      <use xlink:href="#DejaVuSans-6e" x="354.443359"/>
      <use xlink:href="#DejaVuSans-63" x="417.822266"/>
      <use xlink:href="#DejaVuSans-65" x="472.802734"/>
     </g>
    </g>
   </g>
   <g id="line2d_14">
    <path d="M 69.719093 307.584 
L 69.719093 41.472 
" clip-path="url(#pd5c059b35a)" style="fill: none; stroke: #ff0000; stroke-linecap: square"/>
   </g>
   <g id="line2d_15">
    <path d="M 57.6 298.314478 
L 219.927273 298.314478 
" clip-path="url(#pd5c059b35a)" style="fill: none; stroke-dasharray: 3.7,1.6; stroke-dashoffset: 0; stroke: #000000"/>
   </g>
   <g id="line2d_16">
    <path d="M 57.6 289.044955 
L 219.927273 289.044955 
" clip-path="url(#pd5c059b35a)" style="fill: none; stroke-dasharray: 3.7,1.6; stroke-dashoffset: 0; stroke: #000000"/>
   </g>
   <g id="line2d_17">
    <path d="M 57.6 279.775433 
L 219.927273 279.775433 
" clip-path="url(#pd5c059b35a)" style="fill: none; stroke-dasharray: 3.7,1.6; stroke-dashoffset: 0; stroke: #000000"/>
   </g>
   <g id="line2d_18">
    <path d="M 57.6 270.505911 
L 219.927273 270.505911 
" clip-path="url(#pd5c059b35a)" style="fill: none; stroke-dasharray: 3.7,1.6; stroke-dashoffset: 0; stroke: #000000"/>
   </g>
   <g id="line2d_19">
    <path d="M 57.6 261.236389 
L 219.927273 261.236389 
" clip-path="url(#pd5c059b35a)" style="fill: none; stroke-dasharray: 3.7,1.6; stroke-dashoffset: 0; stroke: #000000"/>
   </g>
   <g id="line2d_20">
    <path d="M 57.6 251.966866 
L 219.927273 251.966866 
" clip-path="url(#pd5c059b35a)" style="fill: none; stroke-dasharray: 3.7,1.6; stroke-dashoffset: 0; stroke: #000000"/>
   </g>
   <g id="line2d_21">
    <path d="M 57.6 242.697344 
L 219.927273 242.697344 
" clip-path="url(#pd5c059b35a)" style="fill: none; stroke-dasharray: 3.7,1.6; stroke-dashoffset: 0; stroke: #000000"/>
   </g>
   <g id="line2d_22">
    <path d="M 57.6 233.427822 
L 219.927273 233.427822 
" clip-path="url(#pd5c059b35a)" style="fill: none; stroke-dasharray: 3.7,1.6; stroke-dashoffset: 0; stroke: #000000"/>
   </g>
   <g id="line2d_23">
    <path d="M 57.6 224.1583 
L 219.927273 224.1583 
" clip-path="url(#pd5c059b35a)" style="fill: none; stroke-dasharray: 3.7,1.6; stroke-dashoffset: 0; stroke: #000000"/>
   </g>
   <g id="line2d_24">
    <path d="M 57.6 214.888777 
L 219.927273 214.888777 
" clip-path="url(#pd5c059b35a)" style="fill: none; stroke-dasharray: 3.7,1.6; stroke-dashoffset: 0; stroke: #000000"/>
   </g>
   <g id="line2d_25">
    <path d="M 57.6 205.619255 
L 219.927273 205.619255 
" clip-path="url(#pd5c059b35a)" style="fill: none; stroke-dasharray: 3.7,1.6; stroke-dashoffset: 0; stroke: #000000"/>
   </g>
   <g id="line2d_26">
    <path d="M 57.6 196.349733 
L 219.927273 196.349733 
" clip-path="url(#pd5c059b35a)" style="fill: none; stroke-dasharray: 3.7,1.6; stroke-dashoffset: 0; stroke: #000000"/>
   </g>
   <g id="line2d_27">
    <path d="M 57.6 187.08021 
L 219.927273 187.08021 
" clip-path="url(#pd5c059b35a)" style="fill: none; stroke-dasharray: 3.7,1.6; stroke-dashoffset: 0; stroke: #000000"/>
   </g>
   <g id="line2d_28">
    <path d="M 57.6 177.810688 
L 219.927273 177.810688 
" clip-path="url(#pd5c059b35a)" style="fill: none; stroke-dasharray: 3.7,1.6; stroke-dashoffset: 0; stroke: #000000"/>
   </g>
   <g id="line2d_29">
    <path d="M 57.6 168.541166 
L 219.927273 168.541166 
" clip-path="url(#pd5c059b35a)" style="fill: none; stroke-dasharray: 3.7,1.6; stroke-dashoffset: 0; stroke: #000000"/>
   </g>
   <g id="line2d_30">
    <path d="M 57.6 159.271644 
L 219.927273 159.271644 
" clip-path="url(#pd5c059b35a)" style="fill: none; stroke-dasharray: 3.7,1.6; stroke-dashoffset: 0; stroke: #000000"/>
   </g>
   <g id="line2d_31">
    <path d="M 57.6 150.002121 
L 219.927273 150.002121 
" clip-path="url(#pd5c059b35a)" style="fill: none; stroke-dasharray: 3.7,1.6; stroke-dashoffset: 0; stroke: #000000"/>
   </g>
   <g id="line2d_32">
    <path d="M 57.6 140.732599 
L 219.927273 140.732599 
" clip-path="url(#pd5c059b35a)" style="fill: none; stroke-dasharray: 3.7,1.6; stroke-dashoffset: 0; stroke: #000000"/>
   </g>
   <g id="line2d_33">
    <path d="M 57.6 131.463077 
L 219.927273 131.463077 
" clip-path="url(#pd5c059b35a)" style="fill: none; stroke-dasharray: 3.7,1.6; stroke-dashoffset: 0; stroke: #000000"/>
   </g>
   <g id="line2d_34">
    <path d="M 57.6 122.193555 
L 219.927273 122.193555 
" clip-path="url(#pd5c059b35a)" style="fill: none; stroke-dasharray: 3.7,1.6; stroke-dashoffset: 0; stroke: #000000"/>
   </g>
   <g id="line2d_35">
    <path d="M 57.6 112.924032 
L 219.927273 112.924032 
" clip-path="url(#pd5c059b35a)" style="fill: none; stroke-dasharray: 3.7,1.6; stroke-dashoffset: 0; stroke: #000000"/>
   </g>
   <g id="line2d_36">
    <path d="M 57.6 103.65451 
L 219.927273 103.65451 
" clip-path="url(#pd5c059b35a)" style="fill: none; stroke-dasharray: 3.7,1.6; stroke-dashoffset: 0; stroke: #000000"/>
   </g>
   <g id="line2d_37">
    <path d="M 57.6 94.384988 
L 219.927273 94.384988 
" clip-path="url(#pd5c059b35a)" style="fill: none; stroke-dasharray: 3.7,1.6; stroke-dashoffset: 0; stroke: #000000"/>
   </g>
   <g id="line2d_38">
    <path d="M 57.6 85.115466 
L 219.927273 85.115466 
" clip-path="url(#pd5c059b35a)" style="fill: none; stroke-dasharray: 3.7,1.6; stroke-dashoffset: 0; stroke: #000000"/>
   </g>
   <g id="line2d_39">
    <path d="M 57.6 75.845943 
L 219.927273 75.845943 
" clip-path="url(#pd5c059b35a)" style="fill: none; stroke-dasharray: 3.7,1.6; stroke-dashoffset: 0; stroke: #000000"/>
   </g>
   <g id="line2d_40">
    <path d="M 57.6 66.576421 
L 219.927273 66.576421 
" clip-path="url(#pd5c059b35a)" style="fill: none; stroke-dasharray: 3.7,1.6; stroke-dashoffset: 0; stroke: #000000"/>
   </g>
   <g id="line2d_41">
    <path d="M 57.6 57.306899 
L 219.927273 57.306899 
" clip-path="url(#pd5c059b35a)" style="fill: none; stroke-dasharray: 3.7,1.6; stroke-dashoffset: 0; stroke: #000000"/>
   </g>
   <g id="line2d_42">
    <path d="M 57.6 48.037376 
L 219.927273 48.037376 
" clip-path="url(#pd5c059b35a)" style="fill: none; stroke-dasharray: 3.7,1.6; stroke-dashoffset: 0; stroke: #000000"/>
   </g>
   <g id="patch_28">
    <path d="M 57.6 307.584 
L 57.6 41.472 
" style="fill: none; stroke: #000000; stroke-width: 0.8; stroke-linejoin: miter; stroke-linecap: square"/>
   </g>
   <g id="patch_29">
    <path d="M 219.927273 307.584 
L 219.927273 41.472 
" style="fill: none; stroke: #000000; stroke-width: 0.8; stroke-linejoin: miter; stroke-linecap: square"/>
   </g>
   <g id="patch_30">
    <path d="M 57.6 307.584 
L 219.927273 307.584 
" style="fill: none; stroke: #000000; stroke-width: 0.8; stroke-linejoin: miter; stroke-linecap: square"/>
   </g>
   <g id="patch_31">
    <path d="M 57.6 41.472 
L 219.927273 41.472 
" style="fill: none; stroke: #000000; stroke-width: 0.8; stroke-linejoin: miter; stroke-linecap: square"/>
   </g>
   <g id="text_15">
    <g id="patch_32">
     <path d="M 99.52892 74.455725 
L 213.694545 74.455725 
L 213.694545 44.7776 
L 99.52892 44.7776 
z
" style="fill: #1f77b4; opacity: 0.5; stroke: #000000; stroke-linejoin: miter"/>
    </g>
    <!-- #Detections: 2505 -->
    <g transform="translate(109.52892 62.376037) scale(0.1 -0.1)">
     <defs>
      <path id="DejaVuSans-23" d="M 3272 2816 
L 2363 2816 
L 2100 1772 
L 3016 1772 
L 3272 2816 
z
M 2803 4594 
L 2478 3297 
L 3391 3297 
L 3719 4594 
L 4219 4594 
L 3897 3297 
L 4872 3297 
L 4872 2816 
L 3775 2816 
L 3519 1772 
L 4513 1772 
L 4513 1294 
L 3397 1294 
L 3072 0 
L 2572 0 
L 2894 1294 
L 1978 1294 
L 1656 0 
L 1153 0 
L 1478 1294 
L 494 1294 
L 494 1772 
L 1594 1772 
L 1856 2816 
L 850 2816 
L 850 3297 
L 1978 3297 
L 2297 4594 
L 2803 4594 
z
" transform="scale(0.015625)"/>
      <path id="DejaVuSans-44" d="M 1259 4147 
L 1259 519 
L 2022 519 
Q 2988 519 3436 956 
Q 3884 1394 3884 2338 
Q 3884 3275 3436 3711 
Q 2988 4147 2022 4147 
L 1259 4147 
z
M 628 4666 
L 1925 4666 
Q 3281 4666 3915 4102 
Q 4550 3538 4550 2338 
Q 4550 1131 3912 565 
Q 3275 0 1925 0 
L 628 0 
L 628 4666 
z
" transform="scale(0.015625)"/>
      <path id="DejaVuSans-74" d="M 1172 4494 
L 1172 3500 
L 2356 3500 
L 2356 3053 
L 1172 3053 
L 1172 1153 
Q 1172 725 1289 603 
Q 1406 481 1766 481 
L 2356 481 
L 2356 0 
L 1766 0 
Q 1100 0 847 248 
Q 594 497 594 1153 
L 594 3053 
L 172 3053 
L 172 3500 
L 594 3500 
L 594 4494 
L 1172 4494 
z
" transform="scale(0.015625)"/>
      <path id="DejaVuSans-69" d="M 603 3500 
L 1178 3500 
L 1178 0 
L 603 0 
L 603 3500 
z
M 603 4863 
L 1178 4863 
L 1178 4134 
L 603 4134 
L 603 4863 
z
" transform="scale(0.015625)"/>
      <path id="DejaVuSans-6f" d="M 1959 3097 
Q 1497 3097 1228 2736 
Q 959 2375 959 1747 
Q 959 1119 1226 758 
Q 1494 397 1959 397 
Q 2419 397 2687 759 
Q 2956 1122 2956 1747 
Q 2956 2369 2687 2733 
Q 2419 3097 1959 3097 
z
M 1959 3584 
Q 2709 3584 3137 3096 
Q 3566 2609 3566 1747 
Q 3566 888 3137 398 
Q 2709 -91 1959 -91 
Q 1206 -91 779 398 
Q 353 888 353 1747 
Q 353 2609 779 3096 
Q 1206 3584 1959 3584 
z
" transform="scale(0.015625)"/>
      <path id="DejaVuSans-73" d="M 2834 3397 
L 2834 2853 
Q 2591 2978 2328 3040 
Q 2066 3103 1784 3103 
Q 1356 3103 1142 2972 
Q 928 2841 928 2578 
Q 928 2378 1081 2264 
Q 1234 2150 1697 2047 
L 1894 2003 
Q 2506 1872 2764 1633 
Q 3022 1394 3022 966 
Q 3022 478 2636 193 
Q 2250 -91 1575 -91 
Q 1294 -91 989 -36 
Q 684 19 347 128 
L 347 722 
Q 666 556 975 473 
Q 1284 391 1588 391 
Q 1994 391 2212 530 
Q 2431 669 2431 922 
Q 2431 1156 2273 1281 
Q 2116 1406 1581 1522 
L 1381 1569 
Q 847 1681 609 1914 
Q 372 2147 372 2553 
Q 372 3047 722 3315 
Q 1072 3584 1716 3584 
Q 2034 3584 2315 3537 
Q 2597 3491 2834 3397 
z
" transform="scale(0.015625)"/>
      <path id="DejaVuSans-3a" d="M 750 794 
L 1409 794 
L 1409 0 
L 750 0 
L 750 794 
z
M 750 3309 
L 1409 3309 
L 1409 2516 
L 750 2516 
L 750 3309 
z
" transform="scale(0.015625)"/>
      <path id="DejaVuSans-20" transform="scale(0.015625)"/>
     </defs>
     <use xlink:href="#DejaVuSans-23"/>
     <use xlink:href="#DejaVuSans-44" x="83.789062"/>
     <use xlink:href="#DejaVuSans-65" x="160.791016"/>
     <use xlink:href="#DejaVuSans-74" x="222.314453"/>
     <use xlink:href="#DejaVuSans-65" x="261.523438"/>
     <use xlink:href="#DejaVuSans-63" x="323.046875"/>
     <use xlink:href="#DejaVuSans-74" x="378.027344"/>
     <use xlink:href="#DejaVuSans-69" x="417.236328"/>
     <use xlink:href="#DejaVuSans-6f" x="445.019531"/>
     <use xlink:href="#DejaVuSans-6e" x="506.201172"/>
     <use xlink:href="#DejaVuSans-73" x="569.580078"/>
     <use xlink:href="#DejaVuSans-3a" x="621.679688"/>
     <use xlink:href="#DejaVuSans-20" x="655.371094"/>
     <use xlink:href="#DejaVuSans-32" x="687.158203"/>
     <use xlink:href="#DejaVuSans-35" x="750.78125"/>
     <use xlink:href="#DejaVuSans-30" x="814.404297"/>
     <use xlink:href="#DejaVuSans-35" x="878.027344"/>
    </g>
   </g>
   <g id="text_16">
    <!-- LIFEsim -->
    <g transform="translate(115.771449 35.472) scale(0.12 -0.12)">
     <defs>
      <path id="DejaVuSans-4c" d="M 628 4666 
L 1259 4666 
L 1259 531 
L 3531 531 
L 3531 0 
L 628 0 
L 628 4666 
z
" transform="scale(0.015625)"/>
      <path id="DejaVuSans-49" d="M 628 4666 
L 1259 4666 
L 1259 0 
L 628 0 
L 628 4666 
z
" transform="scale(0.015625)"/>
      <path id="DejaVuSans-46" d="M 628 4666 
L 3309 4666 
L 3309 4134 
L 1259 4134 
L 1259 2759 
L 3109 2759 
L 3109 2228 
L 1259 2228 
L 1259 0 
L 628 0 
L 628 4666 
z
" transform="scale(0.015625)"/>
      <path id="DejaVuSans-45" d="M 628 4666 
L 3578 4666 
L 3578 4134 
L 1259 4134 
L 1259 2753 
L 3481 2753 
L 3481 2222 
L 1259 2222 
L 1259 531 
L 3634 531 
L 3634 0 
L 628 0 
L 628 4666 
z
" transform="scale(0.015625)"/>
      <path id="DejaVuSans-6d" d="M 3328 2828 
Q 3544 3216 3844 3400 
Q 4144 3584 4550 3584 
Q 5097 3584 5394 3201 
Q 5691 2819 5691 2113 
L 5691 0 
L 5113 0 
L 5113 2094 
Q 5113 2597 4934 2840 
Q 4756 3084 4391 3084 
Q 3944 3084 3684 2787 
Q 3425 2491 3425 1978 
L 3425 0 
L 2847 0 
L 2847 2094 
Q 2847 2600 2669 2842 
Q 2491 3084 2119 3084 
Q 1678 3084 1418 2786 
Q 1159 2488 1159 1978 
L 1159 0 
L 581 0 
L 581 3500 
L 1159 3500 
L 1159 2956 
Q 1356 3278 1631 3431 
Q 1906 3584 2284 3584 
Q 2666 3584 2933 3390 
Q 3200 3197 3328 2828 
z
" transform="scale(0.015625)"/>
     </defs>
     <use xlink:href="#DejaVuSans-4c"/>
     <use xlink:href="#DejaVuSans-49" x="55.712891"/>
     <use xlink:href="#DejaVuSans-46" x="85.205078"/>
     <use xlink:href="#DejaVuSans-45" x="142.724609"/>
     <use xlink:href="#DejaVuSans-73" x="205.908203"/>
     <use xlink:href="#DejaVuSans-69" x="258.007812"/>
     <use xlink:href="#DejaVuSans-6d" x="285.791016"/>
    </g>
   </g>
  </g>
  <g id="axes_2">
   <g id="patch_33">
    <path d="M 252.392727 307.584 
L 414.72 307.584 
L 414.72 41.472 
L 252.392727 41.472 
z
" style="fill: #ffffff"/>
   </g>
   <g id="patch_34">
    <path d="M 255.819496 307.584 
L 262.077662 307.584 
L 262.077662 296.976473 
L 255.819496 296.976473 
z
" clip-path="url(#p0473788cc7)" style="fill: #0000ff; opacity: 0.9"/>
   </g>
   <g id="patch_35">
    <path d="M 262.077662 307.584 
L 268.335827 307.584 
L 268.335827 283.540272 
L 262.077662 283.540272 
z
" clip-path="url(#p0473788cc7)" style="fill: #0000ff; opacity: 0.9"/>
   </g>
   <g id="patch_36">
    <path d="M 268.335827 307.584 
L 274.593993 307.584 
L 274.593993 283.540272 
L 268.335827 283.540272 
z
" clip-path="url(#p0473788cc7)" style="fill: #0000ff; opacity: 0.9"/>
   </g>
   <g id="patch_37">
    <path d="M 274.593993 307.584 
L 280.852158 307.584 
L 280.852158 266.56823 
L 274.593993 266.56823 
z
" clip-path="url(#p0473788cc7)" style="fill: #0000ff; opacity: 0.9"/>
   </g>
   <g id="patch_38">
    <path d="M 280.852158 307.584 
L 287.110324 307.584 
L 287.110324 255.253534 
L 280.852158 255.253534 
z
" clip-path="url(#p0473788cc7)" style="fill: #0000ff; opacity: 0.9"/>
   </g>
   <g id="patch_39">
    <path d="M 287.110324 307.584 
L 293.368489 307.584 
L 293.368489 263.032387 
L 287.110324 263.032387 
z
" clip-path="url(#p0473788cc7)" style="fill: #0000ff; opacity: 0.9"/>
   </g>
   <g id="patch_40">
    <path d="M 293.368489 307.584 
L 299.626655 307.584 
L 299.626655 272.932746 
L 293.368489 272.932746 
z
" clip-path="url(#p0473788cc7)" style="fill: #0000ff; opacity: 0.9"/>
   </g>
   <g id="patch_41">
    <path d="M 299.626655 307.584 
L 305.88482 307.584 
L 305.88482 272.932746 
L 299.626655 272.932746 
z
" clip-path="url(#p0473788cc7)" style="fill: #0000ff; opacity: 0.9"/>
   </g>
   <g id="patch_42">
    <path d="M 305.88482 307.584 
L 312.142986 307.584 
L 312.142986 275.761419 
L 305.88482 275.761419 
z
" clip-path="url(#p0473788cc7)" style="fill: #0000ff; opacity: 0.9"/>
   </g>
   <g id="patch_43">
    <path d="M 312.142986 307.584 
L 318.401151 307.584 
L 318.401151 288.490452 
L 312.142986 288.490452 
z
" clip-path="url(#p0473788cc7)" style="fill: #0000ff; opacity: 0.9"/>
   </g>
   <g id="patch_44">
    <path d="M 318.401151 307.584 
L 324.659317 307.584 
L 324.659317 287.783283 
L 318.401151 287.783283 
z
" clip-path="url(#p0473788cc7)" style="fill: #0000ff; opacity: 0.9"/>
   </g>
   <g id="patch_45">
    <path d="M 324.659317 307.584 
L 330.917482 307.584 
L 330.917482 284.954609 
L 324.659317 284.954609 
z
" clip-path="url(#p0473788cc7)" style="fill: #0000ff; opacity: 0.9"/>
   </g>
   <g id="patch_46">
    <path d="M 330.917482 307.584 
L 337.175648 307.584 
L 337.175648 287.076115 
L 330.917482 287.076115 
z
" clip-path="url(#p0473788cc7)" style="fill: #0000ff; opacity: 0.9"/>
   </g>
   <g id="patch_47">
    <path d="M 337.175648 307.584 
L 343.433814 307.584 
L 343.433814 292.733462 
L 337.175648 292.733462 
z
" clip-path="url(#p0473788cc7)" style="fill: #0000ff; opacity: 0.9"/>
   </g>
   <g id="patch_48">
    <path d="M 343.433814 307.584 
L 349.691979 307.584 
L 349.691979 296.976473 
L 343.433814 296.976473 
z
" clip-path="url(#p0473788cc7)" style="fill: #0000ff; opacity: 0.9"/>
   </g>
   <g id="patch_49">
    <path d="M 349.691979 307.584 
L 355.950145 307.584 
L 355.950145 293.440631 
L 349.691979 293.440631 
z
" clip-path="url(#p0473788cc7)" style="fill: #0000ff; opacity: 0.9"/>
   </g>
   <g id="patch_50">
    <path d="M 355.950145 307.584 
L 362.20831 307.584 
L 362.20831 297.683642 
L 355.950145 297.683642 
z
" clip-path="url(#p0473788cc7)" style="fill: #0000ff; opacity: 0.9"/>
   </g>
   <g id="patch_51">
    <path d="M 362.20831 307.584 
L 368.466476 307.584 
L 368.466476 298.39081 
L 362.20831 298.39081 
z
" clip-path="url(#p0473788cc7)" style="fill: #0000ff; opacity: 0.9"/>
   </g>
   <g id="patch_52">
    <path d="M 368.466476 307.584 
L 374.724641 307.584 
L 374.724641 297.683642 
L 368.466476 297.683642 
z
" clip-path="url(#p0473788cc7)" style="fill: #0000ff; opacity: 0.9"/>
   </g>
   <g id="patch_53">
    <path d="M 374.724641 307.584 
L 380.982807 307.584 
L 380.982807 299.805147 
L 374.724641 299.805147 
z
" clip-path="url(#p0473788cc7)" style="fill: #0000ff; opacity: 0.9"/>
   </g>
   <g id="patch_54">
    <path d="M 380.982807 307.584 
L 387.240972 307.584 
L 387.240972 301.219484 
L 380.982807 301.219484 
z
" clip-path="url(#p0473788cc7)" style="fill: #0000ff; opacity: 0.9"/>
   </g>
   <g id="patch_55">
    <path d="M 387.240972 307.584 
L 393.499138 307.584 
L 393.499138 304.048158 
L 387.240972 304.048158 
z
" clip-path="url(#p0473788cc7)" style="fill: #0000ff; opacity: 0.9"/>
   </g>
   <g id="patch_56">
    <path d="M 393.499138 307.584 
L 399.757303 307.584 
L 399.757303 301.926652 
L 393.499138 301.926652 
z
" clip-path="url(#p0473788cc7)" style="fill: #0000ff; opacity: 0.9"/>
   </g>
   <g id="patch_57">
    <path d="M 399.757303 307.584 
L 406.015469 307.584 
L 406.015469 300.512315 
L 399.757303 300.512315 
z
" clip-path="url(#p0473788cc7)" style="fill: #0000ff; opacity: 0.9"/>
   </g>
   <g id="patch_58">
    <path d="M 406.015469 307.584 
L 412.273635 307.584 
L 412.273635 305.462495 
L 406.015469 305.462495 
z
" clip-path="url(#p0473788cc7)" style="fill: #0000ff; opacity: 0.9"/>
   </g>
   <g id="matplotlib.axis_3">
    <g id="xtick_8">
     <g id="line2d_43">
      <g>
       <use xlink:href="#m4ff2f54a1a" x="252.392727" y="307.584" style="stroke: #000000; stroke-width: 0.8"/>
      </g>
     </g>
     <g id="text_17">
      <!-- 0 -->
      <g transform="translate(249.211477 322.182437) scale(0.1 -0.1)">
       <use xlink:href="#DejaVuSans-30"/>
      </g>
     </g>
    </g>
    <g id="xtick_9">
     <g id="line2d_44">
      <g>
       <use xlink:href="#m4ff2f54a1a" x="284.858182" y="307.584" style="stroke: #000000; stroke-width: 0.8"/>
      </g>
     </g>
     <g id="text_18">
      <!-- 1 -->
      <g transform="translate(281.676932 322.182437) scale(0.1 -0.1)">
       <use xlink:href="#DejaVuSans-31"/>
      </g>
     </g>
    </g>
    <g id="xtick_10">
     <g id="line2d_45">
      <g>
       <use xlink:href="#m4ff2f54a1a" x="284.858182" y="307.584" style="stroke: #000000; stroke-width: 0.8"/>
      </g>
     </g>
     <g id="text_19">
      <!-- 1 -->
      <g transform="translate(281.676932 322.182437) scale(0.1 -0.1)">
       <use xlink:href="#DejaVuSans-31"/>
      </g>
     </g>
    </g>
    <g id="xtick_11">
     <g id="line2d_46">
      <g>
       <use xlink:href="#m4ff2f54a1a" x="317.323636" y="307.584" style="stroke: #000000; stroke-width: 0.8"/>
      </g>
     </g>
     <g id="text_20">
      <!-- 2 -->
      <g transform="translate(314.142386 322.182437) scale(0.1 -0.1)">
       <use xlink:href="#DejaVuSans-32"/>
      </g>
     </g>
    </g>
    <g id="xtick_12">
     <g id="line2d_47">
      <g>
       <use xlink:href="#m4ff2f54a1a" x="349.789091" y="307.584" style="stroke: #000000; stroke-width: 0.8"/>
      </g>
     </g>
     <g id="text_21">
      <!-- 3 -->
      <g transform="translate(346.607841 322.182437) scale(0.1 -0.1)">
       <use xlink:href="#DejaVuSans-33"/>
      </g>
     </g>
    </g>
    <g id="xtick_13">
     <g id="line2d_48">
      <g>
       <use xlink:href="#m4ff2f54a1a" x="382.254545" y="307.584" style="stroke: #000000; stroke-width: 0.8"/>
      </g>
     </g>
     <g id="text_22">
      <!-- 4 -->
      <g transform="translate(379.073295 322.182437) scale(0.1 -0.1)">
       <use xlink:href="#DejaVuSans-34"/>
      </g>
     </g>
    </g>
    <g id="xtick_14">
     <g id="line2d_49">
      <g>
       <use xlink:href="#m4ff2f54a1a" x="414.72" y="307.584" style="stroke: #000000; stroke-width: 0.8"/>
      </g>
     </g>
     <g id="text_23">
      <!-- 5 -->
      <g transform="translate(411.53875 322.182437) scale(0.1 -0.1)">
       <use xlink:href="#DejaVuSans-35"/>
      </g>
     </g>
    </g>
   </g>
   <g id="matplotlib.axis_4">
    <g id="ytick_7">
     <g id="line2d_50">
      <g>
       <use xlink:href="#m0136822689" x="252.392727" y="307.584" style="stroke: #000000; stroke-width: 0.8"/>
      </g>
     </g>
    </g>
    <g id="ytick_8">
     <g id="line2d_51">
      <g>
       <use xlink:href="#m0136822689" x="252.392727" y="261.236389" style="stroke: #000000; stroke-width: 0.8"/>
      </g>
     </g>
    </g>
    <g id="ytick_9">
     <g id="line2d_52">
      <g>
       <use xlink:href="#m0136822689" x="252.392727" y="214.888777" style="stroke: #000000; stroke-width: 0.8"/>
      </g>
     </g>
    </g>
    <g id="ytick_10">
     <g id="line2d_53">
      <g>
       <use xlink:href="#m0136822689" x="252.392727" y="168.541166" style="stroke: #000000; stroke-width: 0.8"/>
      </g>
     </g>
    </g>
    <g id="ytick_11">
     <g id="line2d_54">
      <g>
       <use xlink:href="#m0136822689" x="252.392727" y="122.193555" style="stroke: #000000; stroke-width: 0.8"/>
      </g>
     </g>
    </g>
    <g id="ytick_12">
     <g id="line2d_55">
      <g>
       <use xlink:href="#m0136822689" x="252.392727" y="75.845943" style="stroke: #000000; stroke-width: 0.8"/>
      </g>
     </g>
    </g>
   </g>
   <g id="line2d_56">
    <path d="M 310.108517 307.584 
L 310.108517 41.472 
" clip-path="url(#p0473788cc7)" style="fill: none; stroke: #ff0000; stroke-linecap: square"/>
   </g>
   <g id="line2d_57">
    <path d="M 252.392727 298.314478 
L 414.72 298.314478 
" clip-path="url(#p0473788cc7)" style="fill: none; stroke-dasharray: 3.7,1.6; stroke-dashoffset: 0; stroke: #000000"/>
   </g>
   <g id="line2d_58">
    <path d="M 252.392727 289.044955 
L 414.72 289.044955 
" clip-path="url(#p0473788cc7)" style="fill: none; stroke-dasharray: 3.7,1.6; stroke-dashoffset: 0; stroke: #000000"/>
   </g>
   <g id="line2d_59">
    <path d="M 252.392727 279.775433 
L 414.72 279.775433 
" clip-path="url(#p0473788cc7)" style="fill: none; stroke-dasharray: 3.7,1.6; stroke-dashoffset: 0; stroke: #000000"/>
   </g>
   <g id="line2d_60">
    <path d="M 252.392727 270.505911 
L 414.72 270.505911 
" clip-path="url(#p0473788cc7)" style="fill: none; stroke-dasharray: 3.7,1.6; stroke-dashoffset: 0; stroke: #000000"/>
   </g>
   <g id="line2d_61">
    <path d="M 252.392727 261.236389 
L 414.72 261.236389 
" clip-path="url(#p0473788cc7)" style="fill: none; stroke-dasharray: 3.7,1.6; stroke-dashoffset: 0; stroke: #000000"/>
   </g>
   <g id="line2d_62">
    <path d="M 252.392727 251.966866 
L 414.72 251.966866 
" clip-path="url(#p0473788cc7)" style="fill: none; stroke-dasharray: 3.7,1.6; stroke-dashoffset: 0; stroke: #000000"/>
   </g>
   <g id="line2d_63">
    <path d="M 252.392727 242.697344 
L 414.72 242.697344 
" clip-path="url(#p0473788cc7)" style="fill: none; stroke-dasharray: 3.7,1.6; stroke-dashoffset: 0; stroke: #000000"/>
   </g>
   <g id="line2d_64">
    <path d="M 252.392727 233.427822 
L 414.72 233.427822 
" clip-path="url(#p0473788cc7)" style="fill: none; stroke-dasharray: 3.7,1.6; stroke-dashoffset: 0; stroke: #000000"/>
   </g>
   <g id="line2d_65">
    <path d="M 252.392727 224.1583 
L 414.72 224.1583 
" clip-path="url(#p0473788cc7)" style="fill: none; stroke-dasharray: 3.7,1.6; stroke-dashoffset: 0; stroke: #000000"/>
   </g>
   <g id="line2d_66">
    <path d="M 252.392727 214.888777 
L 414.72 214.888777 
" clip-path="url(#p0473788cc7)" style="fill: none; stroke-dasharray: 3.7,1.6; stroke-dashoffset: 0; stroke: #000000"/>
   </g>
   <g id="line2d_67">
    <path d="M 252.392727 205.619255 
L 414.72 205.619255 
" clip-path="url(#p0473788cc7)" style="fill: none; stroke-dasharray: 3.7,1.6; stroke-dashoffset: 0; stroke: #000000"/>
   </g>
   <g id="line2d_68">
    <path d="M 252.392727 196.349733 
L 414.72 196.349733 
" clip-path="url(#p0473788cc7)" style="fill: none; stroke-dasharray: 3.7,1.6; stroke-dashoffset: 0; stroke: #000000"/>
   </g>
   <g id="line2d_69">
    <path d="M 252.392727 187.08021 
L 414.72 187.08021 
" clip-path="url(#p0473788cc7)" style="fill: none; stroke-dasharray: 3.7,1.6; stroke-dashoffset: 0; stroke: #000000"/>
   </g>
   <g id="line2d_70">
    <path d="M 252.392727 177.810688 
L 414.72 177.810688 
" clip-path="url(#p0473788cc7)" style="fill: none; stroke-dasharray: 3.7,1.6; stroke-dashoffset: 0; stroke: #000000"/>
   </g>
   <g id="line2d_71">
    <path d="M 252.392727 168.541166 
L 414.72 168.541166 
" clip-path="url(#p0473788cc7)" style="fill: none; stroke-dasharray: 3.7,1.6; stroke-dashoffset: 0; stroke: #000000"/>
   </g>
   <g id="line2d_72">
    <path d="M 252.392727 159.271644 
L 414.72 159.271644 
" clip-path="url(#p0473788cc7)" style="fill: none; stroke-dasharray: 3.7,1.6; stroke-dashoffset: 0; stroke: #000000"/>
   </g>
   <g id="line2d_73">
    <path d="M 252.392727 150.002121 
L 414.72 150.002121 
" clip-path="url(#p0473788cc7)" style="fill: none; stroke-dasharray: 3.7,1.6; stroke-dashoffset: 0; stroke: #000000"/>
   </g>
   <g id="line2d_74">
    <path d="M 252.392727 140.732599 
L 414.72 140.732599 
" clip-path="url(#p0473788cc7)" style="fill: none; stroke-dasharray: 3.7,1.6; stroke-dashoffset: 0; stroke: #000000"/>
   </g>
   <g id="line2d_75">
    <path d="M 252.392727 131.463077 
L 414.72 131.463077 
" clip-path="url(#p0473788cc7)" style="fill: none; stroke-dasharray: 3.7,1.6; stroke-dashoffset: 0; stroke: #000000"/>
   </g>
   <g id="line2d_76">
    <path d="M 252.392727 122.193555 
L 414.72 122.193555 
" clip-path="url(#p0473788cc7)" style="fill: none; stroke-dasharray: 3.7,1.6; stroke-dashoffset: 0; stroke: #000000"/>
   </g>
   <g id="line2d_77">
    <path d="M 252.392727 112.924032 
L 414.72 112.924032 
" clip-path="url(#p0473788cc7)" style="fill: none; stroke-dasharray: 3.7,1.6; stroke-dashoffset: 0; stroke: #000000"/>
   </g>
   <g id="line2d_78">
    <path d="M 252.392727 103.65451 
L 414.72 103.65451 
" clip-path="url(#p0473788cc7)" style="fill: none; stroke-dasharray: 3.7,1.6; stroke-dashoffset: 0; stroke: #000000"/>
   </g>
   <g id="line2d_79">
    <path d="M 252.392727 94.384988 
L 414.72 94.384988 
" clip-path="url(#p0473788cc7)" style="fill: none; stroke-dasharray: 3.7,1.6; stroke-dashoffset: 0; stroke: #000000"/>
   </g>
   <g id="line2d_80">
    <path d="M 252.392727 85.115466 
L 414.72 85.115466 
" clip-path="url(#p0473788cc7)" style="fill: none; stroke-dasharray: 3.7,1.6; stroke-dashoffset: 0; stroke: #000000"/>
   </g>
   <g id="line2d_81">
    <path d="M 252.392727 75.845943 
L 414.72 75.845943 
" clip-path="url(#p0473788cc7)" style="fill: none; stroke-dasharray: 3.7,1.6; stroke-dashoffset: 0; stroke: #000000"/>
   </g>
   <g id="line2d_82">
    <path d="M 252.392727 66.576421 
L 414.72 66.576421 
" clip-path="url(#p0473788cc7)" style="fill: none; stroke-dasharray: 3.7,1.6; stroke-dashoffset: 0; stroke: #000000"/>
   </g>
   <g id="line2d_83">
    <path d="M 252.392727 57.306899 
L 414.72 57.306899 
" clip-path="url(#p0473788cc7)" style="fill: none; stroke-dasharray: 3.7,1.6; stroke-dashoffset: 0; stroke: #000000"/>
   </g>
   <g id="line2d_84">
    <path d="M 252.392727 48.037376 
L 414.72 48.037376 
" clip-path="url(#p0473788cc7)" style="fill: none; stroke-dasharray: 3.7,1.6; stroke-dashoffset: 0; stroke: #000000"/>
   </g>
   <g id="patch_59">
    <path d="M 252.392727 307.584 
L 252.392727 41.472 
" style="fill: none; stroke: #000000; stroke-width: 0.8; stroke-linejoin: miter; stroke-linecap: square"/>
   </g>
   <g id="patch_60">
    <path d="M 414.72 307.584 
L 414.72 41.472 
" style="fill: none; stroke: #000000; stroke-width: 0.8; stroke-linejoin: miter; stroke-linecap: square"/>
   </g>
   <g id="patch_61">
    <path d="M 252.392727 307.584 
L 414.72 307.584 
" style="fill: none; stroke: #000000; stroke-width: 0.8; stroke-linejoin: miter; stroke-linecap: square"/>
   </g>
   <g id="patch_62">
    <path d="M 252.392727 41.472 
L 414.72 41.472 
" style="fill: none; stroke: #000000; stroke-width: 0.8; stroke-linejoin: miter; stroke-linecap: square"/>
   </g>
   <g id="text_24">
    <g id="patch_63">
     <path d="M 300.684148 74.455725 
L 408.487273 74.455725 
L 408.487273 44.7776 
L 300.684148 44.7776 
z
" style="fill: #1f77b4; opacity: 0.5; stroke: #000000; stroke-linejoin: miter"/>
    </g>
    <!-- #Detections: 730 -->
    <g transform="translate(310.684148 62.376037) scale(0.1 -0.1)">
     <defs>
      <path id="DejaVuSans-37" d="M 525 4666 
L 3525 4666 
L 3525 4397 
L 1831 0 
L 1172 0 
L 2766 4134 
L 525 4134 
L 525 4666 
z
" transform="scale(0.015625)"/>
     </defs>
     <use xlink:href="#DejaVuSans-23"/>
     <use xlink:href="#DejaVuSans-44" x="83.789062"/>
     <use xlink:href="#DejaVuSans-65" x="160.791016"/>
     <use xlink:href="#DejaVuSans-74" x="222.314453"/>
     <use xlink:href="#DejaVuSans-65" x="261.523438"/>
     <use xlink:href="#DejaVuSans-63" x="323.046875"/>
     <use xlink:href="#DejaVuSans-74" x="378.027344"/>
     <use xlink:href="#DejaVuSans-69" x="417.236328"/>
     <use xlink:href="#DejaVuSans-6f" x="445.019531"/>
     <use xlink:href="#DejaVuSans-6e" x="506.201172"/>
     <use xlink:href="#DejaVuSans-73" x="569.580078"/>
     <use xlink:href="#DejaVuSans-3a" x="621.679688"/>
     <use xlink:href="#DejaVuSans-20" x="655.371094"/>
     <use xlink:href="#DejaVuSans-37" x="687.158203"/>
     <use xlink:href="#DejaVuSans-33" x="750.78125"/>
     <use xlink:href="#DejaVuSans-30" x="814.404297"/>
    </g>
   </g>
   <g id="text_25">
    <!-- ExoSim -->
    <g transform="translate(311.409801 35.472) scale(0.12 -0.12)">
     <defs>
      <path id="DejaVuSans-78" d="M 3513 3500 
L 2247 1797 
L 3578 0 
L 2900 0 
L 1881 1375 
L 863 0 
L 184 0 
L 1544 1831 
L 300 3500 
L 978 3500 
L 1906 2253 
L 2834 3500 
L 3513 3500 
z
" transform="scale(0.015625)"/>
      <path id="DejaVuSans-53" d="M 3425 4513 
L 3425 3897 
Q 3066 4069 2747 4153 
Q 2428 4238 2131 4238 
Q 1616 4238 1336 4038 
Q 1056 3838 1056 3469 
Q 1056 3159 1242 3001 
Q 1428 2844 1947 2747 
L 2328 2669 
Q 3034 2534 3370 2195 
Q 3706 1856 3706 1288 
Q 3706 609 3251 259 
Q 2797 -91 1919 -91 
Q 1588 -91 1214 -16 
Q 841 59 441 206 
L 441 856 
Q 825 641 1194 531 
Q 1563 422 1919 422 
Q 2459 422 2753 634 
Q 3047 847 3047 1241 
Q 3047 1584 2836 1778 
Q 2625 1972 2144 2069 
L 1759 2144 
Q 1053 2284 737 2584 
Q 422 2884 422 3419 
Q 422 4038 858 4394 
Q 1294 4750 2059 4750 
Q 2388 4750 2728 4690 
Q 3069 4631 3425 4513 
z
" transform="scale(0.015625)"/>
     </defs>
     <use xlink:href="#DejaVuSans-45"/>
     <use xlink:href="#DejaVuSans-78" x="63.183594"/>
     <use xlink:href="#DejaVuSans-6f" x="119.238281"/>
     <use xlink:href="#DejaVuSans-53" x="180.419922"/>
     <use xlink:href="#DejaVuSans-69" x="243.896484"/>
     <use xlink:href="#DejaVuSans-6d" x="271.679688"/>
    </g>
   </g>
  </g>
  <g id="text_26">
   <!-- Planet Distance [AU] -->
   <g transform="translate(178.704688 334.535375) scale(0.1 -0.1)">
    <defs>
     <path id="DejaVuSans-50" d="M 1259 4147 
L 1259 2394 
L 2053 2394 
Q 2494 2394 2734 2622 
Q 2975 2850 2975 3272 
Q 2975 3691 2734 3919 
Q 2494 4147 2053 4147 
L 1259 4147 
z
M 628 4666 
L 2053 4666 
Q 2838 4666 3239 4311 
Q 3641 3956 3641 3272 
Q 3641 2581 3239 2228 
Q 2838 1875 2053 1875 
L 1259 1875 
L 1259 0 
L 628 0 
L 628 4666 
z
" transform="scale(0.015625)"/>
     <path id="DejaVuSans-6c" d="M 603 4863 
L 1178 4863 
L 1178 0 
L 603 0 
L 603 4863 
z
" transform="scale(0.015625)"/>
     <path id="DejaVuSans-5b" d="M 550 4863 
L 1875 4863 
L 1875 4416 
L 1125 4416 
L 1125 -397 
L 1875 -397 
L 1875 -844 
L 550 -844 
L 550 4863 
z
" transform="scale(0.015625)"/>
     <path id="DejaVuSans-41" d="M 2188 4044 
L 1331 1722 
L 3047 1722 
L 2188 4044 
z
M 1831 4666 
L 2547 4666 
L 4325 0 
L 3669 0 
L 3244 1197 
L 1141 1197 
L 716 0 
L 50 0 
L 1831 4666 
z
" transform="scale(0.015625)"/>
     <path id="DejaVuSans-55" d="M 556 4666 
L 1191 4666 
L 1191 1831 
Q 1191 1081 1462 751 
Q 1734 422 2344 422 
Q 2950 422 3222 751 
Q 3494 1081 3494 1831 
L 3494 4666 
L 4128 4666 
L 4128 1753 
Q 4128 841 3676 375 
Q 3225 -91 2344 -91 
Q 1459 -91 1007 375 
Q 556 841 556 1753 
L 556 4666 
z
" transform="scale(0.015625)"/>
     <path id="DejaVuSans-5d" d="M 1947 4863 
L 1947 -844 
L 622 -844 
L 622 -397 
L 1369 -397 
L 1369 4416 
L 622 4416 
L 622 4863 
L 1947 4863 
z
" transform="scale(0.015625)"/>
    </defs>
    <use xlink:href="#DejaVuSans-50"/>
    <use xlink:href="#DejaVuSans-6c" x="60.302734"/>
    <use xlink:href="#DejaVuSans-61" x="88.085938"/>
    <use xlink:href="#DejaVuSans-6e" x="149.365234"/>
    <use xlink:href="#DejaVuSans-65" x="212.744141"/>
    <use xlink:href="#DejaVuSans-74" x="274.267578"/>
    <use xlink:href="#DejaVuSans-20" x="313.476562"/>
    <use xlink:href="#DejaVuSans-44" x="345.263672"/>
    <use xlink:href="#DejaVuSans-69" x="422.265625"/>
    <use xlink:href="#DejaVuSans-73" x="450.048828"/>
    <use xlink:href="#DejaVuSans-74" x="502.148438"/>
    <use xlink:href="#DejaVuSans-61" x="541.357422"/>
    <use xlink:href="#DejaVuSans-6e" x="602.636719"/>
    <use xlink:href="#DejaVuSans-63" x="666.015625"/>
    <use xlink:href="#DejaVuSans-65" x="720.996094"/>
    <use xlink:href="#DejaVuSans-20" x="782.519531"/>
    <use xlink:href="#DejaVuSans-5b" x="814.306641"/>
    <use xlink:href="#DejaVuSans-41" x="853.320312"/>
    <use xlink:href="#DejaVuSans-55" x="921.728516"/>
    <use xlink:href="#DejaVuSans-5d" x="994.921875"/>
   </g>
  </g>
  <g id="text_27">
   <!-- Distribution Distance Detected Planets -->
   <g transform="translate(75.2 19.0695) scale(0.16 -0.16)">
    <defs>
     <path id="DejaVuSans-62" d="M 3116 1747 
Q 3116 2381 2855 2742 
Q 2594 3103 2138 3103 
Q 1681 3103 1420 2742 
Q 1159 2381 1159 1747 
Q 1159 1113 1420 752 
Q 1681 391 2138 391 
Q 2594 391 2855 752 
Q 3116 1113 3116 1747 
z
M 1159 2969 
Q 1341 3281 1617 3432 
Q 1894 3584 2278 3584 
Q 2916 3584 3314 3078 
Q 3713 2572 3713 1747 
Q 3713 922 3314 415 
Q 2916 -91 2278 -91 
Q 1894 -91 1617 61 
Q 1341 213 1159 525 
L 1159 0 
L 581 0 
L 581 4863 
L 1159 4863 
L 1159 2969 
z
" transform="scale(0.015625)"/>
     <path id="DejaVuSans-64" d="M 2906 2969 
L 2906 4863 
L 3481 4863 
L 3481 0 
L 2906 0 
L 2906 525 
Q 2725 213 2448 61 
Q 2172 -91 1784 -91 
Q 1150 -91 751 415 
Q 353 922 353 1747 
Q 353 2572 751 3078 
Q 1150 3584 1784 3584 
Q 2172 3584 2448 3432 
Q 2725 3281 2906 2969 
z
M 947 1747 
Q 947 1113 1208 752 
Q 1469 391 1925 391 
Q 2381 391 2643 752 
Q 2906 1113 2906 1747 
Q 2906 2381 2643 2742 
Q 2381 3103 1925 3103 
Q 1469 3103 1208 2742 
Q 947 2381 947 1747 
z
" transform="scale(0.015625)"/>
    </defs>
    <use xlink:href="#DejaVuSans-44"/>
    <use xlink:href="#DejaVuSans-69" x="77.001953"/>
    <use xlink:href="#DejaVuSans-73" x="104.785156"/>
    <use xlink:href="#DejaVuSans-74" x="156.884766"/>
    <use xlink:href="#DejaVuSans-72" x="196.09375"/>
    <use xlink:href="#DejaVuSans-69" x="237.207031"/>
    <use xlink:href="#DejaVuSans-62" x="264.990234"/>
    <use xlink:href="#DejaVuSans-75" x="328.466797"/>
    <use xlink:href="#DejaVuSans-74" x="391.845703"/>
    <use xlink:href="#DejaVuSans-69" x="431.054688"/>
    <use xlink:href="#DejaVuSans-6f" x="458.837891"/>
    <use xlink:href="#DejaVuSans-6e" x="520.019531"/>
    <use xlink:href="#DejaVuSans-20" x="583.398438"/>
    <use xlink:href="#DejaVuSans-44" x="615.185547"/>
    <use xlink:href="#DejaVuSans-69" x="692.1875"/>
    <use xlink:href="#DejaVuSans-73" x="719.970703"/>
    <use xlink:href="#DejaVuSans-74" x="772.070312"/>
    <use xlink:href="#DejaVuSans-61" x="811.279297"/>
    <use xlink:href="#DejaVuSans-6e" x="872.558594"/>
    <use xlink:href="#DejaVuSans-63" x="935.9375"/>
    <use xlink:href="#DejaVuSans-65" x="990.917969"/>
    <use xlink:href="#DejaVuSans-20" x="1052.441406"/>
    <use xlink:href="#DejaVuSans-44" x="1084.228516"/>
    <use xlink:href="#DejaVuSans-65" x="1161.230469"/>
    <use xlink:href="#DejaVuSans-74" x="1222.753906"/>
    <use xlink:href="#DejaVuSans-65" x="1261.962891"/>
    <use xlink:href="#DejaVuSans-63" x="1323.486328"/>
    <use xlink:href="#DejaVuSans-74" x="1378.466797"/>
    <use xlink:href="#DejaVuSans-65" x="1417.675781"/>
    <use xlink:href="#DejaVuSans-64" x="1479.199219"/>
    <use xlink:href="#DejaVuSans-20" x="1542.675781"/>
    <use xlink:href="#DejaVuSans-50" x="1574.462891"/>
    <use xlink:href="#DejaVuSans-6c" x="1634.765625"/>
    <use xlink:href="#DejaVuSans-61" x="1662.548828"/>
    <use xlink:href="#DejaVuSans-6e" x="1723.828125"/>
    <use xlink:href="#DejaVuSans-65" x="1787.207031"/>
    <use xlink:href="#DejaVuSans-74" x="1848.730469"/>
    <use xlink:href="#DejaVuSans-73" x="1887.939453"/>
   </g>
  </g>
 </g>
 <defs>
  <clipPath id="pd5c059b35a">
   <rect x="57.6" y="41.472" width="162.327273" height="266.112"/>
  </clipPath>
  <clipPath id="p0473788cc7">
   <rect x="252.392727" y="41.472" width="162.327273" height="266.112"/>
  </clipPath>
 </defs>
</svg>
