<?xml version="1.0" encoding="utf-8" standalone="no"?>
<!DOCTYPE svg PUBLIC "-//W3C//DTD SVG 1.1//EN"
  "http://www.w3.org/Graphics/SVG/1.1/DTD/svg11.dtd">
<svg xmlns:xlink="http://www.w3.org/1999/xlink" width="460.8pt" height="345.6pt" viewBox="0 0 460.8 345.6" xmlns="http://www.w3.org/2000/svg" version="1.1">
 <metadata>
  <rdf:RDF xmlns:dc="http://purl.org/dc/elements/1.1/" xmlns:cc="http://creativecommons.org/ns#" xmlns:rdf="http://www.w3.org/1999/02/22-rdf-syntax-ns#">
   <cc:Work>
    <dc:type rdf:resource="http://purl.org/dc/dcmitype/StillImage"/>
    <dc:date>2023-06-22T16:39:58.927306</dc:date>
    <dc:format>image/svg+xml</dc:format>
    <dc:creator>
     <cc:Agent>
      <dc:title>Matplotlib v3.7.1, https://matplotlib.org/</dc:title>
     </cc:Agent>
    </dc:creator>
   </cc:Work>
  </rdf:RDF>
 </metadata>
 <defs>
  <style type="text/css">*{stroke-linejoin: round; stroke-linecap: butt}</style>
 </defs>
 <g id="figure_1">
  <g id="patch_1">
   <path d="M 0 345.6 
L 460.8 345.6 
L 460.8 0 
L 0 0 
z
" style="fill: #ffffff"/>
  </g>
  <g id="axes_1">
   <g id="patch_2">
    <path d="M 57.6 307.584 
L 219.927273 307.584 
L 219.927273 41.472 
L 57.6 41.472 
z
" style="fill: #ffffff"/>
   </g>
   <g id="patch_3">
    <path d="M 57.607937 307.584 
L 64.099798 307.584 
L 64.099798 65.664 
L 57.607937 65.664 
z
" clip-path="url(#pd42ef05886)" style="fill: #008000; opacity: 0.9"/>
   </g>
   <g id="patch_4">
    <path d="M 64.099798 307.584 
L 70.59166 307.584 
L 70.59166 199.50131 
L 64.099798 199.50131 
z
" clip-path="url(#pd42ef05886)" style="fill: #008000; opacity: 0.9"/>
   </g>
   <g id="patch_5">
    <path d="M 70.59166 307.584 
L 77.083521 307.584 
L 77.083521 233.337852 
L 70.59166 233.337852 
z
" clip-path="url(#pd42ef05886)" style="fill: #008000; opacity: 0.9"/>
   </g>
   <g id="patch_6">
    <path d="M 77.083521 307.584 
L 83.575382 307.584 
L 83.575382 255.311659 
L 77.083521 255.311659 
z
" clip-path="url(#pd42ef05886)" style="fill: #008000; opacity: 0.9"/>
   </g>
   <g id="patch_7">
    <path d="M 83.575382 307.584 
L 90.067243 307.584 
L 90.067243 264.243396 
L 83.575382 264.243396 
z
" clip-path="url(#pd42ef05886)" style="fill: #008000; opacity: 0.9"/>
   </g>
   <g id="patch_8">
    <path d="M 90.067243 307.584 
L 96.559104 307.584 
L 96.559104 272.06517 
L 90.067243 272.06517 
z
" clip-path="url(#pd42ef05886)" style="fill: #008000; opacity: 0.9"/>
   </g>
   <g id="patch_9">
    <path d="M 96.559104 307.584 
L 103.050966 307.584 
L 103.050966 278.985098 
L 96.559104 278.985098 
z
" clip-path="url(#pd42ef05886)" style="fill: #008000; opacity: 0.9"/>
   </g>
   <g id="patch_10">
    <path d="M 103.050966 307.584 
L 109.542827 307.584 
L 109.542827 282.991373 
L 103.050966 282.991373 
z
" clip-path="url(#pd42ef05886)" style="fill: #008000; opacity: 0.9"/>
   </g>
   <g id="patch_11">
    <path d="M 109.542827 307.584 
L 116.034688 307.584 
L 116.034688 288.957426 
L 109.542827 288.957426 
z
" clip-path="url(#pd42ef05886)" style="fill: #008000; opacity: 0.9"/>
   </g>
   <g id="patch_12">
    <path d="M 116.034688 307.584 
L 122.526549 307.584 
L 122.526549 292.113885 
L 116.034688 292.113885 
z
" clip-path="url(#pd42ef05886)" style="fill: #008000; opacity: 0.9"/>
   </g>
   <g id="patch_13">
    <path d="M 122.526549 307.584 
L 129.01841 307.584 
L 129.01841 295.010195 
L 122.526549 295.010195 
z
" clip-path="url(#pd42ef05886)" style="fill: #008000; opacity: 0.9"/>
   </g>
   <g id="patch_14">
    <path d="M 129.01841 307.584 
L 135.510272 307.584 
L 135.510272 296.571082 
L 129.01841 296.571082 
z
" clip-path="url(#pd42ef05886)" style="fill: #008000; opacity: 0.9"/>
   </g>
   <g id="patch_15">
    <path d="M 135.510272 307.584 
L 142.002133 307.584 
L 142.002133 296.848572 
L 135.510272 296.848572 
z
" clip-path="url(#pd42ef05886)" style="fill: #008000; opacity: 0.9"/>
   </g>
   <g id="patch_16">
    <path d="M 142.002133 307.584 
L 148.493994 307.584 
L 148.493994 298.704292 
L 142.002133 298.704292 
z
" clip-path="url(#pd42ef05886)" style="fill: #008000; opacity: 0.9"/>
   </g>
   <g id="patch_17">
    <path d="M 148.493994 307.584 
L 154.985855 307.584 
L 154.985855 301.219053 
L 148.493994 301.219053 
z
" clip-path="url(#pd42ef05886)" style="fill: #008000; opacity: 0.9"/>
   </g>
   <g id="patch_18">
    <path d="M 154.985855 307.584 
L 161.477716 307.584 
L 161.477716 301.375142 
L 154.985855 301.375142 
z
" clip-path="url(#pd42ef05886)" style="fill: #008000; opacity: 0.9"/>
   </g>
   <g id="patch_19">
    <path d="M 161.477716 307.584 
L 167.969578 307.584 
L 167.969578 302.745253 
L 161.477716 302.745253 
z
" clip-path="url(#pd42ef05886)" style="fill: #008000; opacity: 0.9"/>
   </g>
   <g id="patch_20">
    <path d="M 167.969578 307.584 
L 174.461439 307.584 
L 174.461439 302.831969 
L 167.969578 302.831969 
z
" clip-path="url(#pd42ef05886)" style="fill: #008000; opacity: 0.9"/>
   </g>
   <g id="patch_21">
    <path d="M 174.461439 307.584 
L 180.9533 307.584 
L 180.9533 302.831969 
L 174.461439 302.831969 
z
" clip-path="url(#pd42ef05886)" style="fill: #008000; opacity: 0.9"/>
   </g>
   <g id="patch_22">
    <path d="M 180.9533 307.584 
L 187.445161 307.584 
L 187.445161 303.785844 
L 180.9533 303.785844 
z
" clip-path="url(#pd42ef05886)" style="fill: #008000; opacity: 0.9"/>
   </g>
   <g id="patch_23">
    <path d="M 187.445161 307.584 
L 193.937022 307.584 
L 193.937022 304.705032 
L 187.445161 304.705032 
z
" clip-path="url(#pd42ef05886)" style="fill: #008000; opacity: 0.9"/>
   </g>
   <g id="patch_24">
    <path d="M 193.937022 307.584 
L 200.428884 307.584 
L 200.428884 304.861121 
L 193.937022 304.861121 
z
" clip-path="url(#pd42ef05886)" style="fill: #008000; opacity: 0.9"/>
   </g>
   <g id="patch_25">
    <path d="M 200.428884 307.584 
L 206.920745 307.584 
L 206.920745 305.051896 
L 200.428884 305.051896 
z
" clip-path="url(#pd42ef05886)" style="fill: #008000; opacity: 0.9"/>
   </g>
   <g id="patch_26">
    <path d="M 206.920745 307.584 
L 213.412606 307.584 
L 213.412606 305.520162 
L 206.920745 305.520162 
z
" clip-path="url(#pd42ef05886)" style="fill: #008000; opacity: 0.9"/>
   </g>
   <g id="patch_27">
    <path d="M 213.412606 307.584 
L 219.904467 307.584 
L 219.904467 305.485475 
L 213.412606 305.485475 
z
" clip-path="url(#pd42ef05886)" style="fill: #008000; opacity: 0.9"/>
   </g>
   <g id="matplotlib.axis_1">
    <g id="xtick_1">
     <g id="line2d_1">
      <defs>
       <path id="ma2e4211278" d="M 0 0 
L 0 3.5 
" style="stroke: #000000; stroke-width: 0.8"/>
      </defs>
      <g>
       <use xlink:href="#ma2e4211278" x="57.6" y="307.584" style="stroke: #000000; stroke-width: 0.8"/>
      </g>
     </g>
     <g id="text_1">
      <!-- 0 -->
      <g transform="translate(54.41875 322.182437) scale(0.1 -0.1)">
       <defs>
        <path id="DejaVuSans-30" d="M 2034 4250 
Q 1547 4250 1301 3770 
Q 1056 3291 1056 2328 
Q 1056 1369 1301 889 
Q 1547 409 2034 409 
Q 2525 409 2770 889 
Q 3016 1369 3016 2328 
Q 3016 3291 2770 3770 
Q 2525 4250 2034 4250 
z
M 2034 4750 
Q 2819 4750 3233 4129 
Q 3647 3509 3647 2328 
Q 3647 1150 3233 529 
Q 2819 -91 2034 -91 
Q 1250 -91 836 529 
Q 422 1150 422 2328 
Q 422 3509 836 4129 
Q 1250 4750 2034 4750 
z
" transform="scale(0.015625)"/>
       </defs>
       <use xlink:href="#DejaVuSans-30"/>
      </g>
     </g>
    </g>
    <g id="xtick_2">
     <g id="line2d_2">
      <g>
       <use xlink:href="#ma2e4211278" x="65.716364" y="307.584" style="stroke: #000000; stroke-width: 0.8"/>
      </g>
     </g>
     <g id="text_2">
      <!-- 1 -->
      <g transform="translate(62.535114 322.182437) scale(0.1 -0.1)">
       <defs>
        <path id="DejaVuSans-31" d="M 794 531 
L 1825 531 
L 1825 4091 
L 703 3866 
L 703 4441 
L 1819 4666 
L 2450 4666 
L 2450 531 
L 3481 531 
L 3481 0 
L 794 0 
L 794 531 
z
" transform="scale(0.015625)"/>
       </defs>
       <use xlink:href="#DejaVuSans-31"/>
      </g>
     </g>
    </g>
    <g id="xtick_3">
     <g id="line2d_3">
      <g>
       <use xlink:href="#ma2e4211278" x="98.181818" y="307.584" style="stroke: #000000; stroke-width: 0.8"/>
      </g>
     </g>
     <g id="text_3">
      <!-- 5 -->
      <g transform="translate(95.000568 322.182437) scale(0.1 -0.1)">
       <defs>
        <path id="DejaVuSans-35" d="M 691 4666 
L 3169 4666 
L 3169 4134 
L 1269 4134 
L 1269 2991 
Q 1406 3038 1543 3061 
Q 1681 3084 1819 3084 
Q 2600 3084 3056 2656 
Q 3513 2228 3513 1497 
Q 3513 744 3044 326 
Q 2575 -91 1722 -91 
Q 1428 -91 1123 -41 
Q 819 9 494 109 
L 494 744 
Q 775 591 1075 516 
Q 1375 441 1709 441 
Q 2250 441 2565 725 
Q 2881 1009 2881 1497 
Q 2881 1984 2565 2268 
Q 2250 2553 1709 2553 
Q 1456 2553 1204 2497 
Q 953 2441 691 2322 
L 691 4666 
z
" transform="scale(0.015625)"/>
       </defs>
       <use xlink:href="#DejaVuSans-35"/>
      </g>
     </g>
    </g>
    <g id="xtick_4">
     <g id="line2d_4">
      <g>
       <use xlink:href="#ma2e4211278" x="138.763636" y="307.584" style="stroke: #000000; stroke-width: 0.8"/>
      </g>
     </g>
     <g id="text_4">
      <!-- 10 -->
      <g transform="translate(132.401136 322.182437) scale(0.1 -0.1)">
       <use xlink:href="#DejaVuSans-31"/>
       <use xlink:href="#DejaVuSans-30" x="63.623047"/>
      </g>
     </g>
    </g>
    <g id="xtick_5">
     <g id="line2d_5">
      <g>
       <use xlink:href="#ma2e4211278" x="179.345455" y="307.584" style="stroke: #000000; stroke-width: 0.8"/>
      </g>
     </g>
     <g id="text_5">
      <!-- 15 -->
      <g transform="translate(172.982955 322.182437) scale(0.1 -0.1)">
       <use xlink:href="#DejaVuSans-31"/>
       <use xlink:href="#DejaVuSans-35" x="63.623047"/>
      </g>
     </g>
    </g>
    <g id="xtick_6">
     <g id="line2d_6">
      <g>
       <use xlink:href="#ma2e4211278" x="219.927273" y="307.584" style="stroke: #000000; stroke-width: 0.8"/>
      </g>
     </g>
     <g id="text_6">
      <!-- 20 -->
      <g transform="translate(213.564773 322.182437) scale(0.1 -0.1)">
       <defs>
        <path id="DejaVuSans-32" d="M 1228 531 
L 3431 531 
L 3431 0 
L 469 0 
L 469 531 
Q 828 903 1448 1529 
Q 2069 2156 2228 2338 
Q 2531 2678 2651 2914 
Q 2772 3150 2772 3378 
Q 2772 3750 2511 3984 
Q 2250 4219 1831 4219 
Q 1534 4219 1204 4116 
Q 875 4013 500 3803 
L 500 4441 
Q 881 4594 1212 4672 
Q 1544 4750 1819 4750 
Q 2544 4750 2975 4387 
Q 3406 4025 3406 3419 
Q 3406 3131 3298 2873 
Q 3191 2616 2906 2266 
Q 2828 2175 2409 1742 
Q 1991 1309 1228 531 
z
" transform="scale(0.015625)"/>
       </defs>
       <use xlink:href="#DejaVuSans-32"/>
       <use xlink:href="#DejaVuSans-30" x="63.623047"/>
      </g>
     </g>
    </g>
   </g>
   <g id="matplotlib.axis_2">
    <g id="ytick_1">
     <g id="line2d_7">
      <defs>
       <path id="m2972745504" d="M 0 0 
L -3.5 0 
" style="stroke: #000000; stroke-width: 0.8"/>
      </defs>
      <g>
       <use xlink:href="#m2972745504" x="57.6" y="307.584" style="stroke: #000000; stroke-width: 0.8"/>
      </g>
     </g>
     <g id="text_7">
      <!-- 0.0 -->
      <g transform="translate(34.696875 311.383219) scale(0.1 -0.1)">
       <defs>
        <path id="DejaVuSans-2e" d="M 684 794 
L 1344 794 
L 1344 0 
L 684 0 
L 684 794 
z
" transform="scale(0.015625)"/>
       </defs>
       <use xlink:href="#DejaVuSans-30"/>
       <use xlink:href="#DejaVuSans-2e" x="63.623047"/>
       <use xlink:href="#DejaVuSans-30" x="95.410156"/>
      </g>
     </g>
    </g>
    <g id="ytick_2">
     <g id="line2d_8">
      <g>
       <use xlink:href="#m2972745504" x="57.6" y="249.284501" style="stroke: #000000; stroke-width: 0.8"/>
      </g>
     </g>
     <g id="text_8">
      <!-- 0.1 -->
      <g transform="translate(34.696875 253.08372) scale(0.1 -0.1)">
       <use xlink:href="#DejaVuSans-30"/>
       <use xlink:href="#DejaVuSans-2e" x="63.623047"/>
       <use xlink:href="#DejaVuSans-31" x="95.410156"/>
      </g>
     </g>
    </g>
    <g id="ytick_3">
     <g id="line2d_9">
      <g>
       <use xlink:href="#m2972745504" x="57.6" y="190.985003" style="stroke: #000000; stroke-width: 0.8"/>
      </g>
     </g>
     <g id="text_9">
      <!-- 0.2 -->
      <g transform="translate(34.696875 194.784222) scale(0.1 -0.1)">
       <use xlink:href="#DejaVuSans-30"/>
       <use xlink:href="#DejaVuSans-2e" x="63.623047"/>
       <use xlink:href="#DejaVuSans-32" x="95.410156"/>
      </g>
     </g>
    </g>
    <g id="ytick_4">
     <g id="line2d_10">
      <g>
       <use xlink:href="#m2972745504" x="57.6" y="132.685504" style="stroke: #000000; stroke-width: 0.8"/>
      </g>
     </g>
     <g id="text_10">
      <!-- 0.3 -->
      <g transform="translate(34.696875 136.484723) scale(0.1 -0.1)">
       <defs>
        <path id="DejaVuSans-33" d="M 2597 2516 
Q 3050 2419 3304 2112 
Q 3559 1806 3559 1356 
Q 3559 666 3084 287 
Q 2609 -91 1734 -91 
Q 1441 -91 1130 -33 
Q 819 25 488 141 
L 488 750 
Q 750 597 1062 519 
Q 1375 441 1716 441 
Q 2309 441 2620 675 
Q 2931 909 2931 1356 
Q 2931 1769 2642 2001 
Q 2353 2234 1838 2234 
L 1294 2234 
L 1294 2753 
L 1863 2753 
Q 2328 2753 2575 2939 
Q 2822 3125 2822 3475 
Q 2822 3834 2567 4026 
Q 2313 4219 1838 4219 
Q 1578 4219 1281 4162 
Q 984 4106 628 3988 
L 628 4550 
Q 988 4650 1302 4700 
Q 1616 4750 1894 4750 
Q 2613 4750 3031 4423 
Q 3450 4097 3450 3541 
Q 3450 3153 3228 2886 
Q 3006 2619 2597 2516 
z
" transform="scale(0.015625)"/>
       </defs>
       <use xlink:href="#DejaVuSans-30"/>
       <use xlink:href="#DejaVuSans-2e" x="63.623047"/>
       <use xlink:href="#DejaVuSans-33" x="95.410156"/>
      </g>
     </g>
    </g>
    <g id="ytick_5">
     <g id="line2d_11">
      <g>
       <use xlink:href="#m2972745504" x="57.6" y="74.386006" style="stroke: #000000; stroke-width: 0.8"/>
      </g>
     </g>
     <g id="text_11">
      <!-- 0.4 -->
      <g transform="translate(34.696875 78.185225) scale(0.1 -0.1)">
       <defs>
        <path id="DejaVuSans-34" d="M 2419 4116 
L 825 1625 
L 2419 1625 
L 2419 4116 
z
M 2253 4666 
L 3047 4666 
L 3047 1625 
L 3713 1625 
L 3713 1100 
L 3047 1100 
L 3047 0 
L 2419 0 
L 2419 1100 
L 313 1100 
L 313 1709 
L 2253 4666 
z
" transform="scale(0.015625)"/>
       </defs>
       <use xlink:href="#DejaVuSans-30"/>
       <use xlink:href="#DejaVuSans-2e" x="63.623047"/>
       <use xlink:href="#DejaVuSans-34" x="95.410156"/>
      </g>
     </g>
    </g>
    <g id="text_12">
     <!-- Occurance -->
     <g transform="translate(22.617187 201.245187) rotate(-90) scale(0.1 -0.1)">
      <defs>
       <path id="DejaVuSans-4f" d="M 2522 4238 
Q 1834 4238 1429 3725 
Q 1025 3213 1025 2328 
Q 1025 1447 1429 934 
Q 1834 422 2522 422 
Q 3209 422 3611 934 
Q 4013 1447 4013 2328 
Q 4013 3213 3611 3725 
Q 3209 4238 2522 4238 
z
M 2522 4750 
Q 3503 4750 4090 4092 
Q 4678 3434 4678 2328 
Q 4678 1225 4090 567 
Q 3503 -91 2522 -91 
Q 1538 -91 948 565 
Q 359 1222 359 2328 
Q 359 3434 948 4092 
Q 1538 4750 2522 4750 
z
" transform="scale(0.015625)"/>
       <path id="DejaVuSans-63" d="M 3122 3366 
L 3122 2828 
Q 2878 2963 2633 3030 
Q 2388 3097 2138 3097 
Q 1578 3097 1268 2742 
Q 959 2388 959 1747 
Q 959 1106 1268 751 
Q 1578 397 2138 397 
Q 2388 397 2633 464 
Q 2878 531 3122 666 
L 3122 134 
Q 2881 22 2623 -34 
Q 2366 -91 2075 -91 
Q 1284 -91 818 406 
Q 353 903 353 1747 
Q 353 2603 823 3093 
Q 1294 3584 2113 3584 
Q 2378 3584 2631 3529 
Q 2884 3475 3122 3366 
z
" transform="scale(0.015625)"/>
       <path id="DejaVuSans-75" d="M 544 1381 
L 544 3500 
L 1119 3500 
L 1119 1403 
Q 1119 906 1312 657 
Q 1506 409 1894 409 
Q 2359 409 2629 706 
Q 2900 1003 2900 1516 
L 2900 3500 
L 3475 3500 
L 3475 0 
L 2900 0 
L 2900 538 
Q 2691 219 2414 64 
Q 2138 -91 1772 -91 
Q 1169 -91 856 284 
Q 544 659 544 1381 
z
M 1991 3584 
L 1991 3584 
z
" transform="scale(0.015625)"/>
       <path id="DejaVuSans-72" d="M 2631 2963 
Q 2534 3019 2420 3045 
Q 2306 3072 2169 3072 
Q 1681 3072 1420 2755 
Q 1159 2438 1159 1844 
L 1159 0 
L 581 0 
L 581 3500 
L 1159 3500 
L 1159 2956 
Q 1341 3275 1631 3429 
Q 1922 3584 2338 3584 
Q 2397 3584 2469 3576 
Q 2541 3569 2628 3553 
L 2631 2963 
z
" transform="scale(0.015625)"/>
       <path id="DejaVuSans-61" d="M 2194 1759 
Q 1497 1759 1228 1600 
Q 959 1441 959 1056 
Q 959 750 1161 570 
Q 1363 391 1709 391 
Q 2188 391 2477 730 
Q 2766 1069 2766 1631 
L 2766 1759 
L 2194 1759 
z
M 3341 1997 
L 3341 0 
L 2766 0 
L 2766 531 
Q 2569 213 2275 61 
Q 1981 -91 1556 -91 
Q 1019 -91 701 211 
Q 384 513 384 1019 
Q 384 1609 779 1909 
Q 1175 2209 1959 2209 
L 2766 2209 
L 2766 2266 
Q 2766 2663 2505 2880 
Q 2244 3097 1772 3097 
Q 1472 3097 1187 3025 
Q 903 2953 641 2809 
L 641 3341 
Q 956 3463 1253 3523 
Q 1550 3584 1831 3584 
Q 2591 3584 2966 3190 
Q 3341 2797 3341 1997 
z
" transform="scale(0.015625)"/>
       <path id="DejaVuSans-6e" d="M 3513 2113 
L 3513 0 
L 2938 0 
L 2938 2094 
Q 2938 2591 2744 2837 
Q 2550 3084 2163 3084 
Q 1697 3084 1428 2787 
Q 1159 2491 1159 1978 
L 1159 0 
L 581 0 
L 581 3500 
L 1159 3500 
L 1159 2956 
Q 1366 3272 1645 3428 
Q 1925 3584 2291 3584 
Q 2894 3584 3203 3211 
Q 3513 2838 3513 2113 
z
" transform="scale(0.015625)"/>
       <path id="DejaVuSans-65" d="M 3597 1894 
L 3597 1613 
L 953 1613 
Q 991 1019 1311 708 
Q 1631 397 2203 397 
Q 2534 397 2845 478 
Q 3156 559 3463 722 
L 3463 178 
Q 3153 47 2828 -22 
Q 2503 -91 2169 -91 
Q 1331 -91 842 396 
Q 353 884 353 1716 
Q 353 2575 817 3079 
Q 1281 3584 2069 3584 
Q 2775 3584 3186 3129 
Q 3597 2675 3597 1894 
z
M 3022 2063 
Q 3016 2534 2758 2815 
Q 2500 3097 2075 3097 
Q 1594 3097 1305 2825 
Q 1016 2553 972 2059 
L 3022 2063 
z
" transform="scale(0.015625)"/>
      </defs>
      <use xlink:href="#DejaVuSans-4f"/>
      <use xlink:href="#DejaVuSans-63" x="78.710938"/>
      <use xlink:href="#DejaVuSans-63" x="133.691406"/>
      <use xlink:href="#DejaVuSans-75" x="188.671875"/>
      <use xlink:href="#DejaVuSans-72" x="252.050781"/>
      <use xlink:href="#DejaVuSans-61" x="293.164062"/>
      <use xlink:href="#DejaVuSans-6e" x="354.443359"/>
      <use xlink:href="#DejaVuSans-63" x="417.822266"/>
      <use xlink:href="#DejaVuSans-65" x="472.802734"/>
     </g>
    </g>
   </g>
   <g id="line2d_12">
    <path d="M 84.189452 307.584 
L 84.189452 41.472 
" clip-path="url(#pd42ef05886)" style="fill: none; stroke: #ff0000; stroke-linecap: square"/>
   </g>
   <g id="line2d_13">
    <path d="M 57.6 249.284501 
L 219.927273 249.284501 
" clip-path="url(#pd42ef05886)" style="fill: none; stroke-dasharray: 3.7,1.6; stroke-dashoffset: 0; stroke: #000000"/>
   </g>
   <g id="line2d_14">
    <path d="M 57.6 190.985003 
L 219.927273 190.985003 
" clip-path="url(#pd42ef05886)" style="fill: none; stroke-dasharray: 3.7,1.6; stroke-dashoffset: 0; stroke: #000000"/>
   </g>
   <g id="line2d_15">
    <path d="M 57.6 132.685504 
L 219.927273 132.685504 
" clip-path="url(#pd42ef05886)" style="fill: none; stroke-dasharray: 3.7,1.6; stroke-dashoffset: 0; stroke: #000000"/>
   </g>
   <g id="line2d_16">
    <path d="M 57.6 74.386006 
L 219.927273 74.386006 
" clip-path="url(#pd42ef05886)" style="fill: none; stroke-dasharray: 3.7,1.6; stroke-dashoffset: 0; stroke: #000000"/>
   </g>
   <g id="patch_28">
    <path d="M 57.6 307.584 
L 57.6 41.472 
" style="fill: none; stroke: #000000; stroke-width: 0.8; stroke-linejoin: miter; stroke-linecap: square"/>
   </g>
   <g id="patch_29">
    <path d="M 219.927273 307.584 
L 219.927273 41.472 
" style="fill: none; stroke: #000000; stroke-width: 0.8; stroke-linejoin: miter; stroke-linecap: square"/>
   </g>
   <g id="patch_30">
    <path d="M 57.6 307.584 
L 219.927273 307.584 
" style="fill: none; stroke: #000000; stroke-width: 0.8; stroke-linejoin: miter; stroke-linecap: square"/>
   </g>
   <g id="patch_31">
    <path d="M 57.6 41.472 
L 219.927273 41.472 
" style="fill: none; stroke: #000000; stroke-width: 0.8; stroke-linejoin: miter; stroke-linecap: square"/>
   </g>
   <g id="text_13">
    <!-- LIFEsim -->
    <g transform="translate(115.771449 35.472) scale(0.12 -0.12)">
     <defs>
      <path id="DejaVuSans-4c" d="M 628 4666 
L 1259 4666 
L 1259 531 
L 3531 531 
L 3531 0 
L 628 0 
L 628 4666 
z
" transform="scale(0.015625)"/>
      <path id="DejaVuSans-49" d="M 628 4666 
L 1259 4666 
L 1259 0 
L 628 0 
L 628 4666 
z
" transform="scale(0.015625)"/>
      <path id="DejaVuSans-46" d="M 628 4666 
L 3309 4666 
L 3309 4134 
L 1259 4134 
L 1259 2759 
L 3109 2759 
L 3109 2228 
L 1259 2228 
L 1259 0 
L 628 0 
L 628 4666 
z
" transform="scale(0.015625)"/>
      <path id="DejaVuSans-45" d="M 628 4666 
L 3578 4666 
L 3578 4134 
L 1259 4134 
L 1259 2753 
L 3481 2753 
L 3481 2222 
L 1259 2222 
L 1259 531 
L 3634 531 
L 3634 0 
L 628 0 
L 628 4666 
z
" transform="scale(0.015625)"/>
      <path id="DejaVuSans-73" d="M 2834 3397 
L 2834 2853 
Q 2591 2978 2328 3040 
Q 2066 3103 1784 3103 
Q 1356 3103 1142 2972 
Q 928 2841 928 2578 
Q 928 2378 1081 2264 
Q 1234 2150 1697 2047 
L 1894 2003 
Q 2506 1872 2764 1633 
Q 3022 1394 3022 966 
Q 3022 478 2636 193 
Q 2250 -91 1575 -91 
Q 1294 -91 989 -36 
Q 684 19 347 128 
L 347 722 
Q 666 556 975 473 
Q 1284 391 1588 391 
Q 1994 391 2212 530 
Q 2431 669 2431 922 
Q 2431 1156 2273 1281 
Q 2116 1406 1581 1522 
L 1381 1569 
Q 847 1681 609 1914 
Q 372 2147 372 2553 
Q 372 3047 722 3315 
Q 1072 3584 1716 3584 
Q 2034 3584 2315 3537 
Q 2597 3491 2834 3397 
z
" transform="scale(0.015625)"/>
      <path id="DejaVuSans-69" d="M 603 3500 
L 1178 3500 
L 1178 0 
L 603 0 
L 603 3500 
z
M 603 4863 
L 1178 4863 
L 1178 4134 
L 603 4134 
L 603 4863 
z
" transform="scale(0.015625)"/>
      <path id="DejaVuSans-6d" d="M 3328 2828 
Q 3544 3216 3844 3400 
Q 4144 3584 4550 3584 
Q 5097 3584 5394 3201 
Q 5691 2819 5691 2113 
L 5691 0 
L 5113 0 
L 5113 2094 
Q 5113 2597 4934 2840 
Q 4756 3084 4391 3084 
Q 3944 3084 3684 2787 
Q 3425 2491 3425 1978 
L 3425 0 
L 2847 0 
L 2847 2094 
Q 2847 2600 2669 2842 
Q 2491 3084 2119 3084 
Q 1678 3084 1418 2786 
Q 1159 2488 1159 1978 
L 1159 0 
L 581 0 
L 581 3500 
L 1159 3500 
L 1159 2956 
Q 1356 3278 1631 3431 
Q 1906 3584 2284 3584 
Q 2666 3584 2933 3390 
Q 3200 3197 3328 2828 
z
" transform="scale(0.015625)"/>
     </defs>
     <use xlink:href="#DejaVuSans-4c"/>
     <use xlink:href="#DejaVuSans-49" x="55.712891"/>
     <use xlink:href="#DejaVuSans-46" x="85.205078"/>
     <use xlink:href="#DejaVuSans-45" x="142.724609"/>
     <use xlink:href="#DejaVuSans-73" x="205.908203"/>
     <use xlink:href="#DejaVuSans-69" x="258.007812"/>
     <use xlink:href="#DejaVuSans-6d" x="285.791016"/>
    </g>
   </g>
  </g>
  <g id="axes_2">
   <g id="patch_32">
    <path d="M 252.392727 307.584 
L 414.72 307.584 
L 414.72 41.472 
L 252.392727 41.472 
z
" style="fill: #ffffff"/>
   </g>
   <g id="patch_33">
    <path d="M 252.440938 307.584 
L 258.736107 307.584 
L 258.736107 67.847306 
L 252.440938 67.847306 
z
" clip-path="url(#p280a16562a)" style="fill: #0000ff; opacity: 0.9"/>
   </g>
   <g id="patch_34">
    <path d="M 258.736107 307.584 
L 265.031276 307.584 
L 265.031276 187.715653 
L 258.736107 187.715653 
z
" clip-path="url(#p280a16562a)" style="fill: #0000ff; opacity: 0.9"/>
   </g>
   <g id="patch_35">
    <path d="M 265.031276 307.584 
L 271.326445 307.584 
L 271.326445 237.28527 
L 265.031276 237.28527 
z
" clip-path="url(#p280a16562a)" style="fill: #0000ff; opacity: 0.9"/>
   </g>
   <g id="patch_36">
    <path d="M 271.326445 307.584 
L 277.621614 307.584 
L 277.621614 255.310585 
L 271.326445 255.310585 
z
" clip-path="url(#p280a16562a)" style="fill: #0000ff; opacity: 0.9"/>
   </g>
   <g id="patch_37">
    <path d="M 277.621614 307.584 
L 283.916783 307.584 
L 283.916783 261.018602 
L 277.621614 261.018602 
z
" clip-path="url(#p280a16562a)" style="fill: #0000ff; opacity: 0.9"/>
   </g>
   <g id="patch_38">
    <path d="M 283.916783 307.584 
L 290.211951 307.584 
L 290.211951 270.632104 
L 283.916783 270.632104 
z
" clip-path="url(#p280a16562a)" style="fill: #0000ff; opacity: 0.9"/>
   </g>
   <g id="patch_39">
    <path d="M 290.211951 307.584 
L 296.50712 307.584 
L 296.50712 277.541808 
L 290.211951 277.541808 
z
" clip-path="url(#p280a16562a)" style="fill: #0000ff; opacity: 0.9"/>
   </g>
   <g id="patch_40">
    <path d="M 296.50712 307.584 
L 302.802289 307.584 
L 302.802289 274.237167 
L 296.50712 274.237167 
z
" clip-path="url(#p280a16562a)" style="fill: #0000ff; opacity: 0.9"/>
   </g>
   <g id="patch_41">
    <path d="M 302.802289 307.584 
L 309.097458 307.584 
L 309.097458 285.6532 
L 302.802289 285.6532 
z
" clip-path="url(#p280a16562a)" style="fill: #0000ff; opacity: 0.9"/>
   </g>
   <g id="patch_42">
    <path d="M 309.097458 307.584 
L 315.392627 307.584 
L 315.392627 286.254044 
L 309.097458 286.254044 
z
" clip-path="url(#p280a16562a)" style="fill: #0000ff; opacity: 0.9"/>
   </g>
   <g id="patch_43">
    <path d="M 315.392627 307.584 
L 321.687796 307.584 
L 321.687796 295.266701 
L 315.392627 295.266701 
z
" clip-path="url(#p280a16562a)" style="fill: #0000ff; opacity: 0.9"/>
   </g>
   <g id="patch_44">
    <path d="M 321.687796 307.584 
L 327.982965 307.584 
L 327.982965 293.46417 
L 321.687796 293.46417 
z
" clip-path="url(#p280a16562a)" style="fill: #0000ff; opacity: 0.9"/>
   </g>
   <g id="patch_45">
    <path d="M 327.982965 307.584 
L 334.278134 307.584 
L 334.278134 297.069233 
L 327.982965 297.069233 
z
" clip-path="url(#p280a16562a)" style="fill: #0000ff; opacity: 0.9"/>
   </g>
   <g id="patch_46">
    <path d="M 334.278134 307.584 
L 340.573303 307.584 
L 340.573303 299.472608 
L 334.278134 299.472608 
z
" clip-path="url(#p280a16562a)" style="fill: #0000ff; opacity: 0.9"/>
   </g>
   <g id="patch_47">
    <path d="M 340.573303 307.584 
L 346.868472 307.584 
L 346.868472 300.073452 
L 340.573303 300.073452 
z
" clip-path="url(#p280a16562a)" style="fill: #0000ff; opacity: 0.9"/>
   </g>
   <g id="patch_48">
    <path d="M 346.868472 307.584 
L 353.163641 307.584 
L 353.163641 300.373874 
L 346.868472 300.373874 
z
" clip-path="url(#p280a16562a)" style="fill: #0000ff; opacity: 0.9"/>
   </g>
   <g id="patch_49">
    <path d="M 353.163641 307.584 
L 359.45881 307.584 
L 359.45881 303.678515 
L 353.163641 303.678515 
z
" clip-path="url(#p280a16562a)" style="fill: #0000ff; opacity: 0.9"/>
   </g>
   <g id="patch_50">
    <path d="M 359.45881 307.584 
L 365.753979 307.584 
L 365.753979 303.077671 
L 359.45881 303.077671 
z
" clip-path="url(#p280a16562a)" style="fill: #0000ff; opacity: 0.9"/>
   </g>
   <g id="patch_51">
    <path d="M 365.753979 307.584 
L 372.049148 307.584 
L 372.049148 303.678515 
L 365.753979 303.678515 
z
" clip-path="url(#p280a16562a)" style="fill: #0000ff; opacity: 0.9"/>
   </g>
   <g id="patch_52">
    <path d="M 372.049148 307.584 
L 378.344317 307.584 
L 378.344317 305.781468 
L 372.049148 305.781468 
z
" clip-path="url(#p280a16562a)" style="fill: #0000ff; opacity: 0.9"/>
   </g>
   <g id="patch_53">
    <path d="M 378.344317 307.584 
L 384.639485 307.584 
L 384.639485 306.08189 
L 378.344317 306.08189 
z
" clip-path="url(#p280a16562a)" style="fill: #0000ff; opacity: 0.9"/>
   </g>
   <g id="patch_54">
    <path d="M 384.639485 307.584 
L 390.934654 307.584 
L 390.934654 306.983156 
L 384.639485 306.983156 
z
" clip-path="url(#p280a16562a)" style="fill: #0000ff; opacity: 0.9"/>
   </g>
   <g id="patch_55">
    <path d="M 390.934654 307.584 
L 397.229823 307.584 
L 397.229823 306.382312 
L 390.934654 306.382312 
z
" clip-path="url(#p280a16562a)" style="fill: #0000ff; opacity: 0.9"/>
   </g>
   <g id="patch_56">
    <path d="M 397.229823 307.584 
L 403.524992 307.584 
L 403.524992 306.983156 
L 397.229823 306.983156 
z
" clip-path="url(#p280a16562a)" style="fill: #0000ff; opacity: 0.9"/>
   </g>
   <g id="patch_57">
    <path d="M 403.524992 307.584 
L 409.820161 307.584 
L 409.820161 306.08189 
L 403.524992 306.08189 
z
" clip-path="url(#p280a16562a)" style="fill: #0000ff; opacity: 0.9"/>
   </g>
   <g id="matplotlib.axis_3">
    <g id="xtick_7">
     <g id="line2d_17">
      <g>
       <use xlink:href="#ma2e4211278" x="252.392727" y="307.584" style="stroke: #000000; stroke-width: 0.8"/>
      </g>
     </g>
     <g id="text_14">
      <!-- 0 -->
      <g transform="translate(249.211477 322.182437) scale(0.1 -0.1)">
       <use xlink:href="#DejaVuSans-30"/>
      </g>
     </g>
    </g>
    <g id="xtick_8">
     <g id="line2d_18">
      <g>
       <use xlink:href="#ma2e4211278" x="260.509091" y="307.584" style="stroke: #000000; stroke-width: 0.8"/>
      </g>
     </g>
     <g id="text_15">
      <!-- 1 -->
      <g transform="translate(257.327841 322.182437) scale(0.1 -0.1)">
       <use xlink:href="#DejaVuSans-31"/>
      </g>
     </g>
    </g>
    <g id="xtick_9">
     <g id="line2d_19">
      <g>
       <use xlink:href="#ma2e4211278" x="292.974545" y="307.584" style="stroke: #000000; stroke-width: 0.8"/>
      </g>
     </g>
     <g id="text_16">
      <!-- 5 -->
      <g transform="translate(289.793295 322.182437) scale(0.1 -0.1)">
       <use xlink:href="#DejaVuSans-35"/>
      </g>
     </g>
    </g>
    <g id="xtick_10">
     <g id="line2d_20">
      <g>
       <use xlink:href="#ma2e4211278" x="333.556364" y="307.584" style="stroke: #000000; stroke-width: 0.8"/>
      </g>
     </g>
     <g id="text_17">
      <!-- 10 -->
      <g transform="translate(327.193864 322.182437) scale(0.1 -0.1)">
       <use xlink:href="#DejaVuSans-31"/>
       <use xlink:href="#DejaVuSans-30" x="63.623047"/>
      </g>
     </g>
    </g>
    <g id="xtick_11">
     <g id="line2d_21">
      <g>
       <use xlink:href="#ma2e4211278" x="374.138182" y="307.584" style="stroke: #000000; stroke-width: 0.8"/>
      </g>
     </g>
     <g id="text_18">
      <!-- 15 -->
      <g transform="translate(367.775682 322.182437) scale(0.1 -0.1)">
       <use xlink:href="#DejaVuSans-31"/>
       <use xlink:href="#DejaVuSans-35" x="63.623047"/>
      </g>
     </g>
    </g>
    <g id="xtick_12">
     <g id="line2d_22">
      <g>
       <use xlink:href="#ma2e4211278" x="414.72" y="307.584" style="stroke: #000000; stroke-width: 0.8"/>
      </g>
     </g>
     <g id="text_19">
      <!-- 20 -->
      <g transform="translate(408.3575 322.182437) scale(0.1 -0.1)">
       <use xlink:href="#DejaVuSans-32"/>
       <use xlink:href="#DejaVuSans-30" x="63.623047"/>
      </g>
     </g>
    </g>
   </g>
   <g id="matplotlib.axis_4">
    <g id="ytick_6">
     <g id="line2d_23">
      <g>
       <use xlink:href="#m2972745504" x="252.392727" y="307.584" style="stroke: #000000; stroke-width: 0.8"/>
      </g>
     </g>
    </g>
    <g id="ytick_7">
     <g id="line2d_24">
      <g>
       <use xlink:href="#m2972745504" x="252.392727" y="249.284501" style="stroke: #000000; stroke-width: 0.8"/>
      </g>
     </g>
    </g>
    <g id="ytick_8">
     <g id="line2d_25">
      <g>
       <use xlink:href="#m2972745504" x="252.392727" y="190.985003" style="stroke: #000000; stroke-width: 0.8"/>
      </g>
     </g>
    </g>
    <g id="ytick_9">
     <g id="line2d_26">
      <g>
       <use xlink:href="#m2972745504" x="252.392727" y="132.685504" style="stroke: #000000; stroke-width: 0.8"/>
      </g>
     </g>
    </g>
    <g id="ytick_10">
     <g id="line2d_27">
      <g>
       <use xlink:href="#m2972745504" x="252.392727" y="74.386006" style="stroke: #000000; stroke-width: 0.8"/>
      </g>
     </g>
    </g>
   </g>
   <g id="line2d_28">
    <path d="M 277.543861 307.584 
L 277.543861 41.472 
" clip-path="url(#p280a16562a)" style="fill: none; stroke: #ff0000; stroke-linecap: square"/>
   </g>
   <g id="line2d_29">
    <path d="M 252.392727 249.284501 
L 414.72 249.284501 
" clip-path="url(#p280a16562a)" style="fill: none; stroke-dasharray: 3.7,1.6; stroke-dashoffset: 0; stroke: #000000"/>
   </g>
   <g id="line2d_30">
    <path d="M 252.392727 190.985003 
L 414.72 190.985003 
" clip-path="url(#p280a16562a)" style="fill: none; stroke-dasharray: 3.7,1.6; stroke-dashoffset: 0; stroke: #000000"/>
   </g>
   <g id="line2d_31">
    <path d="M 252.392727 132.685504 
L 414.72 132.685504 
" clip-path="url(#p280a16562a)" style="fill: none; stroke-dasharray: 3.7,1.6; stroke-dashoffset: 0; stroke: #000000"/>
   </g>
   <g id="line2d_32">
    <path d="M 252.392727 74.386006 
L 414.72 74.386006 
" clip-path="url(#p280a16562a)" style="fill: none; stroke-dasharray: 3.7,1.6; stroke-dashoffset: 0; stroke: #000000"/>
   </g>
   <g id="patch_58">
    <path d="M 252.392727 307.584 
L 252.392727 41.472 
" style="fill: none; stroke: #000000; stroke-width: 0.8; stroke-linejoin: miter; stroke-linecap: square"/>
   </g>
   <g id="patch_59">
    <path d="M 414.72 307.584 
L 414.72 41.472 
" style="fill: none; stroke: #000000; stroke-width: 0.8; stroke-linejoin: miter; stroke-linecap: square"/>
   </g>
   <g id="patch_60">
    <path d="M 252.392727 307.584 
L 414.72 307.584 
" style="fill: none; stroke: #000000; stroke-width: 0.8; stroke-linejoin: miter; stroke-linecap: square"/>
   </g>
   <g id="patch_61">
    <path d="M 252.392727 41.472 
L 414.72 41.472 
" style="fill: none; stroke: #000000; stroke-width: 0.8; stroke-linejoin: miter; stroke-linecap: square"/>
   </g>
   <g id="text_20">
    <!-- ExoSim -->
    <g transform="translate(311.409801 35.472) scale(0.12 -0.12)">
     <defs>
      <path id="DejaVuSans-78" d="M 3513 3500 
L 2247 1797 
L 3578 0 
L 2900 0 
L 1881 1375 
L 863 0 
L 184 0 
L 1544 1831 
L 300 3500 
L 978 3500 
L 1906 2253 
L 2834 3500 
L 3513 3500 
z
" transform="scale(0.015625)"/>
      <path id="DejaVuSans-6f" d="M 1959 3097 
Q 1497 3097 1228 2736 
Q 959 2375 959 1747 
Q 959 1119 1226 758 
Q 1494 397 1959 397 
Q 2419 397 2687 759 
Q 2956 1122 2956 1747 
Q 2956 2369 2687 2733 
Q 2419 3097 1959 3097 
z
M 1959 3584 
Q 2709 3584 3137 3096 
Q 3566 2609 3566 1747 
Q 3566 888 3137 398 
Q 2709 -91 1959 -91 
Q 1206 -91 779 398 
Q 353 888 353 1747 
Q 353 2609 779 3096 
Q 1206 3584 1959 3584 
z
" transform="scale(0.015625)"/>
      <path id="DejaVuSans-53" d="M 3425 4513 
L 3425 3897 
Q 3066 4069 2747 4153 
Q 2428 4238 2131 4238 
Q 1616 4238 1336 4038 
Q 1056 3838 1056 3469 
Q 1056 3159 1242 3001 
Q 1428 2844 1947 2747 
L 2328 2669 
Q 3034 2534 3370 2195 
Q 3706 1856 3706 1288 
Q 3706 609 3251 259 
Q 2797 -91 1919 -91 
Q 1588 -91 1214 -16 
Q 841 59 441 206 
L 441 856 
Q 825 641 1194 531 
Q 1563 422 1919 422 
Q 2459 422 2753 634 
Q 3047 847 3047 1241 
Q 3047 1584 2836 1778 
Q 2625 1972 2144 2069 
L 1759 2144 
Q 1053 2284 737 2584 
Q 422 2884 422 3419 
Q 422 4038 858 4394 
Q 1294 4750 2059 4750 
Q 2388 4750 2728 4690 
Q 3069 4631 3425 4513 
z
" transform="scale(0.015625)"/>
     </defs>
     <use xlink:href="#DejaVuSans-45"/>
     <use xlink:href="#DejaVuSans-78" x="63.183594"/>
     <use xlink:href="#DejaVuSans-6f" x="119.238281"/>
     <use xlink:href="#DejaVuSans-53" x="180.419922"/>
     <use xlink:href="#DejaVuSans-69" x="243.896484"/>
     <use xlink:href="#DejaVuSans-6d" x="271.679688"/>
    </g>
   </g>
  </g>
  <g id="text_21">
   <!-- Planet Distance [AU] -->
   <g transform="translate(178.704688 334.535375) scale(0.1 -0.1)">
    <defs>
     <path id="DejaVuSans-50" d="M 1259 4147 
L 1259 2394 
L 2053 2394 
Q 2494 2394 2734 2622 
Q 2975 2850 2975 3272 
Q 2975 3691 2734 3919 
Q 2494 4147 2053 4147 
L 1259 4147 
z
M 628 4666 
L 2053 4666 
Q 2838 4666 3239 4311 
Q 3641 3956 3641 3272 
Q 3641 2581 3239 2228 
Q 2838 1875 2053 1875 
L 1259 1875 
L 1259 0 
L 628 0 
L 628 4666 
z
" transform="scale(0.015625)"/>
     <path id="DejaVuSans-6c" d="M 603 4863 
L 1178 4863 
L 1178 0 
L 603 0 
L 603 4863 
z
" transform="scale(0.015625)"/>
     <path id="DejaVuSans-74" d="M 1172 4494 
L 1172 3500 
L 2356 3500 
L 2356 3053 
L 1172 3053 
L 1172 1153 
Q 1172 725 1289 603 
Q 1406 481 1766 481 
L 2356 481 
L 2356 0 
L 1766 0 
Q 1100 0 847 248 
Q 594 497 594 1153 
L 594 3053 
L 172 3053 
L 172 3500 
L 594 3500 
L 594 4494 
L 1172 4494 
z
" transform="scale(0.015625)"/>
     <path id="DejaVuSans-20" transform="scale(0.015625)"/>
     <path id="DejaVuSans-44" d="M 1259 4147 
L 1259 519 
L 2022 519 
Q 2988 519 3436 956 
Q 3884 1394 3884 2338 
Q 3884 3275 3436 3711 
Q 2988 4147 2022 4147 
L 1259 4147 
z
M 628 4666 
L 1925 4666 
Q 3281 4666 3915 4102 
Q 4550 3538 4550 2338 
Q 4550 1131 3912 565 
Q 3275 0 1925 0 
L 628 0 
L 628 4666 
z
" transform="scale(0.015625)"/>
     <path id="DejaVuSans-5b" d="M 550 4863 
L 1875 4863 
L 1875 4416 
L 1125 4416 
L 1125 -397 
L 1875 -397 
L 1875 -844 
L 550 -844 
L 550 4863 
z
" transform="scale(0.015625)"/>
     <path id="DejaVuSans-41" d="M 2188 4044 
L 1331 1722 
L 3047 1722 
L 2188 4044 
z
M 1831 4666 
L 2547 4666 
L 4325 0 
L 3669 0 
L 3244 1197 
L 1141 1197 
L 716 0 
L 50 0 
L 1831 4666 
z
" transform="scale(0.015625)"/>
     <path id="DejaVuSans-55" d="M 556 4666 
L 1191 4666 
L 1191 1831 
Q 1191 1081 1462 751 
Q 1734 422 2344 422 
Q 2950 422 3222 751 
Q 3494 1081 3494 1831 
L 3494 4666 
L 4128 4666 
L 4128 1753 
Q 4128 841 3676 375 
Q 3225 -91 2344 -91 
Q 1459 -91 1007 375 
Q 556 841 556 1753 
L 556 4666 
z
" transform="scale(0.015625)"/>
     <path id="DejaVuSans-5d" d="M 1947 4863 
L 1947 -844 
L 622 -844 
L 622 -397 
L 1369 -397 
L 1369 4416 
L 622 4416 
L 622 4863 
L 1947 4863 
z
" transform="scale(0.015625)"/>
    </defs>
    <use xlink:href="#DejaVuSans-50"/>
    <use xlink:href="#DejaVuSans-6c" x="60.302734"/>
    <use xlink:href="#DejaVuSans-61" x="88.085938"/>
    <use xlink:href="#DejaVuSans-6e" x="149.365234"/>
    <use xlink:href="#DejaVuSans-65" x="212.744141"/>
    <use xlink:href="#DejaVuSans-74" x="274.267578"/>
    <use xlink:href="#DejaVuSans-20" x="313.476562"/>
    <use xlink:href="#DejaVuSans-44" x="345.263672"/>
    <use xlink:href="#DejaVuSans-69" x="422.265625"/>
    <use xlink:href="#DejaVuSans-73" x="450.048828"/>
    <use xlink:href="#DejaVuSans-74" x="502.148438"/>
    <use xlink:href="#DejaVuSans-61" x="541.357422"/>
    <use xlink:href="#DejaVuSans-6e" x="602.636719"/>
    <use xlink:href="#DejaVuSans-63" x="666.015625"/>
    <use xlink:href="#DejaVuSans-65" x="720.996094"/>
    <use xlink:href="#DejaVuSans-20" x="782.519531"/>
    <use xlink:href="#DejaVuSans-5b" x="814.306641"/>
    <use xlink:href="#DejaVuSans-41" x="853.320312"/>
    <use xlink:href="#DejaVuSans-55" x="921.728516"/>
    <use xlink:href="#DejaVuSans-5d" x="994.921875"/>
   </g>
  </g>
  <g id="text_22">
   <!-- Distribution Distance Planets -->
   <g transform="translate(114.42 19.0695) scale(0.16 -0.16)">
    <defs>
     <path id="DejaVuSans-62" d="M 3116 1747 
Q 3116 2381 2855 2742 
Q 2594 3103 2138 3103 
Q 1681 3103 1420 2742 
Q 1159 2381 1159 1747 
Q 1159 1113 1420 752 
Q 1681 391 2138 391 
Q 2594 391 2855 752 
Q 3116 1113 3116 1747 
z
M 1159 2969 
Q 1341 3281 1617 3432 
Q 1894 3584 2278 3584 
Q 2916 3584 3314 3078 
Q 3713 2572 3713 1747 
Q 3713 922 3314 415 
Q 2916 -91 2278 -91 
Q 1894 -91 1617 61 
Q 1341 213 1159 525 
L 1159 0 
L 581 0 
L 581 4863 
L 1159 4863 
L 1159 2969 
z
" transform="scale(0.015625)"/>
    </defs>
    <use xlink:href="#DejaVuSans-44"/>
    <use xlink:href="#DejaVuSans-69" x="77.001953"/>
    <use xlink:href="#DejaVuSans-73" x="104.785156"/>
    <use xlink:href="#DejaVuSans-74" x="156.884766"/>
    <use xlink:href="#DejaVuSans-72" x="196.09375"/>
    <use xlink:href="#DejaVuSans-69" x="237.207031"/>
    <use xlink:href="#DejaVuSans-62" x="264.990234"/>
    <use xlink:href="#DejaVuSans-75" x="328.466797"/>
    <use xlink:href="#DejaVuSans-74" x="391.845703"/>
    <use xlink:href="#DejaVuSans-69" x="431.054688"/>
    <use xlink:href="#DejaVuSans-6f" x="458.837891"/>
    <use xlink:href="#DejaVuSans-6e" x="520.019531"/>
    <use xlink:href="#DejaVuSans-20" x="583.398438"/>
    <use xlink:href="#DejaVuSans-44" x="615.185547"/>
    <use xlink:href="#DejaVuSans-69" x="692.1875"/>
    <use xlink:href="#DejaVuSans-73" x="719.970703"/>
    <use xlink:href="#DejaVuSans-74" x="772.070312"/>
    <use xlink:href="#DejaVuSans-61" x="811.279297"/>
    <use xlink:href="#DejaVuSans-6e" x="872.558594"/>
    <use xlink:href="#DejaVuSans-63" x="935.9375"/>
    <use xlink:href="#DejaVuSans-65" x="990.917969"/>
    <use xlink:href="#DejaVuSans-20" x="1052.441406"/>
    <use xlink:href="#DejaVuSans-50" x="1084.228516"/>
    <use xlink:href="#DejaVuSans-6c" x="1144.53125"/>
    <use xlink:href="#DejaVuSans-61" x="1172.314453"/>
    <use xlink:href="#DejaVuSans-6e" x="1233.59375"/>
    <use xlink:href="#DejaVuSans-65" x="1296.972656"/>
    <use xlink:href="#DejaVuSans-74" x="1358.496094"/>
    <use xlink:href="#DejaVuSans-73" x="1397.705078"/>
   </g>
  </g>
 </g>
 <defs>
  <clipPath id="pd42ef05886">
   <rect x="57.6" y="41.472" width="162.327273" height="266.112"/>
  </clipPath>
  <clipPath id="p280a16562a">
   <rect x="252.392727" y="41.472" width="162.327273" height="266.112"/>
  </clipPath>
 </defs>
</svg>
