<?xml version="1.0" encoding="utf-8" standalone="no"?>
<!DOCTYPE svg PUBLIC "-//W3C//DTD SVG 1.1//EN"
  "http://www.w3.org/Graphics/SVG/1.1/DTD/svg11.dtd">
<svg xmlns:xlink="http://www.w3.org/1999/xlink" width="460.8pt" height="345.6pt" viewBox="0 0 460.8 345.6" xmlns="http://www.w3.org/2000/svg" version="1.1">
 <metadata>
  <rdf:RDF xmlns:dc="http://purl.org/dc/elements/1.1/" xmlns:cc="http://creativecommons.org/ns#" xmlns:rdf="http://www.w3.org/1999/02/22-rdf-syntax-ns#">
   <cc:Work>
    <dc:type rdf:resource="http://purl.org/dc/dcmitype/StillImage"/>
    <dc:date>2023-06-22T17:02:35.127688</dc:date>
    <dc:format>image/svg+xml</dc:format>
    <dc:creator>
     <cc:Agent>
      <dc:title>Matplotlib v3.7.1, https://matplotlib.org/</dc:title>
     </cc:Agent>
    </dc:creator>
   </cc:Work>
  </rdf:RDF>
 </metadata>
 <defs>
  <style type="text/css">*{stroke-linejoin: round; stroke-linecap: butt}</style>
 </defs>
 <g id="figure_1">
  <g id="patch_1">
   <path d="M 0 345.6 
L 460.8 345.6 
L 460.8 0 
L 0 0 
z
" style="fill: #ffffff"/>
  </g>
  <g id="axes_1">
   <g id="patch_2">
    <path d="M 57.6 307.584 
L 219.927273 307.584 
L 219.927273 41.472 
L 57.6 41.472 
z
" style="fill: #ffffff"/>
   </g>
   <g id="patch_3">
    <path d="M 98.181838 307.584 
L 100.377663 307.584 
L 100.377663 103.044544 
L 98.181838 103.044544 
z
" clip-path="url(#pe09d4b5687)" style="fill: #008000; opacity: 0.9"/>
   </g>
   <g id="patch_4">
    <path d="M 100.377663 307.584 
L 102.573488 307.584 
L 102.573488 104.026665 
L 100.377663 104.026665 
z
" clip-path="url(#pe09d4b5687)" style="fill: #008000; opacity: 0.9"/>
   </g>
   <g id="patch_5">
    <path d="M 102.573488 307.584 
L 104.769313 307.584 
L 104.769313 107.283169 
L 102.573488 107.283169 
z
" clip-path="url(#pe09d4b5687)" style="fill: #008000; opacity: 0.9"/>
   </g>
   <g id="patch_6">
    <path d="M 104.769313 307.584 
L 106.965138 307.584 
L 106.965138 99.426207 
L 104.769313 99.426207 
z
" clip-path="url(#pe09d4b5687)" style="fill: #008000; opacity: 0.9"/>
   </g>
   <g id="patch_7">
    <path d="M 106.965138 307.584 
L 109.160963 307.584 
L 109.160963 100.563399 
L 106.965138 100.563399 
z
" clip-path="url(#pe09d4b5687)" style="fill: #008000; opacity: 0.9"/>
   </g>
   <g id="patch_8">
    <path d="M 109.160963 307.584 
L 111.356789 307.584 
L 111.356789 88.571194 
L 109.160963 88.571194 
z
" clip-path="url(#pe09d4b5687)" style="fill: #008000; opacity: 0.9"/>
   </g>
   <g id="patch_9">
    <path d="M 111.356789 307.584 
L 113.552614 307.584 
L 113.552614 75.183345 
L 111.356789 75.183345 
z
" clip-path="url(#pe09d4b5687)" style="fill: #008000; opacity: 0.9"/>
   </g>
   <g id="patch_10">
    <path d="M 113.552614 307.584 
L 115.748439 307.584 
L 115.748439 73.477557 
L 113.552614 73.477557 
z
" clip-path="url(#pe09d4b5687)" style="fill: #008000; opacity: 0.9"/>
   </g>
   <g id="patch_11">
    <path d="M 115.748439 307.584 
L 117.944264 307.584 
L 117.944264 188.385621 
L 115.748439 188.385621 
z
" clip-path="url(#pe09d4b5687)" style="fill: #008000; opacity: 0.9"/>
   </g>
   <g id="patch_12">
    <path d="M 117.944264 307.584 
L 120.140089 307.584 
L 120.140089 234.028366 
L 117.944264 234.028366 
z
" clip-path="url(#pe09d4b5687)" style="fill: #008000; opacity: 0.9"/>
   </g>
   <g id="patch_13">
    <path d="M 120.140089 307.584 
L 122.335914 307.584 
L 122.335914 234.700343 
L 120.140089 234.700343 
z
" clip-path="url(#pe09d4b5687)" style="fill: #008000; opacity: 0.9"/>
   </g>
   <g id="patch_14">
    <path d="M 122.335914 307.584 
L 124.531739 307.584 
L 124.531739 277.75856 
L 122.335914 277.75856 
z
" clip-path="url(#pe09d4b5687)" style="fill: #008000; opacity: 0.9"/>
   </g>
   <g id="patch_15">
    <path d="M 124.531739 307.584 
L 126.727564 307.584 
L 126.727564 283.134376 
L 124.531739 283.134376 
z
" clip-path="url(#pe09d4b5687)" style="fill: #008000; opacity: 0.9"/>
   </g>
   <g id="patch_16">
    <path d="M 126.727564 307.584 
L 128.923389 307.584 
L 128.923389 284.47833 
L 126.727564 284.47833 
z
" clip-path="url(#pe09d4b5687)" style="fill: #008000; opacity: 0.9"/>
   </g>
   <g id="patch_17">
    <path d="M 128.923389 307.584 
L 131.119214 307.584 
L 131.119214 283.289448 
L 128.923389 283.289448 
z
" clip-path="url(#pe09d4b5687)" style="fill: #008000; opacity: 0.9"/>
   </g>
   <g id="patch_18">
    <path d="M 131.119214 307.584 
L 133.315039 307.584 
L 133.315039 285.098616 
L 131.119214 285.098616 
z
" clip-path="url(#pe09d4b5687)" style="fill: #008000; opacity: 0.9"/>
   </g>
   <g id="patch_19">
    <path d="M 133.315039 307.584 
L 135.510864 307.584 
L 135.510864 281.945494 
L 133.315039 281.945494 
z
" clip-path="url(#pe09d4b5687)" style="fill: #008000; opacity: 0.9"/>
   </g>
   <g id="patch_20">
    <path d="M 135.510864 307.584 
L 137.706689 307.584 
L 137.706689 273.830079 
L 135.510864 273.830079 
z
" clip-path="url(#pe09d4b5687)" style="fill: #008000; opacity: 0.9"/>
   </g>
   <g id="patch_21">
    <path d="M 137.706689 307.584 
L 139.902514 307.584 
L 139.902514 272.95134 
L 137.706689 272.95134 
z
" clip-path="url(#pe09d4b5687)" style="fill: #008000; opacity: 0.9"/>
   </g>
   <g id="patch_22">
    <path d="M 139.902514 307.584 
L 142.098339 307.584 
L 142.098339 284.426639 
L 139.902514 284.426639 
z
" clip-path="url(#pe09d4b5687)" style="fill: #008000; opacity: 0.9"/>
   </g>
   <g id="patch_23">
    <path d="M 142.098339 307.584 
L 144.294164 307.584 
L 144.294164 292.438673 
L 142.098339 292.438673 
z
" clip-path="url(#pe09d4b5687)" style="fill: #008000; opacity: 0.9"/>
   </g>
   <g id="patch_24">
    <path d="M 144.294164 307.584 
L 146.489989 307.584 
L 146.489989 291.663315 
L 144.294164 291.663315 
z
" clip-path="url(#pe09d4b5687)" style="fill: #008000; opacity: 0.9"/>
   </g>
   <g id="patch_25">
    <path d="M 146.489989 307.584 
L 148.685814 307.584 
L 148.685814 299.985491 
L 146.489989 299.985491 
z
" clip-path="url(#pe09d4b5687)" style="fill: #008000; opacity: 0.9"/>
   </g>
   <g id="patch_26">
    <path d="M 148.685814 307.584 
L 150.881639 307.584 
L 150.881639 302.259875 
L 148.685814 302.259875 
z
" clip-path="url(#pe09d4b5687)" style="fill: #008000; opacity: 0.9"/>
   </g>
   <g id="patch_27">
    <path d="M 150.881639 307.584 
L 153.077464 307.584 
L 153.077464 302.518327 
L 150.881639 302.518327 
z
" clip-path="url(#pe09d4b5687)" style="fill: #008000; opacity: 0.9"/>
   </g>
   <g id="matplotlib.axis_1">
    <g id="xtick_1">
     <g id="line2d_1">
      <defs>
       <path id="mfaa1d870cf" d="M 0 0 
L 0 3.5 
" style="stroke: #000000; stroke-width: 0.8"/>
      </defs>
      <g>
       <use xlink:href="#mfaa1d870cf" x="57.6" y="307.584" style="stroke: #000000; stroke-width: 0.8"/>
      </g>
     </g>
     <g id="text_1">
      <!-- −1 -->
      <g transform="translate(50.228906 322.182437) scale(0.1 -0.1)">
       <defs>
        <path id="DejaVuSans-2212" d="M 678 2272 
L 4684 2272 
L 4684 1741 
L 678 1741 
L 678 2272 
z
" transform="scale(0.015625)"/>
        <path id="DejaVuSans-31" d="M 794 531 
L 1825 531 
L 1825 4091 
L 703 3866 
L 703 4441 
L 1819 4666 
L 2450 4666 
L 2450 531 
L 3481 531 
L 3481 0 
L 794 0 
L 794 531 
z
" transform="scale(0.015625)"/>
       </defs>
       <use xlink:href="#DejaVuSans-2212"/>
       <use xlink:href="#DejaVuSans-31" x="83.789062"/>
      </g>
     </g>
    </g>
    <g id="xtick_2">
     <g id="line2d_2">
      <g>
       <use xlink:href="#mfaa1d870cf" x="98.181818" y="307.584" style="stroke: #000000; stroke-width: 0.8"/>
      </g>
     </g>
     <g id="text_2">
      <!-- 0 -->
      <g transform="translate(95.000568 322.182437) scale(0.1 -0.1)">
       <defs>
        <path id="DejaVuSans-30" d="M 2034 4250 
Q 1547 4250 1301 3770 
Q 1056 3291 1056 2328 
Q 1056 1369 1301 889 
Q 1547 409 2034 409 
Q 2525 409 2770 889 
Q 3016 1369 3016 2328 
Q 3016 3291 2770 3770 
Q 2525 4250 2034 4250 
z
M 2034 4750 
Q 2819 4750 3233 4129 
Q 3647 3509 3647 2328 
Q 3647 1150 3233 529 
Q 2819 -91 2034 -91 
Q 1250 -91 836 529 
Q 422 1150 422 2328 
Q 422 3509 836 4129 
Q 1250 4750 2034 4750 
z
" transform="scale(0.015625)"/>
       </defs>
       <use xlink:href="#DejaVuSans-30"/>
      </g>
     </g>
    </g>
    <g id="xtick_3">
     <g id="line2d_3">
      <g>
       <use xlink:href="#mfaa1d870cf" x="138.763636" y="307.584" style="stroke: #000000; stroke-width: 0.8"/>
      </g>
     </g>
     <g id="text_3">
      <!-- 1 -->
      <g transform="translate(135.582386 322.182437) scale(0.1 -0.1)">
       <use xlink:href="#DejaVuSans-31"/>
      </g>
     </g>
    </g>
    <g id="xtick_4">
     <g id="line2d_4">
      <g>
       <use xlink:href="#mfaa1d870cf" x="138.763636" y="307.584" style="stroke: #000000; stroke-width: 0.8"/>
      </g>
     </g>
     <g id="text_4">
      <!-- 1 -->
      <g transform="translate(135.582386 322.182437) scale(0.1 -0.1)">
       <use xlink:href="#DejaVuSans-31"/>
      </g>
     </g>
    </g>
    <g id="xtick_5">
     <g id="line2d_5">
      <g>
       <use xlink:href="#mfaa1d870cf" x="179.345455" y="307.584" style="stroke: #000000; stroke-width: 0.8"/>
      </g>
     </g>
     <g id="text_5">
      <!-- 2 -->
      <g transform="translate(176.164205 322.182437) scale(0.1 -0.1)">
       <defs>
        <path id="DejaVuSans-32" d="M 1228 531 
L 3431 531 
L 3431 0 
L 469 0 
L 469 531 
Q 828 903 1448 1529 
Q 2069 2156 2228 2338 
Q 2531 2678 2651 2914 
Q 2772 3150 2772 3378 
Q 2772 3750 2511 3984 
Q 2250 4219 1831 4219 
Q 1534 4219 1204 4116 
Q 875 4013 500 3803 
L 500 4441 
Q 881 4594 1212 4672 
Q 1544 4750 1819 4750 
Q 2544 4750 2975 4387 
Q 3406 4025 3406 3419 
Q 3406 3131 3298 2873 
Q 3191 2616 2906 2266 
Q 2828 2175 2409 1742 
Q 1991 1309 1228 531 
z
" transform="scale(0.015625)"/>
       </defs>
       <use xlink:href="#DejaVuSans-32"/>
      </g>
     </g>
    </g>
    <g id="xtick_6">
     <g id="line2d_6">
      <g>
       <use xlink:href="#mfaa1d870cf" x="219.927273" y="307.584" style="stroke: #000000; stroke-width: 0.8"/>
      </g>
     </g>
     <g id="text_6">
      <!-- 3 -->
      <g transform="translate(216.746023 322.182437) scale(0.1 -0.1)">
       <defs>
        <path id="DejaVuSans-33" d="M 2597 2516 
Q 3050 2419 3304 2112 
Q 3559 1806 3559 1356 
Q 3559 666 3084 287 
Q 2609 -91 1734 -91 
Q 1441 -91 1130 -33 
Q 819 25 488 141 
L 488 750 
Q 750 597 1062 519 
Q 1375 441 1716 441 
Q 2309 441 2620 675 
Q 2931 909 2931 1356 
Q 2931 1769 2642 2001 
Q 2353 2234 1838 2234 
L 1294 2234 
L 1294 2753 
L 1863 2753 
Q 2328 2753 2575 2939 
Q 2822 3125 2822 3475 
Q 2822 3834 2567 4026 
Q 2313 4219 1838 4219 
Q 1578 4219 1281 4162 
Q 984 4106 628 3988 
L 628 4550 
Q 988 4650 1302 4700 
Q 1616 4750 1894 4750 
Q 2613 4750 3031 4423 
Q 3450 4097 3450 3541 
Q 3450 3153 3228 2886 
Q 3006 2619 2597 2516 
z
" transform="scale(0.015625)"/>
       </defs>
       <use xlink:href="#DejaVuSans-33"/>
      </g>
     </g>
    </g>
   </g>
   <g id="matplotlib.axis_2">
    <g id="ytick_1">
     <g id="line2d_7">
      <defs>
       <path id="m2837cec5bb" d="M 0 0 
L -3.5 0 
" style="stroke: #000000; stroke-width: 0.8"/>
      </defs>
      <g>
       <use xlink:href="#m2837cec5bb" x="57.6" y="307.584" style="stroke: #000000; stroke-width: 0.8"/>
      </g>
     </g>
     <g id="text_7">
      <!-- 0.00 -->
      <g transform="translate(28.334375 311.383219) scale(0.1 -0.1)">
       <defs>
        <path id="DejaVuSans-2e" d="M 684 794 
L 1344 794 
L 1344 0 
L 684 0 
L 684 794 
z
" transform="scale(0.015625)"/>
       </defs>
       <use xlink:href="#DejaVuSans-30"/>
       <use xlink:href="#DejaVuSans-2e" x="63.623047"/>
       <use xlink:href="#DejaVuSans-30" x="95.410156"/>
       <use xlink:href="#DejaVuSans-30" x="159.033203"/>
      </g>
     </g>
    </g>
    <g id="ytick_2">
     <g id="line2d_8">
      <g>
       <use xlink:href="#m2837cec5bb" x="57.6" y="276.943238" style="stroke: #000000; stroke-width: 0.8"/>
      </g>
     </g>
     <g id="text_8">
      <!-- 0.25 -->
      <g transform="translate(28.334375 280.742456) scale(0.1 -0.1)">
       <defs>
        <path id="DejaVuSans-35" d="M 691 4666 
L 3169 4666 
L 3169 4134 
L 1269 4134 
L 1269 2991 
Q 1406 3038 1543 3061 
Q 1681 3084 1819 3084 
Q 2600 3084 3056 2656 
Q 3513 2228 3513 1497 
Q 3513 744 3044 326 
Q 2575 -91 1722 -91 
Q 1428 -91 1123 -41 
Q 819 9 494 109 
L 494 744 
Q 775 591 1075 516 
Q 1375 441 1709 441 
Q 2250 441 2565 725 
Q 2881 1009 2881 1497 
Q 2881 1984 2565 2268 
Q 2250 2553 1709 2553 
Q 1456 2553 1204 2497 
Q 953 2441 691 2322 
L 691 4666 
z
" transform="scale(0.015625)"/>
       </defs>
       <use xlink:href="#DejaVuSans-30"/>
       <use xlink:href="#DejaVuSans-2e" x="63.623047"/>
       <use xlink:href="#DejaVuSans-32" x="95.410156"/>
       <use xlink:href="#DejaVuSans-35" x="159.033203"/>
      </g>
     </g>
    </g>
    <g id="ytick_3">
     <g id="line2d_9">
      <g>
       <use xlink:href="#m2837cec5bb" x="57.6" y="246.302475" style="stroke: #000000; stroke-width: 0.8"/>
      </g>
     </g>
     <g id="text_9">
      <!-- 0.50 -->
      <g transform="translate(28.334375 250.101694) scale(0.1 -0.1)">
       <use xlink:href="#DejaVuSans-30"/>
       <use xlink:href="#DejaVuSans-2e" x="63.623047"/>
       <use xlink:href="#DejaVuSans-35" x="95.410156"/>
       <use xlink:href="#DejaVuSans-30" x="159.033203"/>
      </g>
     </g>
    </g>
    <g id="ytick_4">
     <g id="line2d_10">
      <g>
       <use xlink:href="#m2837cec5bb" x="57.6" y="215.661713" style="stroke: #000000; stroke-width: 0.8"/>
      </g>
     </g>
     <g id="text_10">
      <!-- 0.75 -->
      <g transform="translate(28.334375 219.460931) scale(0.1 -0.1)">
       <defs>
        <path id="DejaVuSans-37" d="M 525 4666 
L 3525 4666 
L 3525 4397 
L 1831 0 
L 1172 0 
L 2766 4134 
L 525 4134 
L 525 4666 
z
" transform="scale(0.015625)"/>
       </defs>
       <use xlink:href="#DejaVuSans-30"/>
       <use xlink:href="#DejaVuSans-2e" x="63.623047"/>
       <use xlink:href="#DejaVuSans-37" x="95.410156"/>
       <use xlink:href="#DejaVuSans-35" x="159.033203"/>
      </g>
     </g>
    </g>
    <g id="ytick_5">
     <g id="line2d_11">
      <g>
       <use xlink:href="#m2837cec5bb" x="57.6" y="185.02095" style="stroke: #000000; stroke-width: 0.8"/>
      </g>
     </g>
     <g id="text_11">
      <!-- 1.00 -->
      <g transform="translate(28.334375 188.820169) scale(0.1 -0.1)">
       <use xlink:href="#DejaVuSans-31"/>
       <use xlink:href="#DejaVuSans-2e" x="63.623047"/>
       <use xlink:href="#DejaVuSans-30" x="95.410156"/>
       <use xlink:href="#DejaVuSans-30" x="159.033203"/>
      </g>
     </g>
    </g>
    <g id="ytick_6">
     <g id="line2d_12">
      <g>
       <use xlink:href="#m2837cec5bb" x="57.6" y="154.380188" style="stroke: #000000; stroke-width: 0.8"/>
      </g>
     </g>
     <g id="text_12">
      <!-- 1.25 -->
      <g transform="translate(28.334375 158.179407) scale(0.1 -0.1)">
       <use xlink:href="#DejaVuSans-31"/>
       <use xlink:href="#DejaVuSans-2e" x="63.623047"/>
       <use xlink:href="#DejaVuSans-32" x="95.410156"/>
       <use xlink:href="#DejaVuSans-35" x="159.033203"/>
      </g>
     </g>
    </g>
    <g id="ytick_7">
     <g id="line2d_13">
      <g>
       <use xlink:href="#m2837cec5bb" x="57.6" y="123.739425" style="stroke: #000000; stroke-width: 0.8"/>
      </g>
     </g>
     <g id="text_13">
      <!-- 1.50 -->
      <g transform="translate(28.334375 127.538644) scale(0.1 -0.1)">
       <use xlink:href="#DejaVuSans-31"/>
       <use xlink:href="#DejaVuSans-2e" x="63.623047"/>
       <use xlink:href="#DejaVuSans-35" x="95.410156"/>
       <use xlink:href="#DejaVuSans-30" x="159.033203"/>
      </g>
     </g>
    </g>
    <g id="ytick_8">
     <g id="line2d_14">
      <g>
       <use xlink:href="#m2837cec5bb" x="57.6" y="93.098663" style="stroke: #000000; stroke-width: 0.8"/>
      </g>
     </g>
     <g id="text_14">
      <!-- 1.75 -->
      <g transform="translate(28.334375 96.897882) scale(0.1 -0.1)">
       <use xlink:href="#DejaVuSans-31"/>
       <use xlink:href="#DejaVuSans-2e" x="63.623047"/>
       <use xlink:href="#DejaVuSans-37" x="95.410156"/>
       <use xlink:href="#DejaVuSans-35" x="159.033203"/>
      </g>
     </g>
    </g>
    <g id="ytick_9">
     <g id="line2d_15">
      <g>
       <use xlink:href="#m2837cec5bb" x="57.6" y="62.4579" style="stroke: #000000; stroke-width: 0.8"/>
      </g>
     </g>
     <g id="text_15">
      <!-- 2.00 -->
      <g transform="translate(28.334375 66.257119) scale(0.1 -0.1)">
       <use xlink:href="#DejaVuSans-32"/>
       <use xlink:href="#DejaVuSans-2e" x="63.623047"/>
       <use xlink:href="#DejaVuSans-30" x="95.410156"/>
       <use xlink:href="#DejaVuSans-30" x="159.033203"/>
      </g>
     </g>
    </g>
    <g id="text_16">
     <!-- probability density function -->
     <g transform="translate(16.254687 243.138937) rotate(-90) scale(0.1 -0.1)">
      <defs>
       <path id="DejaVuSans-70" d="M 1159 525 
L 1159 -1331 
L 581 -1331 
L 581 3500 
L 1159 3500 
L 1159 2969 
Q 1341 3281 1617 3432 
Q 1894 3584 2278 3584 
Q 2916 3584 3314 3078 
Q 3713 2572 3713 1747 
Q 3713 922 3314 415 
Q 2916 -91 2278 -91 
Q 1894 -91 1617 61 
Q 1341 213 1159 525 
z
M 3116 1747 
Q 3116 2381 2855 2742 
Q 2594 3103 2138 3103 
Q 1681 3103 1420 2742 
Q 1159 2381 1159 1747 
Q 1159 1113 1420 752 
Q 1681 391 2138 391 
Q 2594 391 2855 752 
Q 3116 1113 3116 1747 
z
" transform="scale(0.015625)"/>
       <path id="DejaVuSans-72" d="M 2631 2963 
Q 2534 3019 2420 3045 
Q 2306 3072 2169 3072 
Q 1681 3072 1420 2755 
Q 1159 2438 1159 1844 
L 1159 0 
L 581 0 
L 581 3500 
L 1159 3500 
L 1159 2956 
Q 1341 3275 1631 3429 
Q 1922 3584 2338 3584 
Q 2397 3584 2469 3576 
Q 2541 3569 2628 3553 
L 2631 2963 
z
" transform="scale(0.015625)"/>
       <path id="DejaVuSans-6f" d="M 1959 3097 
Q 1497 3097 1228 2736 
Q 959 2375 959 1747 
Q 959 1119 1226 758 
Q 1494 397 1959 397 
Q 2419 397 2687 759 
Q 2956 1122 2956 1747 
Q 2956 2369 2687 2733 
Q 2419 3097 1959 3097 
z
M 1959 3584 
Q 2709 3584 3137 3096 
Q 3566 2609 3566 1747 
Q 3566 888 3137 398 
Q 2709 -91 1959 -91 
Q 1206 -91 779 398 
Q 353 888 353 1747 
Q 353 2609 779 3096 
Q 1206 3584 1959 3584 
z
" transform="scale(0.015625)"/>
       <path id="DejaVuSans-62" d="M 3116 1747 
Q 3116 2381 2855 2742 
Q 2594 3103 2138 3103 
Q 1681 3103 1420 2742 
Q 1159 2381 1159 1747 
Q 1159 1113 1420 752 
Q 1681 391 2138 391 
Q 2594 391 2855 752 
Q 3116 1113 3116 1747 
z
M 1159 2969 
Q 1341 3281 1617 3432 
Q 1894 3584 2278 3584 
Q 2916 3584 3314 3078 
Q 3713 2572 3713 1747 
Q 3713 922 3314 415 
Q 2916 -91 2278 -91 
Q 1894 -91 1617 61 
Q 1341 213 1159 525 
L 1159 0 
L 581 0 
L 581 4863 
L 1159 4863 
L 1159 2969 
z
" transform="scale(0.015625)"/>
       <path id="DejaVuSans-61" d="M 2194 1759 
Q 1497 1759 1228 1600 
Q 959 1441 959 1056 
Q 959 750 1161 570 
Q 1363 391 1709 391 
Q 2188 391 2477 730 
Q 2766 1069 2766 1631 
L 2766 1759 
L 2194 1759 
z
M 3341 1997 
L 3341 0 
L 2766 0 
L 2766 531 
Q 2569 213 2275 61 
Q 1981 -91 1556 -91 
Q 1019 -91 701 211 
Q 384 513 384 1019 
Q 384 1609 779 1909 
Q 1175 2209 1959 2209 
L 2766 2209 
L 2766 2266 
Q 2766 2663 2505 2880 
Q 2244 3097 1772 3097 
Q 1472 3097 1187 3025 
Q 903 2953 641 2809 
L 641 3341 
Q 956 3463 1253 3523 
Q 1550 3584 1831 3584 
Q 2591 3584 2966 3190 
Q 3341 2797 3341 1997 
z
" transform="scale(0.015625)"/>
       <path id="DejaVuSans-69" d="M 603 3500 
L 1178 3500 
L 1178 0 
L 603 0 
L 603 3500 
z
M 603 4863 
L 1178 4863 
L 1178 4134 
L 603 4134 
L 603 4863 
z
" transform="scale(0.015625)"/>
       <path id="DejaVuSans-6c" d="M 603 4863 
L 1178 4863 
L 1178 0 
L 603 0 
L 603 4863 
z
" transform="scale(0.015625)"/>
       <path id="DejaVuSans-74" d="M 1172 4494 
L 1172 3500 
L 2356 3500 
L 2356 3053 
L 1172 3053 
L 1172 1153 
Q 1172 725 1289 603 
Q 1406 481 1766 481 
L 2356 481 
L 2356 0 
L 1766 0 
Q 1100 0 847 248 
Q 594 497 594 1153 
L 594 3053 
L 172 3053 
L 172 3500 
L 594 3500 
L 594 4494 
L 1172 4494 
z
" transform="scale(0.015625)"/>
       <path id="DejaVuSans-79" d="M 2059 -325 
Q 1816 -950 1584 -1140 
Q 1353 -1331 966 -1331 
L 506 -1331 
L 506 -850 
L 844 -850 
Q 1081 -850 1212 -737 
Q 1344 -625 1503 -206 
L 1606 56 
L 191 3500 
L 800 3500 
L 1894 763 
L 2988 3500 
L 3597 3500 
L 2059 -325 
z
" transform="scale(0.015625)"/>
       <path id="DejaVuSans-20" transform="scale(0.015625)"/>
       <path id="DejaVuSans-64" d="M 2906 2969 
L 2906 4863 
L 3481 4863 
L 3481 0 
L 2906 0 
L 2906 525 
Q 2725 213 2448 61 
Q 2172 -91 1784 -91 
Q 1150 -91 751 415 
Q 353 922 353 1747 
Q 353 2572 751 3078 
Q 1150 3584 1784 3584 
Q 2172 3584 2448 3432 
Q 2725 3281 2906 2969 
z
M 947 1747 
Q 947 1113 1208 752 
Q 1469 391 1925 391 
Q 2381 391 2643 752 
Q 2906 1113 2906 1747 
Q 2906 2381 2643 2742 
Q 2381 3103 1925 3103 
Q 1469 3103 1208 2742 
Q 947 2381 947 1747 
z
" transform="scale(0.015625)"/>
       <path id="DejaVuSans-65" d="M 3597 1894 
L 3597 1613 
L 953 1613 
Q 991 1019 1311 708 
Q 1631 397 2203 397 
Q 2534 397 2845 478 
Q 3156 559 3463 722 
L 3463 178 
Q 3153 47 2828 -22 
Q 2503 -91 2169 -91 
Q 1331 -91 842 396 
Q 353 884 353 1716 
Q 353 2575 817 3079 
Q 1281 3584 2069 3584 
Q 2775 3584 3186 3129 
Q 3597 2675 3597 1894 
z
M 3022 2063 
Q 3016 2534 2758 2815 
Q 2500 3097 2075 3097 
Q 1594 3097 1305 2825 
Q 1016 2553 972 2059 
L 3022 2063 
z
" transform="scale(0.015625)"/>
       <path id="DejaVuSans-6e" d="M 3513 2113 
L 3513 0 
L 2938 0 
L 2938 2094 
Q 2938 2591 2744 2837 
Q 2550 3084 2163 3084 
Q 1697 3084 1428 2787 
Q 1159 2491 1159 1978 
L 1159 0 
L 581 0 
L 581 3500 
L 1159 3500 
L 1159 2956 
Q 1366 3272 1645 3428 
Q 1925 3584 2291 3584 
Q 2894 3584 3203 3211 
Q 3513 2838 3513 2113 
z
" transform="scale(0.015625)"/>
       <path id="DejaVuSans-73" d="M 2834 3397 
L 2834 2853 
Q 2591 2978 2328 3040 
Q 2066 3103 1784 3103 
Q 1356 3103 1142 2972 
Q 928 2841 928 2578 
Q 928 2378 1081 2264 
Q 1234 2150 1697 2047 
L 1894 2003 
Q 2506 1872 2764 1633 
Q 3022 1394 3022 966 
Q 3022 478 2636 193 
Q 2250 -91 1575 -91 
Q 1294 -91 989 -36 
Q 684 19 347 128 
L 347 722 
Q 666 556 975 473 
Q 1284 391 1588 391 
Q 1994 391 2212 530 
Q 2431 669 2431 922 
Q 2431 1156 2273 1281 
Q 2116 1406 1581 1522 
L 1381 1569 
Q 847 1681 609 1914 
Q 372 2147 372 2553 
Q 372 3047 722 3315 
Q 1072 3584 1716 3584 
Q 2034 3584 2315 3537 
Q 2597 3491 2834 3397 
z
" transform="scale(0.015625)"/>
       <path id="DejaVuSans-66" d="M 2375 4863 
L 2375 4384 
L 1825 4384 
Q 1516 4384 1395 4259 
Q 1275 4134 1275 3809 
L 1275 3500 
L 2222 3500 
L 2222 3053 
L 1275 3053 
L 1275 0 
L 697 0 
L 697 3053 
L 147 3053 
L 147 3500 
L 697 3500 
L 697 3744 
Q 697 4328 969 4595 
Q 1241 4863 1831 4863 
L 2375 4863 
z
" transform="scale(0.015625)"/>
       <path id="DejaVuSans-75" d="M 544 1381 
L 544 3500 
L 1119 3500 
L 1119 1403 
Q 1119 906 1312 657 
Q 1506 409 1894 409 
Q 2359 409 2629 706 
Q 2900 1003 2900 1516 
L 2900 3500 
L 3475 3500 
L 3475 0 
L 2900 0 
L 2900 538 
Q 2691 219 2414 64 
Q 2138 -91 1772 -91 
Q 1169 -91 856 284 
Q 544 659 544 1381 
z
M 1991 3584 
L 1991 3584 
z
" transform="scale(0.015625)"/>
       <path id="DejaVuSans-63" d="M 3122 3366 
L 3122 2828 
Q 2878 2963 2633 3030 
Q 2388 3097 2138 3097 
Q 1578 3097 1268 2742 
Q 959 2388 959 1747 
Q 959 1106 1268 751 
Q 1578 397 2138 397 
Q 2388 397 2633 464 
Q 2878 531 3122 666 
L 3122 134 
Q 2881 22 2623 -34 
Q 2366 -91 2075 -91 
Q 1284 -91 818 406 
Q 353 903 353 1747 
Q 353 2603 823 3093 
Q 1294 3584 2113 3584 
Q 2378 3584 2631 3529 
Q 2884 3475 3122 3366 
z
" transform="scale(0.015625)"/>
      </defs>
      <use xlink:href="#DejaVuSans-70"/>
      <use xlink:href="#DejaVuSans-72" x="63.476562"/>
      <use xlink:href="#DejaVuSans-6f" x="102.339844"/>
      <use xlink:href="#DejaVuSans-62" x="163.521484"/>
      <use xlink:href="#DejaVuSans-61" x="226.998047"/>
      <use xlink:href="#DejaVuSans-62" x="288.277344"/>
      <use xlink:href="#DejaVuSans-69" x="351.753906"/>
      <use xlink:href="#DejaVuSans-6c" x="379.537109"/>
      <use xlink:href="#DejaVuSans-69" x="407.320312"/>
      <use xlink:href="#DejaVuSans-74" x="435.103516"/>
      <use xlink:href="#DejaVuSans-79" x="474.3125"/>
      <use xlink:href="#DejaVuSans-20" x="533.492188"/>
      <use xlink:href="#DejaVuSans-64" x="565.279297"/>
      <use xlink:href="#DejaVuSans-65" x="628.755859"/>
      <use xlink:href="#DejaVuSans-6e" x="690.279297"/>
      <use xlink:href="#DejaVuSans-73" x="753.658203"/>
      <use xlink:href="#DejaVuSans-69" x="805.757812"/>
      <use xlink:href="#DejaVuSans-74" x="833.541016"/>
      <use xlink:href="#DejaVuSans-79" x="872.75"/>
      <use xlink:href="#DejaVuSans-20" x="931.929688"/>
      <use xlink:href="#DejaVuSans-66" x="963.716797"/>
      <use xlink:href="#DejaVuSans-75" x="998.921875"/>
      <use xlink:href="#DejaVuSans-6e" x="1062.300781"/>
      <use xlink:href="#DejaVuSans-63" x="1125.679688"/>
      <use xlink:href="#DejaVuSans-74" x="1180.660156"/>
      <use xlink:href="#DejaVuSans-69" x="1219.869141"/>
      <use xlink:href="#DejaVuSans-6f" x="1247.652344"/>
      <use xlink:href="#DejaVuSans-6e" x="1308.833984"/>
     </g>
    </g>
   </g>
   <g id="line2d_16">
    <path d="M 112.084761 307.584 
L 112.084761 41.472 
" clip-path="url(#pe09d4b5687)" style="fill: none; stroke: #ff0000; stroke-linecap: square"/>
   </g>
   <g id="line2d_17">
    <path d="M 57.6 295.327695 
L 219.927273 295.327695 
" clip-path="url(#pe09d4b5687)" style="fill: none; stroke-dasharray: 3.7,1.6; stroke-dashoffset: 0; stroke: #000000"/>
   </g>
   <g id="line2d_18">
    <path d="M 57.6 283.07139 
L 219.927273 283.07139 
" clip-path="url(#pe09d4b5687)" style="fill: none; stroke-dasharray: 3.7,1.6; stroke-dashoffset: 0; stroke: #000000"/>
   </g>
   <g id="line2d_19">
    <path d="M 57.6 270.815085 
L 219.927273 270.815085 
" clip-path="url(#pe09d4b5687)" style="fill: none; stroke-dasharray: 3.7,1.6; stroke-dashoffset: 0; stroke: #000000"/>
   </g>
   <g id="line2d_20">
    <path d="M 57.6 258.55878 
L 219.927273 258.55878 
" clip-path="url(#pe09d4b5687)" style="fill: none; stroke-dasharray: 3.7,1.6; stroke-dashoffset: 0; stroke: #000000"/>
   </g>
   <g id="line2d_21">
    <path d="M 57.6 246.302475 
L 219.927273 246.302475 
" clip-path="url(#pe09d4b5687)" style="fill: none; stroke-dasharray: 3.7,1.6; stroke-dashoffset: 0; stroke: #000000"/>
   </g>
   <g id="line2d_22">
    <path d="M 57.6 234.04617 
L 219.927273 234.04617 
" clip-path="url(#pe09d4b5687)" style="fill: none; stroke-dasharray: 3.7,1.6; stroke-dashoffset: 0; stroke: #000000"/>
   </g>
   <g id="line2d_23">
    <path d="M 57.6 221.789865 
L 219.927273 221.789865 
" clip-path="url(#pe09d4b5687)" style="fill: none; stroke-dasharray: 3.7,1.6; stroke-dashoffset: 0; stroke: #000000"/>
   </g>
   <g id="line2d_24">
    <path d="M 57.6 209.53356 
L 219.927273 209.53356 
" clip-path="url(#pe09d4b5687)" style="fill: none; stroke-dasharray: 3.7,1.6; stroke-dashoffset: 0; stroke: #000000"/>
   </g>
   <g id="line2d_25">
    <path d="M 57.6 197.277255 
L 219.927273 197.277255 
" clip-path="url(#pe09d4b5687)" style="fill: none; stroke-dasharray: 3.7,1.6; stroke-dashoffset: 0; stroke: #000000"/>
   </g>
   <g id="line2d_26">
    <path d="M 57.6 185.02095 
L 219.927273 185.02095 
" clip-path="url(#pe09d4b5687)" style="fill: none; stroke-dasharray: 3.7,1.6; stroke-dashoffset: 0; stroke: #000000"/>
   </g>
   <g id="line2d_27">
    <path d="M 57.6 172.764645 
L 219.927273 172.764645 
" clip-path="url(#pe09d4b5687)" style="fill: none; stroke-dasharray: 3.7,1.6; stroke-dashoffset: 0; stroke: #000000"/>
   </g>
   <g id="line2d_28">
    <path d="M 57.6 160.50834 
L 219.927273 160.50834 
" clip-path="url(#pe09d4b5687)" style="fill: none; stroke-dasharray: 3.7,1.6; stroke-dashoffset: 0; stroke: #000000"/>
   </g>
   <g id="line2d_29">
    <path d="M 57.6 148.252035 
L 219.927273 148.252035 
" clip-path="url(#pe09d4b5687)" style="fill: none; stroke-dasharray: 3.7,1.6; stroke-dashoffset: 0; stroke: #000000"/>
   </g>
   <g id="line2d_30">
    <path d="M 57.6 135.99573 
L 219.927273 135.99573 
" clip-path="url(#pe09d4b5687)" style="fill: none; stroke-dasharray: 3.7,1.6; stroke-dashoffset: 0; stroke: #000000"/>
   </g>
   <g id="line2d_31">
    <path d="M 57.6 123.739425 
L 219.927273 123.739425 
" clip-path="url(#pe09d4b5687)" style="fill: none; stroke-dasharray: 3.7,1.6; stroke-dashoffset: 0; stroke: #000000"/>
   </g>
   <g id="line2d_32">
    <path d="M 57.6 111.48312 
L 219.927273 111.48312 
" clip-path="url(#pe09d4b5687)" style="fill: none; stroke-dasharray: 3.7,1.6; stroke-dashoffset: 0; stroke: #000000"/>
   </g>
   <g id="line2d_33">
    <path d="M 57.6 99.226815 
L 219.927273 99.226815 
" clip-path="url(#pe09d4b5687)" style="fill: none; stroke-dasharray: 3.7,1.6; stroke-dashoffset: 0; stroke: #000000"/>
   </g>
   <g id="line2d_34">
    <path d="M 57.6 86.97051 
L 219.927273 86.97051 
" clip-path="url(#pe09d4b5687)" style="fill: none; stroke-dasharray: 3.7,1.6; stroke-dashoffset: 0; stroke: #000000"/>
   </g>
   <g id="line2d_35">
    <path d="M 57.6 74.714205 
L 219.927273 74.714205 
" clip-path="url(#pe09d4b5687)" style="fill: none; stroke-dasharray: 3.7,1.6; stroke-dashoffset: 0; stroke: #000000"/>
   </g>
   <g id="line2d_36">
    <path d="M 57.6 62.4579 
L 219.927273 62.4579 
" clip-path="url(#pe09d4b5687)" style="fill: none; stroke-dasharray: 3.7,1.6; stroke-dashoffset: 0; stroke: #000000"/>
   </g>
   <g id="line2d_37">
    <path d="M 57.6 50.201595 
L 219.927273 50.201595 
" clip-path="url(#pe09d4b5687)" style="fill: none; stroke-dasharray: 3.7,1.6; stroke-dashoffset: 0; stroke: #000000"/>
   </g>
   <g id="patch_28">
    <path d="M 57.6 307.584 
L 57.6 41.472 
" style="fill: none; stroke: #000000; stroke-width: 0.8; stroke-linejoin: miter; stroke-linecap: square"/>
   </g>
   <g id="patch_29">
    <path d="M 219.927273 307.584 
L 219.927273 41.472 
" style="fill: none; stroke: #000000; stroke-width: 0.8; stroke-linejoin: miter; stroke-linecap: square"/>
   </g>
   <g id="patch_30">
    <path d="M 57.6 307.584 
L 219.927273 307.584 
" style="fill: none; stroke: #000000; stroke-width: 0.8; stroke-linejoin: miter; stroke-linecap: square"/>
   </g>
   <g id="patch_31">
    <path d="M 57.6 41.472 
L 219.927273 41.472 
" style="fill: none; stroke: #000000; stroke-width: 0.8; stroke-linejoin: miter; stroke-linecap: square"/>
   </g>
   <g id="text_17">
    <!-- LIFEsim -->
    <g transform="translate(115.771449 35.472) scale(0.12 -0.12)">
     <defs>
      <path id="DejaVuSans-4c" d="M 628 4666 
L 1259 4666 
L 1259 531 
L 3531 531 
L 3531 0 
L 628 0 
L 628 4666 
z
" transform="scale(0.015625)"/>
      <path id="DejaVuSans-49" d="M 628 4666 
L 1259 4666 
L 1259 0 
L 628 0 
L 628 4666 
z
" transform="scale(0.015625)"/>
      <path id="DejaVuSans-46" d="M 628 4666 
L 3309 4666 
L 3309 4134 
L 1259 4134 
L 1259 2759 
L 3109 2759 
L 3109 2228 
L 1259 2228 
L 1259 0 
L 628 0 
L 628 4666 
z
" transform="scale(0.015625)"/>
      <path id="DejaVuSans-45" d="M 628 4666 
L 3578 4666 
L 3578 4134 
L 1259 4134 
L 1259 2753 
L 3481 2753 
L 3481 2222 
L 1259 2222 
L 1259 531 
L 3634 531 
L 3634 0 
L 628 0 
L 628 4666 
z
" transform="scale(0.015625)"/>
      <path id="DejaVuSans-6d" d="M 3328 2828 
Q 3544 3216 3844 3400 
Q 4144 3584 4550 3584 
Q 5097 3584 5394 3201 
Q 5691 2819 5691 2113 
L 5691 0 
L 5113 0 
L 5113 2094 
Q 5113 2597 4934 2840 
Q 4756 3084 4391 3084 
Q 3944 3084 3684 2787 
Q 3425 2491 3425 1978 
L 3425 0 
L 2847 0 
L 2847 2094 
Q 2847 2600 2669 2842 
Q 2491 3084 2119 3084 
Q 1678 3084 1418 2786 
Q 1159 2488 1159 1978 
L 1159 0 
L 581 0 
L 581 3500 
L 1159 3500 
L 1159 2956 
Q 1356 3278 1631 3431 
Q 1906 3584 2284 3584 
Q 2666 3584 2933 3390 
Q 3200 3197 3328 2828 
z
" transform="scale(0.015625)"/>
     </defs>
     <use xlink:href="#DejaVuSans-4c"/>
     <use xlink:href="#DejaVuSans-49" x="55.712891"/>
     <use xlink:href="#DejaVuSans-46" x="85.205078"/>
     <use xlink:href="#DejaVuSans-45" x="142.724609"/>
     <use xlink:href="#DejaVuSans-73" x="205.908203"/>
     <use xlink:href="#DejaVuSans-69" x="258.007812"/>
     <use xlink:href="#DejaVuSans-6d" x="285.791016"/>
    </g>
   </g>
  </g>
  <g id="axes_2">
   <g id="patch_32">
    <path d="M 252.392727 307.584 
L 414.72 307.584 
L 414.72 41.472 
L 252.392727 41.472 
z
" style="fill: #ffffff"/>
   </g>
   <g id="patch_33">
    <path d="M 292.981657 307.584 
L 295.167473 307.584 
L 295.167473 111.137684 
L 292.981657 111.137684 
z
" clip-path="url(#p6e90767258)" style="fill: #0000ff; opacity: 0.9"/>
   </g>
   <g id="patch_34">
    <path d="M 295.167473 307.584 
L 297.353289 307.584 
L 297.353289 103.861895 
L 295.167473 103.861895 
z
" clip-path="url(#p6e90767258)" style="fill: #0000ff; opacity: 0.9"/>
   </g>
   <g id="patch_35">
    <path d="M 297.353289 307.584 
L 299.539105 307.584 
L 299.539105 123.870316 
L 297.353289 123.870316 
z
" clip-path="url(#p6e90767258)" style="fill: #0000ff; opacity: 0.9"/>
   </g>
   <g id="patch_36">
    <path d="M 299.539105 307.584 
L 301.724921 307.584 
L 301.724921 80.215579 
L 299.539105 80.215579 
z
" clip-path="url(#p6e90767258)" style="fill: #0000ff; opacity: 0.9"/>
   </g>
   <g id="patch_37">
    <path d="M 301.724921 307.584 
L 303.910738 307.584 
L 303.910738 74.758737 
L 301.724921 74.758737 
z
" clip-path="url(#p6e90767258)" style="fill: #0000ff; opacity: 0.9"/>
   </g>
   <g id="patch_38">
    <path d="M 303.910738 307.584 
L 306.096554 307.584 
L 306.096554 91.129263 
L 303.910738 91.129263 
z
" clip-path="url(#p6e90767258)" style="fill: #0000ff; opacity: 0.9"/>
   </g>
   <g id="patch_39">
    <path d="M 306.096554 307.584 
L 308.28237 307.584 
L 308.28237 65.664 
L 306.096554 65.664 
z
" clip-path="url(#p6e90767258)" style="fill: #0000ff; opacity: 0.9"/>
   </g>
   <g id="patch_40">
    <path d="M 308.28237 307.584 
L 310.468186 307.584 
L 310.468186 83.853474 
L 308.28237 83.853474 
z
" clip-path="url(#p6e90767258)" style="fill: #0000ff; opacity: 0.9"/>
   </g>
   <g id="patch_41">
    <path d="M 310.468186 307.584 
L 312.654002 307.584 
L 312.654002 176.619789 
L 310.468186 176.619789 
z
" clip-path="url(#p6e90767258)" style="fill: #0000ff; opacity: 0.9"/>
   </g>
   <g id="patch_42">
    <path d="M 312.654002 307.584 
L 314.839818 307.584 
L 314.839818 243.011368 
L 312.654002 243.011368 
z
" clip-path="url(#p6e90767258)" style="fill: #0000ff; opacity: 0.9"/>
   </g>
   <g id="patch_43">
    <path d="M 314.839818 307.584 
L 317.025634 307.584 
L 317.025634 236.645053 
L 314.839818 236.645053 
z
" clip-path="url(#p6e90767258)" style="fill: #0000ff; opacity: 0.9"/>
   </g>
   <g id="patch_44">
    <path d="M 317.025634 307.584 
L 319.21145 307.584 
L 319.21145 273.024 
L 317.025634 273.024 
z
" clip-path="url(#p6e90767258)" style="fill: #0000ff; opacity: 0.9"/>
   </g>
   <g id="patch_45">
    <path d="M 319.21145 307.584 
L 321.397266 307.584 
L 321.397266 293.941895 
L 319.21145 293.941895 
z
" clip-path="url(#p6e90767258)" style="fill: #0000ff; opacity: 0.9"/>
   </g>
   <g id="patch_46">
    <path d="M 321.397266 307.584 
L 323.583082 307.584 
L 323.583082 290.304 
L 321.397266 290.304 
z
" clip-path="url(#p6e90767258)" style="fill: #0000ff; opacity: 0.9"/>
   </g>
   <g id="patch_47">
    <path d="M 323.583082 307.584 
L 325.768898 307.584 
L 325.768898 280.299789 
L 323.583082 280.299789 
z
" clip-path="url(#p6e90767258)" style="fill: #0000ff; opacity: 0.9"/>
   </g>
   <g id="patch_48">
    <path d="M 325.768898 307.584 
L 327.954714 307.584 
L 327.954714 289.394526 
L 325.768898 289.394526 
z
" clip-path="url(#p6e90767258)" style="fill: #0000ff; opacity: 0.9"/>
   </g>
   <g id="patch_49">
    <path d="M 327.954714 307.584 
L 330.140531 307.584 
L 330.140531 284.847158 
L 327.954714 284.847158 
z
" clip-path="url(#p6e90767258)" style="fill: #0000ff; opacity: 0.9"/>
   </g>
   <g id="patch_50">
    <path d="M 330.140531 307.584 
L 332.326347 307.584 
L 332.326347 272.114526 
L 330.140531 272.114526 
z
" clip-path="url(#p6e90767258)" style="fill: #0000ff; opacity: 0.9"/>
   </g>
   <g id="patch_51">
    <path d="M 332.326347 307.584 
L 334.512163 307.584 
L 334.512163 272.114526 
L 332.326347 272.114526 
z
" clip-path="url(#p6e90767258)" style="fill: #0000ff; opacity: 0.9"/>
   </g>
   <g id="patch_52">
    <path d="M 334.512163 307.584 
L 336.697979 307.584 
L 336.697979 283.937684 
L 334.512163 283.937684 
z
" clip-path="url(#p6e90767258)" style="fill: #0000ff; opacity: 0.9"/>
   </g>
   <g id="patch_53">
    <path d="M 336.697979 307.584 
L 338.883795 307.584 
L 338.883795 293.941895 
L 336.697979 293.941895 
z
" clip-path="url(#p6e90767258)" style="fill: #0000ff; opacity: 0.9"/>
   </g>
   <g id="patch_54">
    <path d="M 338.883795 307.584 
L 341.069611 307.584 
L 341.069611 286.666105 
L 338.883795 286.666105 
z
" clip-path="url(#p6e90767258)" style="fill: #0000ff; opacity: 0.9"/>
   </g>
   <g id="patch_55">
    <path d="M 341.069611 307.584 
L 343.255427 307.584 
L 343.255427 301.217684 
L 341.069611 301.217684 
z
" clip-path="url(#p6e90767258)" style="fill: #0000ff; opacity: 0.9"/>
   </g>
   <g id="patch_56">
    <path d="M 343.255427 307.584 
L 345.441243 307.584 
L 345.441243 298.489263 
L 343.255427 298.489263 
z
" clip-path="url(#p6e90767258)" style="fill: #0000ff; opacity: 0.9"/>
   </g>
   <g id="patch_57">
    <path d="M 345.441243 307.584 
L 347.627059 307.584 
L 347.627059 303.036632 
L 345.441243 303.036632 
z
" clip-path="url(#p6e90767258)" style="fill: #0000ff; opacity: 0.9"/>
   </g>
   <g id="matplotlib.axis_3">
    <g id="xtick_7">
     <g id="line2d_38">
      <g>
       <use xlink:href="#mfaa1d870cf" x="252.392727" y="307.584" style="stroke: #000000; stroke-width: 0.8"/>
      </g>
     </g>
     <g id="text_18">
      <!-- −1 -->
      <g transform="translate(245.021634 322.182437) scale(0.1 -0.1)">
       <use xlink:href="#DejaVuSans-2212"/>
       <use xlink:href="#DejaVuSans-31" x="83.789062"/>
      </g>
     </g>
    </g>
    <g id="xtick_8">
     <g id="line2d_39">
      <g>
       <use xlink:href="#mfaa1d870cf" x="292.974545" y="307.584" style="stroke: #000000; stroke-width: 0.8"/>
      </g>
     </g>
     <g id="text_19">
      <!-- 0 -->
      <g transform="translate(289.793295 322.182437) scale(0.1 -0.1)">
       <use xlink:href="#DejaVuSans-30"/>
      </g>
     </g>
    </g>
    <g id="xtick_9">
     <g id="line2d_40">
      <g>
       <use xlink:href="#mfaa1d870cf" x="333.556364" y="307.584" style="stroke: #000000; stroke-width: 0.8"/>
      </g>
     </g>
     <g id="text_20">
      <!-- 1 -->
      <g transform="translate(330.375114 322.182437) scale(0.1 -0.1)">
       <use xlink:href="#DejaVuSans-31"/>
      </g>
     </g>
    </g>
    <g id="xtick_10">
     <g id="line2d_41">
      <g>
       <use xlink:href="#mfaa1d870cf" x="333.556364" y="307.584" style="stroke: #000000; stroke-width: 0.8"/>
      </g>
     </g>
     <g id="text_21">
      <!-- 1 -->
      <g transform="translate(330.375114 322.182437) scale(0.1 -0.1)">
       <use xlink:href="#DejaVuSans-31"/>
      </g>
     </g>
    </g>
    <g id="xtick_11">
     <g id="line2d_42">
      <g>
       <use xlink:href="#mfaa1d870cf" x="374.138182" y="307.584" style="stroke: #000000; stroke-width: 0.8"/>
      </g>
     </g>
     <g id="text_22">
      <!-- 2 -->
      <g transform="translate(370.956932 322.182437) scale(0.1 -0.1)">
       <use xlink:href="#DejaVuSans-32"/>
      </g>
     </g>
    </g>
    <g id="xtick_12">
     <g id="line2d_43">
      <g>
       <use xlink:href="#mfaa1d870cf" x="414.72" y="307.584" style="stroke: #000000; stroke-width: 0.8"/>
      </g>
     </g>
     <g id="text_23">
      <!-- 3 -->
      <g transform="translate(411.53875 322.182437) scale(0.1 -0.1)">
       <use xlink:href="#DejaVuSans-33"/>
      </g>
     </g>
    </g>
   </g>
   <g id="matplotlib.axis_4">
    <g id="ytick_10">
     <g id="line2d_44">
      <g>
       <use xlink:href="#m2837cec5bb" x="252.392727" y="307.584" style="stroke: #000000; stroke-width: 0.8"/>
      </g>
     </g>
    </g>
    <g id="ytick_11">
     <g id="line2d_45">
      <g>
       <use xlink:href="#m2837cec5bb" x="252.392727" y="276.943238" style="stroke: #000000; stroke-width: 0.8"/>
      </g>
     </g>
    </g>
    <g id="ytick_12">
     <g id="line2d_46">
      <g>
       <use xlink:href="#m2837cec5bb" x="252.392727" y="246.302475" style="stroke: #000000; stroke-width: 0.8"/>
      </g>
     </g>
    </g>
    <g id="ytick_13">
     <g id="line2d_47">
      <g>
       <use xlink:href="#m2837cec5bb" x="252.392727" y="215.661713" style="stroke: #000000; stroke-width: 0.8"/>
      </g>
     </g>
    </g>
    <g id="ytick_14">
     <g id="line2d_48">
      <g>
       <use xlink:href="#m2837cec5bb" x="252.392727" y="185.02095" style="stroke: #000000; stroke-width: 0.8"/>
      </g>
     </g>
    </g>
    <g id="ytick_15">
     <g id="line2d_49">
      <g>
       <use xlink:href="#m2837cec5bb" x="252.392727" y="154.380188" style="stroke: #000000; stroke-width: 0.8"/>
      </g>
     </g>
    </g>
    <g id="ytick_16">
     <g id="line2d_50">
      <g>
       <use xlink:href="#m2837cec5bb" x="252.392727" y="123.739425" style="stroke: #000000; stroke-width: 0.8"/>
      </g>
     </g>
    </g>
    <g id="ytick_17">
     <g id="line2d_51">
      <g>
       <use xlink:href="#m2837cec5bb" x="252.392727" y="93.098663" style="stroke: #000000; stroke-width: 0.8"/>
      </g>
     </g>
    </g>
    <g id="ytick_18">
     <g id="line2d_52">
      <g>
       <use xlink:href="#m2837cec5bb" x="252.392727" y="62.4579" style="stroke: #000000; stroke-width: 0.8"/>
      </g>
     </g>
    </g>
   </g>
   <g id="line2d_53">
    <path d="M 306.789677 307.584 
L 306.789677 41.472 
" clip-path="url(#p6e90767258)" style="fill: none; stroke: #ff0000; stroke-linecap: square"/>
   </g>
   <g id="line2d_54">
    <path d="M 252.392727 295.327695 
L 414.72 295.327695 
" clip-path="url(#p6e90767258)" style="fill: none; stroke-dasharray: 3.7,1.6; stroke-dashoffset: 0; stroke: #000000"/>
   </g>
   <g id="line2d_55">
    <path d="M 252.392727 283.07139 
L 414.72 283.07139 
" clip-path="url(#p6e90767258)" style="fill: none; stroke-dasharray: 3.7,1.6; stroke-dashoffset: 0; stroke: #000000"/>
   </g>
   <g id="line2d_56">
    <path d="M 252.392727 270.815085 
L 414.72 270.815085 
" clip-path="url(#p6e90767258)" style="fill: none; stroke-dasharray: 3.7,1.6; stroke-dashoffset: 0; stroke: #000000"/>
   </g>
   <g id="line2d_57">
    <path d="M 252.392727 258.55878 
L 414.72 258.55878 
" clip-path="url(#p6e90767258)" style="fill: none; stroke-dasharray: 3.7,1.6; stroke-dashoffset: 0; stroke: #000000"/>
   </g>
   <g id="line2d_58">
    <path d="M 252.392727 246.302475 
L 414.72 246.302475 
" clip-path="url(#p6e90767258)" style="fill: none; stroke-dasharray: 3.7,1.6; stroke-dashoffset: 0; stroke: #000000"/>
   </g>
   <g id="line2d_59">
    <path d="M 252.392727 234.04617 
L 414.72 234.04617 
" clip-path="url(#p6e90767258)" style="fill: none; stroke-dasharray: 3.7,1.6; stroke-dashoffset: 0; stroke: #000000"/>
   </g>
   <g id="line2d_60">
    <path d="M 252.392727 221.789865 
L 414.72 221.789865 
" clip-path="url(#p6e90767258)" style="fill: none; stroke-dasharray: 3.7,1.6; stroke-dashoffset: 0; stroke: #000000"/>
   </g>
   <g id="line2d_61">
    <path d="M 252.392727 209.53356 
L 414.72 209.53356 
" clip-path="url(#p6e90767258)" style="fill: none; stroke-dasharray: 3.7,1.6; stroke-dashoffset: 0; stroke: #000000"/>
   </g>
   <g id="line2d_62">
    <path d="M 252.392727 197.277255 
L 414.72 197.277255 
" clip-path="url(#p6e90767258)" style="fill: none; stroke-dasharray: 3.7,1.6; stroke-dashoffset: 0; stroke: #000000"/>
   </g>
   <g id="line2d_63">
    <path d="M 252.392727 185.02095 
L 414.72 185.02095 
" clip-path="url(#p6e90767258)" style="fill: none; stroke-dasharray: 3.7,1.6; stroke-dashoffset: 0; stroke: #000000"/>
   </g>
   <g id="line2d_64">
    <path d="M 252.392727 172.764645 
L 414.72 172.764645 
" clip-path="url(#p6e90767258)" style="fill: none; stroke-dasharray: 3.7,1.6; stroke-dashoffset: 0; stroke: #000000"/>
   </g>
   <g id="line2d_65">
    <path d="M 252.392727 160.50834 
L 414.72 160.50834 
" clip-path="url(#p6e90767258)" style="fill: none; stroke-dasharray: 3.7,1.6; stroke-dashoffset: 0; stroke: #000000"/>
   </g>
   <g id="line2d_66">
    <path d="M 252.392727 148.252035 
L 414.72 148.252035 
" clip-path="url(#p6e90767258)" style="fill: none; stroke-dasharray: 3.7,1.6; stroke-dashoffset: 0; stroke: #000000"/>
   </g>
   <g id="line2d_67">
    <path d="M 252.392727 135.99573 
L 414.72 135.99573 
" clip-path="url(#p6e90767258)" style="fill: none; stroke-dasharray: 3.7,1.6; stroke-dashoffset: 0; stroke: #000000"/>
   </g>
   <g id="line2d_68">
    <path d="M 252.392727 123.739425 
L 414.72 123.739425 
" clip-path="url(#p6e90767258)" style="fill: none; stroke-dasharray: 3.7,1.6; stroke-dashoffset: 0; stroke: #000000"/>
   </g>
   <g id="line2d_69">
    <path d="M 252.392727 111.48312 
L 414.72 111.48312 
" clip-path="url(#p6e90767258)" style="fill: none; stroke-dasharray: 3.7,1.6; stroke-dashoffset: 0; stroke: #000000"/>
   </g>
   <g id="line2d_70">
    <path d="M 252.392727 99.226815 
L 414.72 99.226815 
" clip-path="url(#p6e90767258)" style="fill: none; stroke-dasharray: 3.7,1.6; stroke-dashoffset: 0; stroke: #000000"/>
   </g>
   <g id="line2d_71">
    <path d="M 252.392727 86.97051 
L 414.72 86.97051 
" clip-path="url(#p6e90767258)" style="fill: none; stroke-dasharray: 3.7,1.6; stroke-dashoffset: 0; stroke: #000000"/>
   </g>
   <g id="line2d_72">
    <path d="M 252.392727 74.714205 
L 414.72 74.714205 
" clip-path="url(#p6e90767258)" style="fill: none; stroke-dasharray: 3.7,1.6; stroke-dashoffset: 0; stroke: #000000"/>
   </g>
   <g id="line2d_73">
    <path d="M 252.392727 62.4579 
L 414.72 62.4579 
" clip-path="url(#p6e90767258)" style="fill: none; stroke-dasharray: 3.7,1.6; stroke-dashoffset: 0; stroke: #000000"/>
   </g>
   <g id="line2d_74">
    <path d="M 252.392727 50.201595 
L 414.72 50.201595 
" clip-path="url(#p6e90767258)" style="fill: none; stroke-dasharray: 3.7,1.6; stroke-dashoffset: 0; stroke: #000000"/>
   </g>
   <g id="patch_58">
    <path d="M 252.392727 307.584 
L 252.392727 41.472 
" style="fill: none; stroke: #000000; stroke-width: 0.8; stroke-linejoin: miter; stroke-linecap: square"/>
   </g>
   <g id="patch_59">
    <path d="M 414.72 307.584 
L 414.72 41.472 
" style="fill: none; stroke: #000000; stroke-width: 0.8; stroke-linejoin: miter; stroke-linecap: square"/>
   </g>
   <g id="patch_60">
    <path d="M 252.392727 307.584 
L 414.72 307.584 
" style="fill: none; stroke: #000000; stroke-width: 0.8; stroke-linejoin: miter; stroke-linecap: square"/>
   </g>
   <g id="patch_61">
    <path d="M 252.392727 41.472 
L 414.72 41.472 
" style="fill: none; stroke: #000000; stroke-width: 0.8; stroke-linejoin: miter; stroke-linecap: square"/>
   </g>
   <g id="text_24">
    <!-- ExoSim -->
    <g transform="translate(311.409801 35.472) scale(0.12 -0.12)">
     <defs>
      <path id="DejaVuSans-78" d="M 3513 3500 
L 2247 1797 
L 3578 0 
L 2900 0 
L 1881 1375 
L 863 0 
L 184 0 
L 1544 1831 
L 300 3500 
L 978 3500 
L 1906 2253 
L 2834 3500 
L 3513 3500 
z
" transform="scale(0.015625)"/>
      <path id="DejaVuSans-53" d="M 3425 4513 
L 3425 3897 
Q 3066 4069 2747 4153 
Q 2428 4238 2131 4238 
Q 1616 4238 1336 4038 
Q 1056 3838 1056 3469 
Q 1056 3159 1242 3001 
Q 1428 2844 1947 2747 
L 2328 2669 
Q 3034 2534 3370 2195 
Q 3706 1856 3706 1288 
Q 3706 609 3251 259 
Q 2797 -91 1919 -91 
Q 1588 -91 1214 -16 
Q 841 59 441 206 
L 441 856 
Q 825 641 1194 531 
Q 1563 422 1919 422 
Q 2459 422 2753 634 
Q 3047 847 3047 1241 
Q 3047 1584 2836 1778 
Q 2625 1972 2144 2069 
L 1759 2144 
Q 1053 2284 737 2584 
Q 422 2884 422 3419 
Q 422 4038 858 4394 
Q 1294 4750 2059 4750 
Q 2388 4750 2728 4690 
Q 3069 4631 3425 4513 
z
" transform="scale(0.015625)"/>
     </defs>
     <use xlink:href="#DejaVuSans-45"/>
     <use xlink:href="#DejaVuSans-78" x="63.183594"/>
     <use xlink:href="#DejaVuSans-6f" x="119.238281"/>
     <use xlink:href="#DejaVuSans-53" x="180.419922"/>
     <use xlink:href="#DejaVuSans-69" x="243.896484"/>
     <use xlink:href="#DejaVuSans-6d" x="271.679688"/>
    </g>
   </g>
  </g>
  <g id="text_25">
   <!-- Planet Radius log [R_E] -->
   <g transform="translate(172.539062 334.396312) scale(0.1 -0.1)">
    <defs>
     <path id="DejaVuSans-50" d="M 1259 4147 
L 1259 2394 
L 2053 2394 
Q 2494 2394 2734 2622 
Q 2975 2850 2975 3272 
Q 2975 3691 2734 3919 
Q 2494 4147 2053 4147 
L 1259 4147 
z
M 628 4666 
L 2053 4666 
Q 2838 4666 3239 4311 
Q 3641 3956 3641 3272 
Q 3641 2581 3239 2228 
Q 2838 1875 2053 1875 
L 1259 1875 
L 1259 0 
L 628 0 
L 628 4666 
z
" transform="scale(0.015625)"/>
     <path id="DejaVuSans-52" d="M 2841 2188 
Q 3044 2119 3236 1894 
Q 3428 1669 3622 1275 
L 4263 0 
L 3584 0 
L 2988 1197 
Q 2756 1666 2539 1819 
Q 2322 1972 1947 1972 
L 1259 1972 
L 1259 0 
L 628 0 
L 628 4666 
L 2053 4666 
Q 2853 4666 3247 4331 
Q 3641 3997 3641 3322 
Q 3641 2881 3436 2590 
Q 3231 2300 2841 2188 
z
M 1259 4147 
L 1259 2491 
L 2053 2491 
Q 2509 2491 2742 2702 
Q 2975 2913 2975 3322 
Q 2975 3731 2742 3939 
Q 2509 4147 2053 4147 
L 1259 4147 
z
" transform="scale(0.015625)"/>
     <path id="DejaVuSans-67" d="M 2906 1791 
Q 2906 2416 2648 2759 
Q 2391 3103 1925 3103 
Q 1463 3103 1205 2759 
Q 947 2416 947 1791 
Q 947 1169 1205 825 
Q 1463 481 1925 481 
Q 2391 481 2648 825 
Q 2906 1169 2906 1791 
z
M 3481 434 
Q 3481 -459 3084 -895 
Q 2688 -1331 1869 -1331 
Q 1566 -1331 1297 -1286 
Q 1028 -1241 775 -1147 
L 775 -588 
Q 1028 -725 1275 -790 
Q 1522 -856 1778 -856 
Q 2344 -856 2625 -561 
Q 2906 -266 2906 331 
L 2906 616 
Q 2728 306 2450 153 
Q 2172 0 1784 0 
Q 1141 0 747 490 
Q 353 981 353 1791 
Q 353 2603 747 3093 
Q 1141 3584 1784 3584 
Q 2172 3584 2450 3431 
Q 2728 3278 2906 2969 
L 2906 3500 
L 3481 3500 
L 3481 434 
z
" transform="scale(0.015625)"/>
     <path id="DejaVuSans-5b" d="M 550 4863 
L 1875 4863 
L 1875 4416 
L 1125 4416 
L 1125 -397 
L 1875 -397 
L 1875 -844 
L 550 -844 
L 550 4863 
z
" transform="scale(0.015625)"/>
     <path id="DejaVuSans-5f" d="M 3263 -1063 
L 3263 -1509 
L -63 -1509 
L -63 -1063 
L 3263 -1063 
z
" transform="scale(0.015625)"/>
     <path id="DejaVuSans-5d" d="M 1947 4863 
L 1947 -844 
L 622 -844 
L 622 -397 
L 1369 -397 
L 1369 4416 
L 622 4416 
L 622 4863 
L 1947 4863 
z
" transform="scale(0.015625)"/>
    </defs>
    <use xlink:href="#DejaVuSans-50"/>
    <use xlink:href="#DejaVuSans-6c" x="60.302734"/>
    <use xlink:href="#DejaVuSans-61" x="88.085938"/>
    <use xlink:href="#DejaVuSans-6e" x="149.365234"/>
    <use xlink:href="#DejaVuSans-65" x="212.744141"/>
    <use xlink:href="#DejaVuSans-74" x="274.267578"/>
    <use xlink:href="#DejaVuSans-20" x="313.476562"/>
    <use xlink:href="#DejaVuSans-52" x="345.263672"/>
    <use xlink:href="#DejaVuSans-61" x="412.496094"/>
    <use xlink:href="#DejaVuSans-64" x="473.775391"/>
    <use xlink:href="#DejaVuSans-69" x="537.251953"/>
    <use xlink:href="#DejaVuSans-75" x="565.035156"/>
    <use xlink:href="#DejaVuSans-73" x="628.414062"/>
    <use xlink:href="#DejaVuSans-20" x="680.513672"/>
    <use xlink:href="#DejaVuSans-6c" x="712.300781"/>
    <use xlink:href="#DejaVuSans-6f" x="740.083984"/>
    <use xlink:href="#DejaVuSans-67" x="801.265625"/>
    <use xlink:href="#DejaVuSans-20" x="864.742188"/>
    <use xlink:href="#DejaVuSans-5b" x="896.529297"/>
    <use xlink:href="#DejaVuSans-52" x="935.542969"/>
    <use xlink:href="#DejaVuSans-5f" x="1005.025391"/>
    <use xlink:href="#DejaVuSans-45" x="1055.025391"/>
    <use xlink:href="#DejaVuSans-5d" x="1118.208984"/>
   </g>
  </g>
  <g id="text_26">
   <!-- log Distribution Radius Planets -->
   <g transform="translate(107.84125 19.0695) scale(0.16 -0.16)">
    <defs>
     <path id="DejaVuSans-44" d="M 1259 4147 
L 1259 519 
L 2022 519 
Q 2988 519 3436 956 
Q 3884 1394 3884 2338 
Q 3884 3275 3436 3711 
Q 2988 4147 2022 4147 
L 1259 4147 
z
M 628 4666 
L 1925 4666 
Q 3281 4666 3915 4102 
Q 4550 3538 4550 2338 
Q 4550 1131 3912 565 
Q 3275 0 1925 0 
L 628 0 
L 628 4666 
z
" transform="scale(0.015625)"/>
    </defs>
    <use xlink:href="#DejaVuSans-6c"/>
    <use xlink:href="#DejaVuSans-6f" x="27.783203"/>
    <use xlink:href="#DejaVuSans-67" x="88.964844"/>
    <use xlink:href="#DejaVuSans-20" x="152.441406"/>
    <use xlink:href="#DejaVuSans-44" x="184.228516"/>
    <use xlink:href="#DejaVuSans-69" x="261.230469"/>
    <use xlink:href="#DejaVuSans-73" x="289.013672"/>
    <use xlink:href="#DejaVuSans-74" x="341.113281"/>
    <use xlink:href="#DejaVuSans-72" x="380.322266"/>
    <use xlink:href="#DejaVuSans-69" x="421.435547"/>
    <use xlink:href="#DejaVuSans-62" x="449.21875"/>
    <use xlink:href="#DejaVuSans-75" x="512.695312"/>
    <use xlink:href="#DejaVuSans-74" x="576.074219"/>
    <use xlink:href="#DejaVuSans-69" x="615.283203"/>
    <use xlink:href="#DejaVuSans-6f" x="643.066406"/>
    <use xlink:href="#DejaVuSans-6e" x="704.248047"/>
    <use xlink:href="#DejaVuSans-20" x="767.626953"/>
    <use xlink:href="#DejaVuSans-52" x="799.414062"/>
    <use xlink:href="#DejaVuSans-61" x="866.646484"/>
    <use xlink:href="#DejaVuSans-64" x="927.925781"/>
    <use xlink:href="#DejaVuSans-69" x="991.402344"/>
    <use xlink:href="#DejaVuSans-75" x="1019.185547"/>
    <use xlink:href="#DejaVuSans-73" x="1082.564453"/>
    <use xlink:href="#DejaVuSans-20" x="1134.664062"/>
    <use xlink:href="#DejaVuSans-50" x="1166.451172"/>
    <use xlink:href="#DejaVuSans-6c" x="1226.753906"/>
    <use xlink:href="#DejaVuSans-61" x="1254.537109"/>
    <use xlink:href="#DejaVuSans-6e" x="1315.816406"/>
    <use xlink:href="#DejaVuSans-65" x="1379.195312"/>
    <use xlink:href="#DejaVuSans-74" x="1440.71875"/>
    <use xlink:href="#DejaVuSans-73" x="1479.927734"/>
   </g>
  </g>
 </g>
 <defs>
  <clipPath id="pe09d4b5687">
   <rect x="57.6" y="41.472" width="162.327273" height="266.112"/>
  </clipPath>
  <clipPath id="p6e90767258">
   <rect x="252.392727" y="41.472" width="162.327273" height="266.112"/>
  </clipPath>
 </defs>
</svg>
